%FSDAX33Y33*%
%MOMM*%
%SFA1B1*%

%IPPOS*%
%AMD1002*
%
%ADD38C,0.399999*%
%ADD39R,0.549999X1.500000*%
%ADD40R,1.000001X2.849999*%
%ADD41R,5.549999X5.950001*%
%ADD42R,0.650001X1.649999*%
%ADD43R,5.639999X0.960001*%
%ADD44R,2.100001X5.599999*%
%ADD45R,0.900001X0.650001*%
%ADD46R,0.650001X0.900001*%
%ADD47R,0.900001X0.750001*%
%ADD48R,0.419999X0.619999*%
%ADD49R,0.800001X0.800001*%
%ADD50R,1.050000X1.050000*%
%ADD51R,2.000001X1.799999*%
%ADD52R,0.800001X1.799999*%
%ADD53R,1.200000X0.800001*%
%ADD54R,0.399999X1.350000*%
%ADD55R,1.450000X1.300000*%
%ADD56R,1.599999X1.400000*%
%ADD57R,1.899999X1.899999*%
%ADD58R,0.750001X0.900001*%
%ADD59R,2.999999X1.000001*%
%ADD60C,1.200000*%
%ADD61C,0.499999*%
%ADD62C,0.299999*%
%ADD63C,0.860001*%
%ADD64C,0.800001*%
%ADD65C,2.100001*%
%ADD66C,3.200001*%
%ADD67C,1.699999*%
%LNtopcopperfilm-1*%
%LPD*%
G36*
X127000Y076200D02*
X000000D01*
Y000000*
X127000*
Y076200*
G37*
%LNtopcopperfilm-2*%
%LPC*%
G36*
X104503Y025943D02*
X104499Y025981D01*
X104487Y026015*
X104467Y026045*
X104438Y026071*
X104402Y026093*
X104358Y026111*
X104305Y026125*
X104245Y026135*
X104176Y026141*
X104100Y026143*
Y026543*
X104176Y026545*
X104245Y026551*
X104305Y026561*
X104358Y026575*
X104402Y026593*
X104438Y026615*
X104467Y026641*
X104487Y026671*
X104499Y026705*
X104503Y026743*
Y025943*
G37*
G36*
X116630Y065490D02*
X116459Y065291D01*
X116389Y065196*
X116330Y065103*
X116282Y065013*
X116245Y064926*
X116218Y064842*
X116202Y064761*
X116197Y064682*
X115797*
X115791Y064761*
X115775Y064842*
X115749Y064926*
X115711Y065013*
X115663Y065103*
X115604Y065196*
X115535Y065291*
X115454Y065389*
X115262Y065593*
X116732*
X116630Y065490*
G37*
G36*
X122988Y060410D02*
X122861Y060365D01*
X122594Y060690*
X122198Y061015*
X121746Y061257*
X121256Y061405*
X120747Y061455*
X120237Y061405*
X119747Y061257*
X119295Y061015*
X118899Y060690*
X118574Y060294*
X118333Y059843*
X118184Y059353*
X118134Y058843*
X118184Y058333*
X118333Y057843*
X118574Y057391*
X118899Y056996*
X119295Y056671*
X119747Y056429*
X120237Y056281*
X120747Y056230*
X121256Y056281*
X121746Y056429*
X122198Y056671*
X122594Y056996*
X122861Y057321*
X122988Y057275*
Y005352*
X004005*
Y057275*
X004132Y057321*
X004399Y056996*
X004795Y056671*
X005247Y056429*
X005737Y056281*
X006247Y056230*
X006756Y056281*
X007246Y056429*
X007698Y056671*
X008094Y056996*
X008419Y057391*
X008660Y057843*
X008809Y058333*
X008859Y058843*
X008809Y059353*
X008660Y059843*
X008419Y060294*
X008094Y060690*
X007698Y061015*
X007246Y061257*
X006756Y061405*
X006247Y061455*
X005737Y061405*
X005247Y061257*
X004795Y061015*
X004399Y060690*
X004132Y060365*
X004005Y060410*
Y070834*
X016688*
Y061381*
X016586Y061305*
X016256Y061405*
X015747Y061455*
X015237Y061405*
X014747Y061257*
X014295Y061015*
X013899Y060690*
X013574Y060294*
X013333Y059843*
X013184Y059353*
X013134Y058843*
X013184Y058333*
X013333Y057843*
X013574Y057391*
X013899Y056996*
X014295Y056671*
X014747Y056429*
X015237Y056281*
X015747Y056230*
X016256Y056281*
X016746Y056429*
X016799Y056457*
X016918Y056414*
X017001Y056214*
X017050Y056128*
X017094Y056040*
X017312Y055714*
X017377Y055639*
X017437Y055561*
X017715Y055284*
X017793Y055223*
X017868Y055158*
X018194Y054940*
X018282Y054897*
X018368Y054847*
X018730Y054697*
X018826Y054672*
X018919Y054640*
X019304Y054563*
X019378Y054558*
X019451Y054545*
X019647Y054535*
X019672Y054538*
X019697Y054534*
X021181*
X021293Y054497*
Y054307*
X021251Y054197*
X021166Y054197*
X020399*
Y053293*
Y052389*
X021166*
X021251*
X021293Y052279*
Y052089*
X021847*
Y048943*
X021943*
X022050Y048816*
X022014Y048543*
Y046153*
Y046153*
X022063Y045780*
X022207Y045432*
X022437Y045133*
X022762Y044808*
X023862Y043708*
Y043708*
X027353Y040217*
X027353Y040217*
X029257Y038313*
X029556Y038084*
X029904Y037940*
X030277Y037890*
X030277*
X045009*
X046002Y036898*
X046002*
X046301Y036669*
X046649Y036525*
X047022Y036475*
X049482*
X049482*
X049820Y036520*
X049911Y036464*
X049947Y036425*
Y036393*
X052648*
X052672Y036209*
X052725Y036080*
X052640Y035953*
X042248*
X041003Y037199*
X040752Y037391*
X040460Y037512*
X040147Y037553*
X022598*
X012207Y047944*
Y064684*
X012453Y064886*
X012709Y065198*
X012816Y065221*
X012839Y065204*
X013156Y065072*
X013370Y065044*
Y066343*
Y067641*
X013156Y067613*
X012839Y067482*
X012816Y067464*
X012709Y067487*
X012453Y067799*
X012141Y068056*
X011785Y068246*
X011399Y068363*
X010997Y068403*
X010595Y068363*
X010208Y068246*
X009852Y068056*
X009747Y067969*
X009641Y068056*
X009285Y068246*
X008899Y068363*
X008497Y068403*
X008095Y068363*
X007708Y068246*
X007352Y068056*
X007040Y067799*
X006784Y067487*
X006594Y067131*
X006476Y066745*
X006437Y066343*
X006476Y065941*
X006594Y065555*
X006784Y065198*
X007040Y064886*
X007352Y064630*
X007708Y064440*
X008095Y064323*
X008497Y064283*
X008899Y064323*
X009285Y064440*
X009641Y064630*
X009659Y064645*
X009786Y064585*
Y047443*
X009828Y047130*
X009949Y046838*
X010141Y046587*
X021241Y035487*
X021492Y035295*
X021783Y035174*
X022097Y035133*
X032201*
X032226Y035006*
X032192Y034991*
X031941Y034799*
X031616Y034474*
X031423Y034223*
X031303Y033931*
X031261Y033618*
Y033493*
X024747*
Y031776*
X024675Y031704*
X024650Y031702*
X024600Y031702*
X024597Y031702*
X024592Y031701*
X024587Y031701*
X024578Y031700*
X024234Y031666*
X023885Y031560*
X023564Y031389*
X023282Y031157*
X023051Y030876*
X022879Y030554*
X022773Y030206*
X022738Y029843*
X022773Y029480*
X022879Y029131*
X023051Y028810*
X023282Y028528*
X023475Y028370*
X023430Y028243*
X019497*
Y024443*
X023497*
Y025133*
X027522*
X027522Y025133*
X027522Y025133*
X033497*
Y024443*
X037497*
Y025794*
X037614Y025843*
X040105Y023351*
X040105Y023351*
X040366Y023151*
X040670Y023025*
X040997Y022982*
X059725*
X059744Y022966*
X059780Y022931*
X059782Y022928*
X059786Y022926*
X059790Y022922*
X059797Y022916*
X060064Y022697*
X060385Y022525*
X060734Y022420*
X061097Y022384*
X061459Y022420*
X061484Y022427*
X061616Y022326*
X061920Y022200*
X062246Y022157*
Y022157*
X069243*
Y021470*
X071751*
Y022157*
X072247*
Y022093*
X073207*
X073250Y022087*
X073292Y022093*
X073301*
X073339Y022091*
X073346Y022093*
X074047*
X074054Y022091*
X074092Y022093*
X074101*
X074144Y022087*
X074186Y022093*
X075147*
Y022157*
X079662*
X080693Y021126*
X080693*
X080954Y020926*
X081258Y020800*
X081584Y020757*
X084325*
X084344Y020741*
X084380Y020706*
X084382Y020703*
X084386Y020701*
X084390Y020697*
X084397Y020691*
X084664Y020472*
X084985Y020300*
X085334Y020195*
X085697Y020159*
X086059Y020195*
X086408Y020300*
X086729Y020472*
X086996Y020691*
X086999Y020693*
X087507*
X087550Y020687*
X087592Y020693*
X087601*
X087639Y020691*
X087646Y020693*
X089447*
Y022143*
Y023908*
X090172*
X090485Y023949*
X090777Y024070*
X091028Y024262*
X091208Y024443*
X093497*
Y025133*
X103497*
Y024443*
X107497*
Y028243*
X103497*
Y027553*
X093497*
Y028243*
X089497*
X089447Y028349*
Y029593*
X088701*
Y029741*
X087997*
X087293*
Y029593*
X086547*
Y029428*
X078623*
X078170Y029881*
X078219Y029999*
X079228*
X079542Y030040*
X079834Y030161*
X080084Y030353*
X080453Y030721*
X080645Y030972*
X080766Y031264*
X080807Y031577*
Y034842*
X081153Y035187*
X081153*
X081430Y035464*
X081544Y035410*
X081538Y035343*
X081573Y034980*
X081679Y034632*
X081851Y034310*
X082082Y034028*
X082364Y033797*
X082685Y033625*
X083034Y033520*
X083397Y033484*
X083759Y033520*
X084108Y033625*
X084429Y033797*
X084711Y034028*
X084942Y034310*
X085114Y034632*
X085220Y034980*
X085256Y035343*
X085255Y035346*
X085256Y035421*
X085259Y035469*
X085263Y035497*
X086928Y037162*
X087120Y037413*
X087241Y037705*
X087282Y038018*
Y045593*
X088697*
Y045393*
X088647*
Y044488*
X088645Y044481*
X088647Y044446*
Y044432*
X088641Y044390*
X088647Y044347*
Y042493*
X090161*
Y032851*
X089890Y032629*
X089659Y032347*
X089487Y032026*
X089381Y031677*
X089346Y031314*
X089381Y030952*
X089487Y030603*
X089659Y030282*
X089890Y030000*
X090172Y029769*
X090493Y029597*
X090842Y029491*
X091204Y029455*
X091567Y029491*
X091916Y029597*
X092237Y029769*
X092519Y030000*
X092750Y030282*
X092922Y030603*
X093028Y030952*
X093063Y031314*
X093028Y031677*
X092922Y032026*
X092838Y032184*
X092810Y032250*
X092770Y032321*
X092748Y032362*
X092702Y032466*
X092694Y032487*
X092687Y032511*
X092683Y032528*
X092682Y032529*
Y042493*
X092747*
Y043454*
X092752Y043496*
X092747Y043538*
Y043548*
X092748Y043586*
X092747Y043593*
Y045393*
X091247*
Y046254*
X091252Y046296*
X091251Y046307*
X091252Y046319*
X091247Y046353*
Y048793*
X088697*
Y048493*
X087634*
X087586Y048610*
X091653Y052677*
X091845Y052928*
X091966Y053220*
X092007Y053533*
Y057842*
X094098Y059933*
X108755*
X108822Y059806*
X108684Y059353*
X108634Y058843*
X108684Y058333*
X108833Y057843*
X109074Y057391*
X109399Y056996*
X109795Y056671*
X110247Y056429*
X110737Y056281*
X111247Y056230*
X111756Y056281*
X112246Y056429*
X112698Y056671*
X113094Y056996*
X113419Y057391*
X113660Y057843*
X113809Y058333*
X113859Y058843*
X113809Y059353*
X113672Y059806*
X113738Y059933*
X114597*
X114910Y059974*
X115202Y060095*
X115453Y060287*
X116853Y061687*
X117045Y061938*
X117166Y062230*
X117207Y062543*
Y064602*
X117223Y064627*
X117249Y064663*
X117373Y064806*
X117443Y064878*
X117453Y064886*
X117709Y065198*
X117816Y065221*
X117839Y065204*
X118156Y065072*
X118370Y065044*
Y066343*
Y067641*
X118156Y067613*
X117839Y067482*
X117816Y067464*
X117709Y067487*
X117453Y067799*
X117141Y068056*
X116785Y068246*
X116399Y068363*
X115997Y068403*
X115595Y068363*
X115208Y068246*
X114852Y068056*
X114747Y067969*
X114641Y068056*
X114285Y068246*
X113899Y068363*
X113497Y068403*
X113095Y068363*
X112708Y068246*
X112352Y068056*
X112040Y067799*
X111784Y067487*
X111594Y067131*
X111476Y066745*
X111437Y066343*
X111476Y065941*
X111594Y065555*
X111784Y065198*
X112040Y064886*
X112352Y064630*
X112708Y064440*
X113095Y064323*
X113497Y064283*
X113899Y064323*
X114285Y064440*
X114641Y064630*
X114681Y064629*
X114756Y064610*
X114786Y064585*
Y063044*
X114095Y062353*
X093597*
X093283Y062312*
X092992Y062191*
X092741Y061999*
X089941Y059199*
X089748Y058948*
X089628Y058656*
X089586Y058343*
Y054034*
X084024Y048472*
X083907Y048521*
Y052413*
X083866Y052726*
X083745Y053018*
X083553Y053269*
X082207Y054614*
Y064602*
X082223Y064627*
X082249Y064663*
X082373Y064806*
X082443Y064878*
X082453Y064886*
X082709Y065198*
X082816Y065221*
X082839Y065204*
X083156Y065072*
X083370Y065044*
Y066343*
Y067641*
X083156Y067613*
X082839Y067482*
X082816Y067464*
X082709Y067487*
X082453Y067799*
X082141Y068056*
X081785Y068246*
X081399Y068363*
X080997Y068403*
X080595Y068363*
X080208Y068246*
X079852Y068056*
X079747Y067969*
X079641Y068056*
X079285Y068246*
X078899Y068363*
X078497Y068403*
X078095Y068363*
X077708Y068246*
X077352Y068056*
X077040Y067799*
X076784Y067487*
X076594Y067131*
X076476Y066745*
X076437Y066343*
X076476Y065941*
X076594Y065555*
X076784Y065198*
X077040Y064886*
X077352Y064630*
X077708Y064440*
X078095Y064323*
X078497Y064283*
X078899Y064323*
X079285Y064440*
X079641Y064630*
X079681Y064629*
X079756Y064610*
X079786Y064585*
Y054113*
X079828Y053800*
X079948Y053508*
X080141Y053257*
X081486Y051912*
Y048831*
X081369Y048782*
X068153Y061999*
X067902Y062191*
X067610Y062312*
X067297Y062353*
X049998*
X047459Y064893*
X047709Y065198*
X047816Y065221*
X047839Y065204*
X048156Y065072*
X048370Y065044*
Y066343*
Y067641*
X048156Y067613*
X047839Y067482*
X047816Y067464*
X047709Y067487*
X047453Y067799*
X047141Y068056*
X046785Y068246*
X046399Y068363*
X045997Y068403*
X045595Y068363*
X045208Y068246*
X044852Y068056*
X044747Y067969*
X044641Y068056*
X044285Y068246*
X043899Y068363*
X043497Y068403*
X043095Y068363*
X042708Y068246*
X042352Y068056*
X042040Y067799*
X041784Y067487*
X041594Y067131*
X041476Y066745*
X041455Y066531*
X041449Y066504*
X036397*
X036070Y066461*
X035766Y066335*
X035505Y066134*
X035475Y066104*
X035450Y066102*
X035400Y066102*
X035397Y066102*
X035392Y066101*
X035387Y066101*
X035378Y066100*
X035034Y066066*
X034685Y065960*
X034364Y065789*
X034082Y065557*
X033851Y065276*
X033679Y064954*
X033573Y064606*
X033540Y064262*
X033538Y064253*
X033538Y064247*
X033538Y064243*
X033538Y064240*
X033537Y064189*
X033535Y064164*
X033505Y064134*
X033305Y063873*
X033179Y063569*
X033136Y063243*
Y062818*
X030705*
Y070834*
X122988*
Y060410*
G37*
G36*
X044675Y064629D02*
X044792Y064593D01*
X044793Y064591*
X044828Y064330*
X044948Y064038*
X045141Y063787*
X048601Y060327*
X048574Y060294*
X048333Y059843*
X048184Y059353*
X048134Y058843*
X048184Y058333*
X048333Y057843*
X048574Y057391*
X048899Y056996*
X049295Y056671*
X049747Y056429*
X050237Y056281*
X050747Y056230*
X051256Y056281*
X051746Y056429*
X052198Y056671*
X052594Y056996*
X052919Y057391*
X053160Y057843*
X053309Y058333*
X053359Y058843*
X053309Y059353*
X053172Y059806*
X053238Y059933*
X066795*
X076802Y049926*
X076753Y049809*
X073525*
Y047253*
X071697*
X071383Y047212*
X071092Y047091*
X070841Y046899*
X070794Y046851*
X070727Y046765*
X070607Y046806*
Y050203*
X070566Y050516*
X070445Y050808*
X070253Y051059*
X069207Y052105*
Y053353*
X067027*
Y055893*
X059387*
Y055501*
X057419*
X057360Y055493*
X056892*
X056850Y055498*
X056807Y055493*
X056669*
X056657Y055502*
X056429Y055689*
X056108Y055860*
X055759Y055966*
X055397Y056002*
X055034Y055966*
X054685Y055860*
X054364Y055689*
X054082Y055457*
X053851Y055176*
X053679Y054854*
X053573Y054506*
X053538Y054143*
X053573Y053780*
X053679Y053431*
X053851Y053110*
X053873Y053083*
X053819Y052968*
X050871*
Y052222*
X050347*
Y050829*
X038794*
X038208Y051414*
X038172Y051454*
Y057618*
X035657*
Y057968*
X035897*
Y058602*
X035933Y058714*
X036024*
X036560*
Y060393*
Y062072*
X035933*
X035897Y062184*
Y062461*
X036108Y062525*
X036429Y062697*
X036711Y062928*
X036942Y063210*
X037114Y063532*
X037220Y063880*
X037230Y063982*
X042263*
X042590Y064025*
X042894Y064151*
X043058Y064277*
X043107Y064310*
X043122Y064311*
X043160Y064309*
X043242Y064300*
X043251Y064301*
X043260Y064299*
X043316Y064301*
X043497Y064283*
X043899Y064323*
X044285Y064440*
X044641Y064630*
X044675Y064629*
G37*
G36*
X080386Y041444D02*
X079848Y040906D01*
X079741Y040978*
X079772Y041055*
X079793Y041216*
X078824*
Y040246*
X078985Y040267*
X079062Y040299*
X079133Y040191*
X077742Y038800*
X077625Y038849*
Y040309*
X073525*
Y038453*
X072796*
X072754Y038458*
X072711Y038453*
X071457*
Y039850*
Y039850*
X071415Y040176*
X071336Y040366*
X071421Y040493*
X073099*
Y041943*
Y044593*
X072860*
Y044833*
X073525*
Y042209*
X077625*
Y044697*
X077737Y044733*
X078655*
X078672Y044730*
X078706Y044732*
X078740Y044727*
X078782Y044733*
X080157*
Y045479*
X080386*
Y041444*
G37*
G36*
X066540Y039946D02*
X067334D01*
X067306Y039941*
X067281Y039926*
X067259Y039901*
X067240Y039866*
X067232Y039846*
X067334*
X067306Y039841*
X067281Y039826*
X067259Y039801*
X067240Y039766*
X067223Y039721*
X067210Y039666*
X067200Y039601*
X067199Y039594*
X067200Y039585*
X067210Y039520*
X067223Y039465*
X067240Y039420*
X067259Y039385*
X067281Y039360*
X067306Y039345*
X067334Y039340*
X066540*
X066568Y039345*
X066593Y039360*
X066615Y039385*
X066634Y039420*
X066650Y039465*
X066663Y039520*
X066673Y039585*
X066674Y039592*
X066673Y039601*
X066663Y039666*
X066650Y039721*
X066634Y039766*
X066615Y039801*
X066593Y039826*
X066568Y039841*
X066540Y039846*
X066641*
X066634Y039866*
X066615Y039901*
X066593Y039926*
X066568Y039941*
X066540Y039946*
G37*
G36*
X063200Y043286D02*
X063195Y043314D01*
X063180Y043339*
X063155Y043361*
X063120Y043380*
X063075Y043396*
X063020Y043409*
X062955Y043420*
X062943Y043421*
Y043029*
X063965*
X064842Y042151*
X065104Y041951*
X065408Y041825*
X065734Y041782*
X065734*
X065874*
X066542Y041114*
X066494Y040997*
X066283*
Y040513*
X066295Y040515*
X066360Y040532*
X066415Y040555*
X066460Y040582*
X066495Y040614*
X066520Y040651*
X066535Y040693*
X066540Y040740*
Y040470*
X066937*
Y040216*
X066540*
Y039946*
X066535Y039955*
X066520Y039963*
X066495Y039970*
X066460Y039976*
X066415Y039981*
X066283Y039988*
Y039689*
Y039597*
Y039053*
X064508*
X064465Y039105*
X064504Y039258*
X064553Y039279*
X064784Y039456*
X064961Y039686*
X065072Y039954*
X065024Y039938*
X064952Y039907*
X064880Y039869*
X064810Y039824*
X064741Y039772*
X064672Y039713*
X064604Y039648*
Y040116*
X063997*
Y040243*
X063870*
Y040850*
X063402*
X063467Y040918*
X063526Y040987*
X063578Y041056*
X063622Y041127*
X063660Y041198*
X063691Y041270*
X063708Y041318*
X063440Y041207*
X063209Y041030*
X063032Y040800*
X062973Y040657*
X062824Y040628*
X061602Y041850*
X061566Y042122*
X061445Y042414*
X061253Y042664*
X061018Y042899*
X060947Y042953*
X060851Y043029*
Y043421*
X060839Y043420*
X060774Y043409*
X060719Y043396*
X060674Y043380*
X060639Y043361*
X060614Y043339*
X060599Y043314*
X060594Y043286*
Y043556*
X060197*
Y043810*
X060594*
Y044080*
X060599Y044052*
X060614Y044027*
X060639Y044005*
X060674Y043986*
X060719Y043970*
X060774Y043956*
X060839Y043946*
X060914Y043939*
X061094Y043933*
Y043843*
X061597*
Y043982*
X062197*
Y043843*
X062700*
Y043933*
X062795Y043934*
X062955Y043946*
X063020Y043956*
X063075Y043970*
X063120Y043986*
X063155Y044005*
X063180Y044027*
X063195Y044052*
X063200Y044080*
Y043286*
G37*
G36*
X059526Y040441D02*
X059501Y040426D01*
X059479Y040401*
X059460Y040366*
X059443Y040321*
X059430Y040266*
X059420Y040201*
X059417Y040174*
X059428Y040025*
X059438Y039980*
X059449Y039945*
X059462Y039920*
X059477Y039905*
X059494Y039900*
X058657*
X058704Y039905*
X058747Y039920*
X058784Y039945*
X058817Y039980*
X058844Y040025*
X058867Y040080*
X058884Y040145*
X058893Y040201*
X058893Y040201*
X058883Y040266*
X058870Y040321*
X058854Y040366*
X058835Y040401*
X058813Y040426*
X058788Y040441*
X058760Y040446*
X059554*
X059526Y040441*
G37*
G36*
X059494Y039106D02*
X059477Y039101D01*
X059462Y039086*
X059449Y039061*
X059438Y039026*
X059428Y038981*
X059421Y038926*
X059415Y038851*
X059420Y038785*
X059430Y038720*
X059443Y038665*
X059460Y038620*
X059479Y038585*
X059501Y038560*
X059526Y038545*
X059554Y038540*
X058760*
X058788Y038545*
X058813Y038560*
X058835Y038585*
X058854Y038620*
X058870Y038665*
X058883Y038720*
X058893Y038785*
X058895Y038798*
X058884Y038862*
X058867Y038927*
X058844Y038983*
X058817Y039028*
X058784Y039063*
X058747Y039089*
X058704Y039104*
X058657Y039109*
X059494Y039106*
G37*
G36*
X059526Y037741D02*
X059501Y037726D01*
X059479Y037701*
X059460Y037666*
X059443Y037621*
X059430Y037566*
X059420Y037501*
X059419Y037494*
X059420Y037485*
X059430Y037420*
X059443Y037365*
X059460Y037320*
X059479Y037285*
X059501Y037260*
X059526Y037245*
X059554Y037240*
X058760*
X058788Y037245*
X058813Y037260*
X058835Y037285*
X058854Y037320*
X058870Y037365*
X058883Y037420*
X058893Y037485*
X058894Y037492*
X058893Y037501*
X058883Y037566*
X058870Y037621*
X058854Y037666*
X058835Y037701*
X058813Y037726*
X058788Y037741*
X058760Y037746*
X059554*
X059526Y037741*
G37*
G36*
X060858Y039170D02*
X060833Y039046D01*
X060740Y039007*
X060509Y038830*
X060332Y038600*
X060221Y038331*
X060200Y038170*
X061297*
Y038043*
X061424*
Y036946*
X061585Y036967*
X061853Y037079*
X062084Y037256*
X062261Y037486*
X062300Y037579*
X062424Y037604*
X063041Y036987*
X063291Y036795*
X063308Y036788*
X063383Y036697*
Y036536*
X063640Y036793*
X063742Y036694*
X063926Y036539*
X064007Y036482*
X064082Y036440*
X064149Y036412*
X064209Y036397*
X064262*
X064308Y036412*
X064347Y036440*
X063640Y035733*
X063668Y035772*
X063682Y035818*
Y035871*
X063668Y035931*
X063640Y035998*
X063597Y036072*
X063541Y036153*
X063470Y036242*
X063368Y036352*
X063274Y036295*
X063212Y036328*
X062910Y036420*
X062597Y036451*
X062283Y036420*
X061981Y036328*
X061703Y036180*
X061585Y036082*
X061312Y036228*
X061010Y036320*
X060697Y036351*
X060383Y036320*
X060081Y036228*
X059920Y036142*
X059811Y036207*
Y036216*
X059157*
Y036470*
X059554*
Y037158*
X059558Y037124*
X059571Y037093*
X059592Y037066*
X059622Y037043*
X059661Y037023*
X059708Y037007*
X059764Y036995*
X059811Y036988*
Y037489*
Y038016*
X059157*
Y038270*
X059811*
Y038797*
X059751Y038849*
Y040098*
X059878Y040150*
X060858Y039170*
G37*
G36*
X022200Y049946D02*
X022198Y049980D01*
X022191Y050007*
X022181Y050025*
X022166Y050035*
X022147Y050037*
X022124Y050031*
X022096Y050017*
X022064Y049995*
X022028Y049965*
X021988Y049926*
X021917Y050421*
X021971Y050478*
X022019Y050534*
X022061Y050591*
X022098Y050647*
X022129Y050704*
X022154Y050760*
X022174Y050817*
X022188Y050873*
X022197Y050930*
X022200Y050987*
Y049946*
G37*
G36*
X022495Y026705D02*
X022507Y026671D01*
X022527Y026641*
X022555Y026615*
X022591Y026593*
X022636Y026575*
X022688Y026561*
X022749Y026551*
X022817Y026545*
X022894Y026543*
Y026143*
X022817Y026141*
X022749Y026135*
X022688Y026125*
X022636Y026111*
X022591Y026093*
X022555Y026071*
X022527Y026045*
X022507Y026015*
X022495Y025981*
X022491Y025943*
Y026743*
X022495Y026705*
G37*
G36*
X025194Y050626D02*
X025202Y050597D01*
X025217Y050565*
X025237Y050529*
X025262Y050490*
X025294Y050448*
X025374Y050354*
X025476Y050246*
X025255Y049901*
X025247Y049910*
X025218Y049935*
X025212Y049939*
X025206Y049942*
X025202Y049944*
X025197Y049946*
X025194Y049946*
X025191Y050652*
X025194Y050626*
G37*
G36*
X025709Y030601D02*
X025658Y030546D01*
X025613Y030486*
X025573Y030422*
X025539Y030353*
X025510Y030280*
X025486Y030203*
X025468Y030122*
X025456Y030036*
X025448Y029946*
X025447Y029851*
X024605Y030693*
X024700Y030695*
X024790Y030702*
X024876Y030714*
X024957Y030732*
X025034Y030756*
X025107Y030785*
X025175Y030819*
X025240Y030859*
X025299Y030904*
X025355Y030955*
X025709Y030601*
G37*
G36*
X026334Y031596D02*
X026320Y031585D01*
X026307Y031569*
X026296Y031545*
X026287Y031515*
X026280Y031478*
X026274Y031434*
X026267Y031326*
X026266Y031263*
X025766*
X025750Y031596*
X026350Y031599*
X026334Y031596*
G37*
G36*
X027726Y026867D02*
X027738Y026799D01*
X027758Y026739*
X027786Y026687*
X027822Y026643*
X027866Y026607*
X027918Y026579*
X027978Y026559*
X028046Y026547*
X028122Y026543*
X028122*
X027522Y026143*
X026922Y026543*
X026998Y026547*
X027066Y026559*
X027126Y026579*
X027178Y026607*
X027222Y026643*
X027258Y026687*
X027286Y026739*
X027306Y026799*
X027318Y026867*
X027322Y026943*
X027722*
X027726Y026867*
G37*
G36*
X027820Y031592D02*
X027800Y031580D01*
X027781Y031560*
X027766Y031532*
X027752Y031496*
X027741Y031452*
X027733Y031400*
X027727Y031340*
X027722Y031196*
X027322*
X027320Y031272*
X027311Y031400*
X027302Y031452*
X027291Y031496*
X027278Y031532*
X027262Y031560*
X027244Y031580*
X027223Y031592*
X027200Y031596*
X027844*
X027820Y031592*
G37*
G36*
X027845Y032405D02*
X027857Y032371D01*
X027877Y032341*
X027905Y032315*
X027941Y032293*
X027986Y032275*
X028038Y032261*
X028099Y032251*
X028167Y032245*
X028244Y032243*
Y031843*
X028167Y031841*
X028099Y031835*
X028038Y031825*
X027986Y031811*
X027941Y031793*
X027905Y031771*
X027877Y031745*
X027857Y031715*
X027845Y031681*
X027841Y031643*
Y032443*
X027845Y032405*
G37*
G36*
X028853Y031643D02*
X028849Y031681D01*
X028837Y031715*
X028817Y031745*
X028788Y031771*
X028752Y031793*
X028708Y031811*
X028655Y031825*
X028595Y031835*
X028526Y031841*
X028450Y031843*
Y032243*
X028526Y032245*
X028595Y032251*
X028655Y032261*
X028708Y032275*
X028752Y032293*
X028788Y032315*
X028817Y032341*
X028837Y032371*
X028849Y032405*
X028853Y032443*
Y031643*
G37*
G36*
X029681Y055135D02*
X029686Y055129D01*
Y052444*
X029053Y051811*
X028068Y050826*
X027951Y050875*
Y051797*
X027024*
Y050843*
X026770*
Y051797*
X026197*
Y052262*
X026197Y052293*
X026272Y052389*
X026995*
Y053293*
Y054197*
X026228*
X026143Y054197*
X026101Y054306*
Y054497*
X026212Y054534*
X027697*
X027721Y054538*
X027746Y054535*
X027942Y054545*
X028015Y054558*
X028089Y054563*
X028474Y054640*
X028568Y054672*
X028663Y054697*
X029025Y054847*
X029111Y054897*
X029200Y054940*
X029526Y055158*
X029559Y055188*
X029681Y055135*
G37*
G36*
X030424Y051182D02*
X030384Y051125D01*
X030356Y051069*
X030339Y051012*
X030333Y050955*
X030339Y050899*
X030356Y050842*
X030384Y050786*
X030424Y050729*
X030475Y050673*
X030192Y050390*
X030135Y050441*
X030079Y050480*
X030022Y050508*
X029966Y050525*
X029909Y050531*
X029853Y050525*
X029796Y050508*
X029739Y050480*
X029683Y050441*
X029626Y050390*
X029768Y051097*
X030475Y051238*
X030424Y051182*
G37*
G36*
X030948Y032405D02*
X030960Y032371D01*
X030980Y032341*
X031008Y032315*
X031044Y032293*
X031088Y032275*
X031140Y032261*
X031200Y032251*
X031268Y032245*
X031344Y032243*
Y031843*
X031268Y031841*
X031200Y031835*
X031140Y031825*
X031088Y031811*
X031044Y031793*
X031008Y031771*
X030980Y031745*
X030960Y031715*
X030948Y031681*
X030944Y031643*
Y032443*
X030948Y032405*
G37*
G36*
X031057Y050093D02*
X031204Y049968D01*
X031270Y049923*
X031329Y049888*
X031383Y049865*
X031431Y049854*
X031473Y049853*
X031510Y049864*
X031540Y049887*
X030978Y049324*
X031000Y049355*
X031011Y049392*
X031011Y049434*
X030999Y049482*
X030976Y049536*
X030942Y049595*
X030896Y049660*
X030840Y049731*
X030692Y049890*
X030975Y050173*
X031057Y050093*
G37*
G36*
X032020Y029718D02*
X032089Y029659D01*
X032159Y029607*
X032229Y029562*
X032300Y029524*
X032372Y029493*
X032445Y029469*
X032518Y029452*
X032592Y029442*
X032667Y029438*
Y028938*
X032592Y028935*
X032518Y028924*
X032445Y028907*
X032372Y028883*
X032300Y028852*
X032229Y028814*
X032159Y028769*
X032089Y028717*
X032020Y028659*
X031952Y028593*
Y029783*
X032020Y029718*
G37*
G36*
X032103Y031643D02*
X032099Y031681D01*
X032087Y031715*
X032067Y031745*
X032038Y031771*
X032002Y031793*
X031958Y031811*
X031905Y031825*
X031845Y031835*
X031776Y031841*
X031700Y031843*
Y032243*
X031776Y032245*
X031845Y032251*
X031905Y032261*
X031958Y032275*
X032002Y032293*
X032038Y032315*
X032067Y032341*
X032087Y032371*
X032099Y032405*
X032103Y032443*
Y031643*
G37*
G36*
X032175Y058971D02*
X032144Y058994D01*
X032108Y059005*
X032065*
X032017Y058994*
X031963Y058971*
X031904Y058937*
X031839Y058892*
X031768Y058835*
X031610Y058688*
X031327Y058971*
X031406Y059053*
X031531Y059200*
X031576Y059265*
X031610Y059325*
X031632Y059378*
X031644Y059426*
Y059469*
X031632Y059506*
X031610Y059537*
X032175Y058971*
G37*
G36*
X032673Y032814D02*
X032679Y032746D01*
X032687Y032686*
X032699Y032634*
X032715Y032590*
X032734Y032554*
X032756Y032526*
X032782Y032506*
X032811Y032494*
X032844Y032490*
X032100*
X032132Y032494*
X032162Y032506*
X032187Y032526*
X032210Y032554*
X032229Y032590*
X032244Y032634*
X032256Y032686*
X032265Y032746*
X032270Y032814*
X032272Y032890*
X032672*
X032673Y032814*
G37*
G36*
X033372Y047843D02*
X034118D01*
Y047645*
X034897*
X035676*
Y047843*
X036422*
Y049469*
X036539Y049518*
X037380Y048677*
X037641Y048476*
X037945Y048350*
X038271Y048307*
X056804*
X057021Y048336*
X058745Y046612*
X058699Y046478*
X058570Y046461*
X058266Y046335*
X058005Y046134*
Y046134*
X057418Y045547*
X057301Y045596*
Y046297*
X056724*
Y045668*
X056470*
Y046297*
X055893*
Y045768*
X049601*
Y042118*
X049483Y042097*
X049243*
Y041470*
X050997*
Y041216*
X049243*
Y040589*
X049136Y040540*
X049092*
X048719Y040491*
X048668Y040470*
X048079*
X047087Y041463*
X047087*
X046788Y041692*
X046440Y041836*
X046067Y041885*
X031334*
X030503Y042717*
Y042717*
X026009Y047210*
Y048133*
X028297*
X028610Y048174*
X028902Y048295*
X029153Y048487*
X029845Y049179*
X029972Y049127*
Y047843*
X030718*
Y047645*
X031497*
X032276*
Y047843*
X033022*
Y049668*
X033372*
Y047843*
G37*
G36*
X034503Y025943D02*
X034499Y025981D01*
X034487Y026015*
X034467Y026045*
X034438Y026071*
X034402Y026093*
X034358Y026111*
X034305Y026125*
X034245Y026135*
X034176Y026141*
X034100Y026143*
Y026543*
X034176Y026545*
X034245Y026551*
X034305Y026561*
X034358Y026575*
X034402Y026593*
X034438Y026615*
X034467Y026641*
X034487Y026671*
X034499Y026705*
X034503Y026743*
Y025943*
G37*
G36*
X034649Y062220D02*
X034657Y062135D01*
X034669Y062060*
X034686Y061995*
X034708Y061940*
X034736Y061895*
X034768Y061860*
X034805Y061835*
X034847Y061820*
X034894Y061815*
X033900*
X033947Y061820*
X033989Y061835*
X034026Y061860*
X034058Y061895*
X034085Y061940*
X034107Y061995*
X034124Y062060*
X034137Y062135*
X034144Y062220*
X034147Y062315*
X034647*
X034649Y062220*
G37*
G36*
X034649Y057019D02*
X034657Y056934D01*
X034669Y056858*
X034687Y056793*
X034709Y056738*
X034737Y056692*
X034769Y056657*
X034807Y056632*
X034849Y056617*
X034897Y056612*
X033897*
X033944Y056617*
X033987Y056632*
X034024Y056657*
X034057Y056692*
X034084Y056738*
X034107Y056793*
X034124Y056858*
X034137Y056934*
X034144Y057019*
X034147Y057115*
X034647*
X034649Y057019*
G37*
G36*
X034847Y058966D02*
X034805Y058951D01*
X034768Y058926*
X034736Y058891*
X034708Y058846*
X034686Y058791*
X034669Y058726*
X034657Y058651*
X034649Y058566*
X034647Y058471*
X034147*
X034144Y058566*
X034137Y058651*
X034124Y058726*
X034107Y058791*
X034085Y058846*
X034058Y058891*
X034026Y058926*
X033989Y058951*
X033947Y058966*
X033900Y058971*
X034894*
X034847Y058966*
G37*
G36*
X035349Y050669D02*
X035307Y050654D01*
X035269Y050629*
X035237Y050594*
X035209Y050548*
X035187Y050493*
X035169Y050427*
X035157Y050352*
X035150Y050280*
X035157Y050209*
X035169Y050133*
X035187Y050068*
X035209Y050013*
X035237Y049967*
X035269Y049932*
X035307Y049907*
X035349Y049892*
X035397Y049887*
X034397*
X034444Y049892*
X034487Y049907*
X034524Y049932*
X034557Y049967*
X034584Y050013*
X034607Y050068*
X034624Y050133*
X034637Y050209*
X034643Y050280*
X034637Y050352*
X034624Y050427*
X034607Y050493*
X034584Y050548*
X034557Y050594*
X034524Y050629*
X034487Y050654*
X034444Y050669*
X034397Y050674*
X035397*
X035349Y050669*
G37*
G36*
X062426Y046168D02*
X062367Y046099D01*
X062316Y046029*
X062271Y045959*
X062233Y045888*
X062202Y045816*
X062184Y045762*
X062192Y045738*
X062227Y045673*
X062272Y045618*
X062327Y045573*
X062392Y045538*
X062467Y045513*
X062552Y045498*
X062647Y045493*
X061897Y044993*
X061147Y045493*
X061242Y045498*
X061327Y045513*
X061402Y045538*
X061467Y045573*
X061522Y045618*
X061567Y045673*
X061602Y045738*
X061610Y045762*
X061592Y045816*
X061560Y045888*
X061522Y045959*
X061478Y046029*
X061426Y046099*
X061367Y046168*
X061302Y046236*
X062492*
X062426Y046168*
G37*
G36*
X035388Y063393D02*
X035294Y063391D01*
X035204Y063384*
X035118Y063371*
X035036Y063353*
X034959Y063330*
X034886Y063301*
X034818Y063267*
X034754Y063227*
X034694Y063182*
X034638Y063131*
X034285Y063485*
X034335Y063540*
X034381Y063600*
X034420Y063664*
X034455Y063733*
X034484Y063805*
X034507Y063883*
X034525Y063964*
X034538Y064050*
X034545Y064140*
X034547Y064234*
X035388Y063393*
G37*
G36*
X036509Y065001D02*
X036458Y064946D01*
X036413Y064886*
X036373Y064822*
X036339Y064753*
X036310Y064680*
X036286Y064603*
X036268Y064522*
X036256Y064436*
X036248Y064346*
X036247Y064251*
X035405Y065093*
X035500Y065095*
X035590Y065102*
X035676Y065114*
X035757Y065132*
X035834Y065156*
X035907Y065185*
X035975Y065219*
X036040Y065259*
X036099Y065304*
X036155Y065355*
X036509Y065001*
G37*
G36*
X036541Y032387D02*
X036792Y032195D01*
X037083Y032074*
X037397Y032033*
X056749*
X056903Y031906*
X057181Y031758*
X057483Y031666*
X057797Y031635*
X058110Y031666*
X058412Y031758*
X058690Y031906*
X058730Y031939*
X058881Y031858*
X059094Y031793*
X059120Y031529*
X059211Y031228*
X059360Y030950*
X059486Y030796*
Y029943*
X059528Y029630*
X059648Y029338*
X059841Y029087*
X061257Y027671*
X061209Y027553*
X058497*
Y028243*
X054497*
Y025504*
X041519*
X036943Y030080*
X036682Y030280*
X036378Y030406*
X036051Y030449*
X032827*
X032815Y030466*
X032882Y030593*
X033847*
Y031339*
X033995*
Y032043*
X034122*
Y032170*
X034751*
Y032733*
X036195*
X036541Y032387*
G37*
G36*
X037138Y051339D02*
X037124Y051294D01*
X037124Y051241*
X037139Y051181*
X037167Y051114*
X037210Y051039*
X037267Y050958*
X037338Y050869*
X037522Y050671*
X037169Y050317*
X037066Y050417*
X036882Y050573*
X036800Y050630*
X036726Y050672*
X036659Y050701*
X036599Y050716*
X036546Y050716*
X036500Y050702*
X036462Y050674*
X037166Y051378*
X037138Y051339*
G37*
G36*
X043351Y065303D02*
X043235Y065316D01*
X043125Y065320*
X043021Y065317*
X042921Y065305*
X042828Y065285*
X042739Y065258*
X042656Y065222*
X042579Y065178*
X042507Y065126*
X042440Y065066*
X042106Y065440*
X042167Y065506*
X042221Y065578*
X042270Y065657*
X042312Y065742*
X042349Y065834*
X042381Y065932*
X042406Y066036*
X042426Y066146*
X042440Y066263*
X042448Y066386*
X043351Y065303*
G37*
G36*
X046630Y065490D02*
X046459Y065291D01*
X046389Y065196*
X046330Y065103*
X046282Y065013*
X046245Y064926*
X046218Y064842*
X046202Y064761*
X046197Y064682*
X045797*
X045791Y064761*
X045775Y064842*
X045749Y064926*
X045711Y065013*
X045663Y065103*
X045604Y065196*
X045535Y065291*
X045454Y065389*
X045262Y065593*
X046732*
X046630Y065490*
G37*
G36*
X054145Y040158D02*
X054160Y040073D01*
X054185Y039998*
X054220Y039933*
X054265Y039878*
X054320Y039833*
X054385Y039798*
X054460Y039773*
X054545Y039758*
X054640Y039753*
Y039253*
X054545Y039248*
X054460Y039233*
X054385Y039208*
X054320Y039173*
X054265Y039128*
X054220Y039073*
X054185Y039008*
X054160Y038933*
X054145Y038848*
X054140Y038753*
X053640Y039503*
X054140Y040253*
X054145Y040158*
G37*
G36*
X055030Y043116D02*
X055005Y043101D01*
X054983Y043076*
X054964Y043041*
X054948Y042996*
X054935Y042941*
X054925Y042876*
X054917Y042801*
X054911Y042621*
X054411*
X054414Y043121*
X055058*
X055030Y043116*
G37*
G36*
X055059Y051530D02*
X055071Y051496D01*
X055092Y051466*
X055120Y051440*
X055156Y051418*
X055200Y051400*
X055253Y051386*
X055313Y051376*
X055382Y051370*
X055458Y051368*
Y050968*
X055382Y050966*
X055313Y050960*
X055253Y050950*
X055200Y050936*
X055156Y050918*
X055120Y050896*
X055092Y050870*
X055071Y050840*
X055059Y050806*
X055055Y050768*
Y051568*
X055059Y051530*
G37*
G36*
X055060Y044470D02*
X055075Y044428D01*
X055101Y044390*
X055136Y044358*
X055181Y044330*
X055236Y044308*
X055302Y044290*
X055377Y044278*
X055463Y044270*
X055558Y044268*
Y043768*
X055463Y043765*
X055377Y043758*
X055302Y043745*
X055236Y043728*
X055181Y043705*
X055136Y043678*
X055101Y043645*
X055075Y043608*
X055060Y043565*
X055055Y043518*
Y044518*
X055060Y044470*
G37*
G36*
X056073Y054672D02*
X056227Y054547D01*
X056302Y054496*
X056376Y054453*
X056449Y054418*
X056521Y054391*
X056592Y054371*
X056626Y054365*
X056654Y054367*
X056706Y054377*
X056750Y054389*
X056786Y054404*
X056814Y054421*
X056834Y054441*
X056846Y054464*
X056850Y054490*
Y053846*
X056846Y053867*
X056834Y053885*
X056814Y053902*
X056786Y053916*
X056750Y053928*
X056706Y053938*
X056654Y053946*
X056640Y053947*
X056597Y053939*
X056526Y053920*
X056455Y053892*
X056383Y053856*
X056310Y053812*
X056237Y053760*
X056163Y053700*
X056088Y053633*
X056012Y053557*
X055995Y054747*
X056073Y054672*
G37*
G36*
X056150Y043646D02*
X056145Y043669D01*
X056130Y043690*
X056105Y043708*
X056070Y043724*
X056025Y043737*
X055970Y043748*
X055905Y043757*
X055745Y043767*
X055650Y043768*
Y044268*
X055745Y044269*
X055970Y044287*
X056025Y044298*
X056070Y044312*
X056105Y044328*
X056130Y044346*
X056145Y044367*
X056150Y044390*
Y043646*
G37*
G36*
X056381Y038363D02*
X056532Y038236D01*
X056606Y038185*
X056680Y038142*
X056752Y038106*
X056824Y038078*
X056894Y038059*
X056942Y038051*
X056944Y038051*
X057005Y038061*
X057057Y038075*
X057101Y038093*
X057138Y038115*
X057166Y038141*
X057186Y038171*
X057199Y038205*
X057203Y038243*
X057200Y037746*
X057196Y037726*
X057184Y037709*
X057164Y037693*
X057136Y037680*
X057100Y037669*
X057056Y037659*
X057033Y037656*
Y037643*
X056964Y037639*
X056894Y037627*
X056824Y037607*
X056752Y037580*
X056680Y037544*
X056606Y037501*
X056532Y037449*
X056457Y037390*
X056381Y037323*
X056304Y037248*
Y038438*
X056381Y038363*
G37*
G36*
X056487Y041564D02*
X056508Y041539D01*
X056534Y041516*
X056564Y041497*
X056599Y041480*
X056639Y041467*
X056684Y041456*
X056733Y041449*
X056788Y041444*
X056847Y041443*
Y041043*
X056788Y041041*
X056733Y041037*
X056684Y041029*
X056639Y041019*
X056599Y041005*
X056564Y040989*
X056534Y040969*
X056508Y040947*
X056487Y040921*
X056471Y040893*
Y041593*
X056487Y041564*
G37*
G36*
X056700Y039106D02*
X056695Y039134D01*
X056680Y039159*
X056655Y039181*
X056620Y039200*
X056575Y039216*
X056520Y039229*
X056455Y039240*
X056380Y039247*
X056200Y039253*
Y039753*
X056295Y039754*
X056455Y039766*
X056520Y039776*
X056575Y039790*
X056620Y039806*
X056655Y039825*
X056680Y039847*
X056695Y039872*
X056700Y039900*
Y039106*
G37*
G36*
X056850Y050846D02*
X056846Y050869D01*
X056834Y050890*
X056814Y050908*
X056786Y050924*
X056750Y050937*
X056706Y050948*
X056654Y050957*
X056594Y050963*
X056450Y050968*
Y051368*
X056526Y051369*
X056654Y051379*
X056706Y051387*
X056750Y051398*
X056786Y051412*
X056814Y051428*
X056834Y051446*
X056846Y051467*
X056850Y051490*
Y050846*
G37*
G36*
X057049Y044367D02*
X057064Y044346D01*
X057089Y044328*
X057124Y044312*
X057169Y044298*
X057224Y044287*
X057289Y044279*
X057449Y044269*
X057544Y044268*
Y043768*
X057449Y043767*
X057224Y043748*
X057169Y043737*
X057124Y043724*
X057089Y043708*
X057064Y043690*
X057049Y043669*
X057044Y043646*
Y044390*
X057049Y044367*
G37*
G36*
X057200Y035946D02*
X057195Y035974D01*
X057180Y035999*
X057155Y036021*
X057120Y036040*
X057075Y036056*
X057020Y036069*
X056955Y036080*
X056880Y036087*
X056700Y036093*
Y036593*
X056795Y036594*
X056955Y036606*
X057020Y036616*
X057075Y036630*
X057120Y036646*
X057155Y036665*
X057180Y036687*
X057195Y036712*
X057200Y036740*
Y035946*
G37*
G36*
X057349Y032843D02*
X057312Y032881D01*
X057271Y032915*
X057228Y032945*
X057181Y032971*
X057130Y032993*
X057077Y033011*
X057020Y033025*
X056960Y033035*
X056897Y033041*
X056831Y033043*
Y033443*
X056897Y033445*
X056960Y033451*
X057020Y033461*
X057077Y033475*
X057130Y033493*
X057181Y033515*
X057228Y033541*
X057271Y033571*
X057312Y033605*
X057349Y033643*
Y032843*
G37*
G36*
X057495Y026705D02*
X057507Y026671D01*
X057527Y026641*
X057555Y026615*
X057591Y026593*
X057636Y026575*
X057688Y026561*
X057749Y026551*
X057817Y026545*
X057894Y026543*
Y026143*
X057817Y026141*
X057749Y026135*
X057688Y026125*
X057636Y026111*
X057591Y026093*
X057555Y026071*
X057527Y026045*
X057507Y026015*
X057495Y025981*
X057491Y025943*
Y026743*
X057495Y026705*
G37*
G36*
X057499Y051813D02*
X057505Y051745D01*
X057515Y051684*
X057529Y051632*
X057547Y051588*
X057569Y051551*
X057595Y051523*
X057625Y051503*
X057659Y051491*
X057697Y051487*
X056897*
X056935Y051491*
X056969Y051503*
X056999Y051523*
X057025Y051551*
X057047Y051588*
X057065Y051632*
X057079Y051684*
X057089Y051745*
X057095Y051813*
X057097Y051890*
X057497*
X057499Y051813*
G37*
G36*
X057659Y052392D02*
X057625Y052380D01*
X057595Y052360*
X057569Y052332*
X057547Y052296*
X057529Y052252*
X057515Y052200*
X057505Y052140*
X057499Y052072*
X057497Y051996*
X057097*
X057095Y052072*
X057089Y052140*
X057079Y052200*
X057065Y052252*
X057047Y052296*
X057025Y052332*
X056999Y052360*
X056969Y052380*
X056935Y052392*
X056897Y052396*
X057697*
X057659Y052392*
G37*
G36*
X057747Y049981D02*
X057758Y049921D01*
X057775Y049860*
X057800Y049797*
X057832Y049734*
X057871Y049669*
X057917Y049602*
X057970Y049535*
X058097Y049396*
X057744Y049042*
X057643Y049140*
X057461Y049293*
X057380Y049350*
X057306Y049392*
X057239Y049420*
X057178Y049435*
X057124Y049436*
X057077Y049423*
X057037Y049396*
X057744Y050040*
X057747Y049981*
G37*
G36*
X057799Y041564D02*
X057805Y041496D01*
X057814Y041436*
X057828Y041384*
X057846Y041340*
X057868Y041304*
X057893Y041276*
X057923Y041256*
X057956Y041244*
X057994Y041240*
X057200*
X057237Y041244*
X057271Y041256*
X057300Y041276*
X057326Y041304*
X057347Y041340*
X057365Y041384*
X057379Y041436*
X057389Y041496*
X057395Y041564*
X057397Y041640*
X057797*
X057799Y041564*
G37*
G36*
X058144Y054090D02*
X058067Y054088D01*
X057999Y054082*
X057939Y054072*
X057886Y054058*
X057842Y054040*
X057806Y054018*
X057777Y053992*
X057757Y053962*
X057745Y053928*
X057741Y053890*
X057744Y054490*
X058144Y054490*
Y054090*
G37*
G36*
X059800Y044846D02*
X059795Y044874D01*
X059780Y044899*
X059755Y044921*
X059720Y044940*
X059675Y044956*
X059620Y044969*
X059555Y044980*
X059480Y044987*
X059300Y044993*
Y045493*
X059395Y045494*
X059555Y045506*
X059620Y045516*
X059675Y045530*
X059720Y045546*
X059755Y045565*
X059780Y045587*
X059795Y045612*
X059800Y045640*
Y044846*
G37*
G36*
X059981Y033705D02*
X060022Y033671D01*
X060066Y033641*
X060113Y033615*
X060163Y033593*
X060216Y033575*
X060273Y033561*
X060333Y033551*
X060396Y033545*
X060462Y033543*
Y033143*
X060396Y033141*
X060333Y033135*
X060273Y033125*
X060216Y033111*
X060163Y033093*
X060113Y033071*
X060066Y033045*
X060022Y033015*
X059981Y032981*
X059944Y032943*
Y033743*
X059981Y033705*
G37*
G36*
X060249Y034343D02*
X060212Y034381D01*
X060171Y034415*
X060128Y034445*
X060081Y034471*
X060030Y034493*
X059977Y034511*
X059920Y034525*
X059860Y034535*
X059797Y034541*
X059731Y034543*
Y034943*
X059797Y034945*
X059860Y034951*
X059920Y034961*
X059977Y034975*
X060030Y034993*
X060081Y035015*
X060128Y035041*
X060171Y035071*
X060212Y035105*
X060249Y035143*
Y034343*
G37*
G36*
X060390Y053936D02*
X060386Y053965D01*
X060374Y053992*
X060354Y054015*
X060326Y054035*
X060290Y054052*
X060246Y054066*
X060194Y054076*
X060134Y054084*
X060066Y054089*
X059990Y054090*
Y054490*
X060066Y054492*
X060135Y054498*
X060195Y054508*
X060247Y054522*
X060292Y054540*
X060328Y054562*
X060356Y054588*
X060376Y054618*
X060389Y054652*
X060393Y054690*
X060390Y053936*
G37*
G36*
X060448Y046045D02*
X060460Y045885D01*
X060470Y045820*
X060483Y045765*
X060500Y045720*
X060519Y045685*
X060541Y045660*
X060566Y045645*
X060594Y045640*
X059800*
X059828Y045645*
X059853Y045660*
X059875Y045685*
X059894Y045720*
X059910Y045765*
X059923Y045820*
X059933Y045885*
X059941Y045960*
X059947Y046140*
X060447*
X060448Y046045*
G37*
G36*
X060490Y023648D02*
X060422Y023713D01*
X060353Y023772*
X060283Y023824*
X060213Y023869*
X060142Y023907*
X060070Y023938*
X059997Y023962*
X059924Y023979*
X059849Y023989*
X059774Y023993*
Y024493*
X059849Y024496*
X059924Y024507*
X059997Y024524*
X060070Y024548*
X060142Y024579*
X060213Y024617*
X060283Y024662*
X060353Y024714*
X060422Y024772*
X060490Y024838*
Y023648*
G37*
G36*
X060599Y045612D02*
X060614Y045587D01*
X060639Y045565*
X060674Y045546*
X060719Y045530*
X060774Y045516*
X060839Y045506*
X060914Y045499*
X061094Y045493*
Y044993*
X060999Y044991*
X060839Y044980*
X060774Y044969*
X060719Y044956*
X060674Y044940*
X060639Y044921*
X060614Y044899*
X060599Y044874*
X060594Y044846*
Y045640*
X060599Y045612*
G37*
G36*
X061059Y031358D02*
X061025Y031318D01*
X060995Y031274*
X060969Y031227*
X060947Y031177*
X060929Y031123*
X060915Y031066*
X060905Y031007*
X060899Y030944*
X060897Y030877*
X060497*
X060495Y030944*
X060489Y031007*
X060479Y031066*
X060465Y031123*
X060447Y031177*
X060425Y031227*
X060399Y031274*
X060369Y031318*
X060335Y031358*
X060297Y031396*
X061097*
X061059Y031358*
G37*
G36*
X061945Y024367D02*
X062008Y024189D01*
X062042Y024107*
X062117Y023959*
X062158Y023893*
X062201Y023832*
X062246Y023776*
X062293Y023725*
X062044Y023267*
X061986Y023320*
X061925Y023364*
X061861Y023401*
X061794Y023429*
X061725Y023449*
X061652Y023461*
X061577Y023465*
X061499Y023460*
X061418Y023448*
X061334Y023427*
X061917Y024464*
X061945Y024367*
G37*
G36*
X063081Y035205D02*
X063122Y035171D01*
X063166Y035141*
X063213Y035115*
X063263Y035093*
X063316Y035075*
X063373Y035061*
X063433Y035051*
X063496Y035045*
X063562Y035043*
Y034643*
X063496Y034641*
X063433Y034635*
X063373Y034625*
X063316Y034611*
X063263Y034593*
X063213Y034571*
X063166Y034545*
X063122Y034515*
X063081Y034481*
X063044Y034443*
Y035243*
X063081Y035205*
G37*
G36*
X063200Y044846D02*
X063195Y044874D01*
X063180Y044899*
X063155Y044921*
X063120Y044940*
X063075Y044956*
X063020Y044969*
X062955Y044980*
X062880Y044987*
X062700Y044993*
Y045493*
X062795Y045494*
X062955Y045506*
X063020Y045516*
X063075Y045530*
X063120Y045546*
X063155Y045565*
X063180Y045587*
X063195Y045612*
X063200Y045640*
Y044846*
G37*
G36*
X063295Y031956D02*
X063300Y031903D01*
X063310Y031851*
X063325Y031800*
X063345Y031749*
X063370Y031698*
X063400Y031648*
X063435Y031599*
X063475Y031550*
X063521Y031501*
X063238Y031219*
X063190Y031264*
X063141Y031304*
X063092Y031340*
X063042Y031370*
X062991Y031395*
X062940Y031415*
X062888Y031430*
X062836Y031440*
X062783Y031444*
X062730Y031444*
X063296Y032009*
X063295Y031956*
G37*
G36*
X065998Y036418D02*
X066011Y036398D01*
X066033Y036380*
X066063Y036365*
X066102Y036352*
X066150Y036342*
X066206Y036334*
X066271Y036328*
X066427Y036323*
Y035823*
X066345Y035821*
X066206Y035807*
X066150Y035795*
X066102Y035779*
X066063Y035759*
X066033Y035736*
X066011Y035710*
X065998Y035680*
X065994Y035646*
Y036440*
X065998Y036418*
G37*
G36*
X066025Y049695D02*
X066037Y049661D01*
X066057Y049631*
X066085Y049605*
X066121Y049583*
X066166Y049565*
X066218Y049551*
X066279Y049541*
X066347Y049535*
X066424Y049533*
Y049133*
X066347Y049131*
X066279Y049125*
X066218Y049115*
X066166Y049101*
X066121Y049083*
X066085Y049061*
X066057Y049035*
X066037Y049005*
X066025Y048971*
X066021Y048933*
Y049733*
X066025Y049695*
G37*
G36*
X066886Y046193D02*
X066759Y046122D01*
X066624Y046140*
Y045043*
X066370*
Y046140*
X066208Y046118*
X065940Y046007*
X065709Y045830*
X065532Y045600*
X065515Y045558*
X065390Y045533*
X064997Y045927*
Y046643*
X063830*
X063745Y046737*
X063756Y046843*
X063720Y047206*
X063614Y047554*
X063513Y047744*
X063578Y047853*
X066886*
Y046193*
G37*
G36*
X066994Y034255D02*
X066999Y034223D01*
X067010Y034189*
X067026Y034152*
X067048Y034113*
X067075Y034072*
X067108Y034029*
X067189Y033935*
X067238Y033884*
X066955Y033601*
X066912Y033643*
X066829Y033711*
X066790Y033736*
X066753Y033757*
X066718Y033771*
X066684Y033781*
X066652Y033785*
X066622Y033783*
X066594Y033776*
X066994Y034284*
X066994Y034255*
G37*
G36*
X068181Y051931D02*
X068170Y051894D01*
Y051851*
X068181Y051803*
X068204Y051749*
X068238Y051690*
X068283Y051625*
X068339Y051554*
X068486Y051396*
X068204Y051113*
X068122Y051192*
X067975Y051317*
X067909Y051362*
X067850Y051396*
X067796Y051419*
X067748Y051430*
X067706*
X067669Y051419*
X067638Y051396*
X068204Y051962*
X068181Y051931*
G37*
G36*
X068598Y041025D02*
X068606Y040912D01*
X068613Y040865*
X068622Y040826*
X068634Y040794*
X068647Y040769*
X068663Y040751*
X068680Y040740*
X068700Y040737*
X068100Y040740*
X068097Y041093*
X068597*
X068598Y041025*
G37*
G36*
X068768Y038545D02*
X068739Y038534D01*
X068714Y038515*
X068692Y038489*
X068673Y038456*
X068658Y038415*
X068646Y038367*
X068638Y038311*
X068633Y038248*
X068631Y038177*
X068231*
X068230Y038247*
X068219Y038365*
X068210Y038413*
X068198Y038454*
X068184Y038487*
X068167Y038513*
X068147Y038531*
X068125Y038542*
X068100Y038546*
X068800Y038549*
X068768Y038545*
G37*
G36*
X068840Y042686D02*
X068889Y042646D01*
X068938Y042612*
X068988Y042583*
X069038Y042561*
X069088Y042544*
X069139Y042533*
X069190Y042527*
X069241Y042528*
X069293Y042534*
X068798Y041905*
X068792Y041959*
X068782Y042012*
X068768Y042065*
X068749Y042116*
X068726Y042167*
X068698Y042218*
X068666Y042268*
X068630Y042317*
X068589Y042365*
X068544Y042413*
X068791Y042731*
X068840Y042686*
G37*
G36*
X068899Y040693D02*
X068914Y040651D01*
X068939Y040614*
X068974Y040582*
X069019Y040555*
X069074Y040532*
X069139Y040515*
X069214Y040503*
X069299Y040495*
X069394Y040493*
Y039993*
X069299Y039992*
X068939Y039970*
X068914Y039963*
X068899Y039955*
X068894Y039946*
Y040740*
X068899Y040693*
G37*
G36*
X068970Y035878D02*
X069137Y035760D01*
X069217Y035712*
X069295Y035672*
X069371Y035639*
X069444Y035613*
X069515Y035595*
X069583Y035584*
X069591Y035584*
X069645Y035588*
X069705Y035598*
X069757Y035612*
X069802Y035630*
X069838Y035652*
X069866Y035678*
X069886Y035708*
X069899Y035742*
X069903Y035780*
X069900Y034996*
X069896Y035031*
X069884Y035062*
X069864Y035090*
X069836Y035114*
X069800Y035134*
X069756Y035151*
X069704Y035164*
X069644Y035173*
X069616Y035175*
X069551Y035164*
X069481Y035143*
X069412Y035114*
X069343Y035076*
X069274Y035030*
X069206Y034976*
X069138Y034914*
X069071Y034843*
X069005Y034764*
X068882Y035947*
X068970Y035878*
G37*
G36*
X069503Y025943D02*
X069499Y025981D01*
X069487Y026015*
X069467Y026045*
X069438Y026071*
X069402Y026093*
X069358Y026111*
X069305Y026125*
X069245Y026135*
X069176Y026141*
X069100Y026143*
Y026543*
X069176Y026545*
X069245Y026551*
X069305Y026561*
X069358Y026575*
X069402Y026593*
X069438Y026615*
X069467Y026641*
X069487Y026671*
X069499Y026705*
X069503Y026743*
Y025943*
G37*
G36*
X069599Y044742D02*
X069605Y044679D01*
X069615Y044619*
X069629Y044563*
X069647Y044509*
X069669Y044459*
X069695Y044412*
X069725Y044368*
X069759Y044327*
X069797Y044290*
X068997*
X069035Y044327*
X069069Y044368*
X069099Y044412*
X069125Y044459*
X069147Y044509*
X069165Y044563*
X069179Y044619*
X069189Y044679*
X069195Y044742*
X069197Y044809*
X069597*
X069599Y044742*
G37*
G36*
X071495Y026680D02*
X071507Y026646D01*
X071527Y026616*
X071555Y026590*
X071591Y026568*
X071636Y026550*
X071688Y026536*
X071749Y026526*
X071817Y026520*
X071894Y026518*
Y026118*
X071817Y026116*
X071749Y026110*
X071688Y026100*
X071636Y026086*
X071591Y026068*
X071555Y026046*
X071527Y026020*
X071507Y025990*
X071495Y025956*
X071491Y025918*
Y026718*
X071495Y026680*
G37*
G36*
X071851Y043913D02*
X071857Y043845D01*
X071867Y043784*
X071881Y043732*
X071899Y043688*
X071921Y043651*
X071947Y043623*
X071977Y043603*
X072011Y043591*
X072049Y043587*
X071249*
X071287Y043591*
X071321Y043603*
X071351Y043623*
X071377Y043651*
X071399Y043688*
X071417Y043732*
X071431Y043784*
X071441Y043845*
X071447Y043913*
X071449Y043990*
X071849*
X071851Y043913*
G37*
G36*
X072758Y037420D02*
X072770Y037393D01*
X072790Y037370*
X072818Y037349*
X072854Y037332*
X072898Y037318*
X072950Y037307*
X073010Y037299*
X073078Y037294*
X073154Y037293*
Y036893*
X073078Y036892*
X072854Y036879*
X072818Y036872*
X072790Y036865*
X072770Y036856*
X072758Y036847*
X072754Y036836*
Y037450*
X072758Y037420*
G37*
G36*
X073250Y023096D02*
X073245Y023110D01*
X073230Y023122*
X073205Y023133*
X073170Y023142*
X073125Y023150*
X073070Y023156*
X072930Y023165*
X072750Y023168*
Y023668*
X072845Y023669*
X073125Y023686*
X073170Y023694*
X073205Y023703*
X073230Y023714*
X073245Y023726*
X073250Y023740*
Y023096*
G37*
G36*
Y025996D02*
X073246Y026019D01*
X073234Y026040*
X073214Y026058*
X073186Y026074*
X073150Y026087*
X073106Y026098*
X073054Y026107*
X072994Y026113*
X072850Y026118*
Y026518*
X072926Y026519*
X073054Y026529*
X073106Y026537*
X073150Y026548*
X073186Y026562*
X073214Y026578*
X073234Y026596*
X073246Y026617*
X073250Y026640*
Y025996*
G37*
G36*
X073899Y025513D02*
X073905Y025445D01*
X073915Y025384*
X073929Y025332*
X073947Y025288*
X073969Y025251*
X073995Y025223*
X074025Y025203*
X074059Y025191*
X074097Y025187*
X073297*
X073335Y025191*
X073369Y025203*
X073399Y025223*
X073425Y025251*
X073447Y025288*
X073465Y025332*
X073479Y025384*
X073489Y025445*
X073495Y025513*
X073497Y025590*
X073897*
X073899Y025513*
G37*
G36*
X074059Y025995D02*
X074025Y025983D01*
X073995Y025963*
X073969Y025935*
X073947Y025898*
X073929Y025854*
X073915Y025801*
X073905Y025741*
X073899Y025673*
X073897Y025596*
X073497*
X073495Y025673*
X073489Y025741*
X073479Y025801*
X073465Y025854*
X073447Y025898*
X073425Y025935*
X073399Y025963*
X073369Y025983*
X073335Y025995*
X073297Y025999*
X074097*
X074059Y025995*
G37*
G36*
X074148Y028067D02*
X074160Y028046D01*
X074180Y028028*
X074208Y028012*
X074244Y027998*
X074288Y027987*
X074340Y027979*
X074400Y027973*
X074544Y027968*
Y027568*
X074468Y027567*
X074340Y027557*
X074288Y027548*
X074244Y027537*
X074208Y027524*
X074180Y027508*
X074160Y027490*
X074148Y027469*
X074144Y027446*
Y028090*
X074148Y028067*
G37*
G36*
X074149Y023726D02*
X074164Y023714D01*
X074189Y023703*
X074224Y023694*
X074269Y023686*
X074324Y023679*
X074464Y023671*
X074644Y023668*
Y023168*
X074549Y023167*
X074269Y023150*
X074224Y023142*
X074189Y023133*
X074164Y023122*
X074149Y023110*
X074144Y023096*
Y023740*
X074149Y023726*
G37*
G36*
X074528Y036693D02*
X074524Y036731D01*
X074512Y036765*
X074492Y036795*
X074464Y036821*
X074428Y036843*
X074384Y036861*
X074332Y036875*
X074272Y036885*
X074204Y036891*
X074128Y036893*
Y037293*
X074204Y037295*
X074272Y037301*
X074332Y037311*
X074384Y037325*
X074428Y037343*
X074464Y037365*
X074492Y037391*
X074512Y037421*
X074524Y037455*
X074528Y037493*
Y036693*
G37*
G36*
Y045643D02*
X074524Y045681D01*
X074512Y045715*
X074492Y045745*
X074464Y045771*
X074428Y045793*
X074384Y045811*
X074332Y045825*
X074272Y045835*
X074204Y045841*
X074128Y045843*
Y046243*
X074204Y046245*
X074272Y046251*
X074332Y046261*
X074384Y046275*
X074428Y046293*
X074464Y046315*
X074492Y046341*
X074512Y046371*
X074524Y046405*
X074528Y046443*
Y045643*
G37*
G36*
X075050Y027396D02*
X075046Y027429D01*
X075034Y027458*
X075014Y027484*
X074986Y027506*
X074950Y027525*
X074906Y027540*
X074854Y027552*
X074794Y027561*
X074726Y027566*
X074650Y027568*
Y027968*
X074726Y027970*
X074794Y027975*
X074854Y027983*
X074906Y027995*
X074950Y028011*
X074986Y028030*
X075014Y028052*
X075034Y028078*
X075046Y028107*
X075050Y028140*
Y027396*
G37*
G36*
X076623Y046405D02*
X076635Y046371D01*
X076655Y046341*
X076683Y046315*
X076719Y046293*
X076764Y046275*
X076816Y046261*
X076877Y046251*
X076945Y046245*
X077022Y046243*
Y045843*
X076945Y045841*
X076877Y045835*
X076816Y045825*
X076764Y045811*
X076719Y045793*
X076683Y045771*
X076655Y045745*
X076635Y045715*
X076623Y045681*
X076619Y045643*
Y046443*
X076623Y046405*
G37*
G36*
X077266Y027362D02*
X077517Y027170D01*
X077808Y027049*
X078122Y027008*
X086547*
Y025243*
Y023805*
X086497Y023755*
X086438Y023719*
X086408Y023735*
X086059Y023841*
X085697Y023877*
X085334Y023841*
X084985Y023735*
X084664Y023564*
X084397Y023345*
X084390Y023339*
X084386Y023335*
X084382Y023332*
X084380Y023330*
X084344Y023295*
X084325Y023279*
X082106*
X081076Y024309*
X080815Y024510*
X080511Y024636*
X080184Y024679*
X075147*
Y025489*
X075370*
Y026118*
X075497*
Y026245*
X076201*
Y026393*
X076947*
Y027515*
X077064Y027564*
X077266Y027362*
G37*
G36*
X078740Y045736D02*
X078736Y045756D01*
X078724Y045774*
X078704Y045790*
X078676Y045804*
X078640Y045816*
X078596Y045826*
X078544Y045833*
X078484Y045839*
X078340Y045843*
Y046243*
X078416Y046244*
X078544Y046253*
X078596Y046260*
X078640Y046270*
X078676Y046281*
X078704Y046295*
X078724Y046311*
X078736Y046330*
X078740Y046350*
Y045736*
G37*
G36*
X081630Y065490D02*
X081459Y065291D01*
X081389Y065196*
X081330Y065103*
X081282Y065013*
X081245Y064926*
X081218Y064842*
X081202Y064761*
X081197Y064682*
X080797*
X080791Y064761*
X080775Y064842*
X080749Y064926*
X080711Y065013*
X080663Y065103*
X080604Y065196*
X080535Y065291*
X080454Y065389*
X080262Y065593*
X081732*
X081630Y065490*
G37*
G36*
X084483Y036146D02*
X084437Y036095D01*
X084396Y036037*
X084360Y035973*
X084329Y035903*
X084303Y035827*
X084282Y035744*
X084266Y035655*
X084254Y035560*
X084248Y035459*
X084247Y035351*
X083405Y036193*
X083513Y036194*
X083709Y036212*
X083798Y036228*
X083880Y036249*
X083957Y036275*
X084027Y036306*
X084091Y036342*
X084149Y036383*
X084200Y036429*
X084483Y036146*
G37*
G36*
X085090Y021423D02*
X085022Y021488D01*
X084953Y021547*
X084883Y021599*
X084813Y021644*
X084742Y021682*
X084670Y021713*
X084597Y021737*
X084524Y021754*
X084449Y021764*
X084374Y021768*
Y022268*
X084449Y022271*
X084524Y022282*
X084597Y022299*
X084670Y022323*
X084742Y022354*
X084813Y022392*
X084883Y022437*
X084953Y022489*
X085022Y022547*
X085090Y022613*
Y021423*
G37*
G36*
X086370Y046592D02*
X086350Y046580D01*
X086331Y046560*
X086316Y046532*
X086302Y046496*
X086291Y046452*
X086283Y046400*
X086277Y046340*
X086272Y046196*
X085872*
X085870Y046272*
X085861Y046400*
X085852Y046452*
X085841Y046496*
X085828Y046532*
X085812Y046560*
X085794Y046580*
X085773Y046592*
X085750Y046596*
X086394*
X086370Y046592*
G37*
G36*
X086372Y022547D02*
X086441Y022489D01*
X086510Y022437*
X086581Y022392*
X086652Y022354*
X086724Y022323*
X086796Y022299*
X086870Y022282*
X086944Y022271*
X087019Y022268*
Y021768*
X086944Y021764*
X086870Y021754*
X086796Y021737*
X086724Y021713*
X086652Y021682*
X086581Y021644*
X086510Y021599*
X086441Y021547*
X086372Y021488*
X086304Y021423*
Y022613*
X086372Y022547*
G37*
G36*
X087550Y021696D02*
X087545Y021710D01*
X087530Y021722*
X087505Y021733*
X087470Y021742*
X087425Y021750*
X087370Y021756*
X087230Y021765*
X087050Y021768*
Y022268*
X087145Y022269*
X087425Y022286*
X087470Y022294*
X087505Y022303*
X087530Y022314*
X087545Y022326*
X087550Y022340*
Y021696*
G37*
G36*
Y027846D02*
X087546Y027879D01*
X087534Y027908*
X087514Y027934*
X087486Y027956*
X087450Y027975*
X087406Y027990*
X087354Y028002*
X087294Y028011*
X087226Y028016*
X087150Y028018*
Y028418*
X087226Y028420*
X087294Y028425*
X087354Y028433*
X087406Y028445*
X087450Y028461*
X087486Y028480*
X087514Y028502*
X087534Y028528*
X087546Y028557*
X087550Y028590*
Y027846*
G37*
G36*
X087845Y047405D02*
X087857Y047371D01*
X087877Y047341*
X087905Y047315*
X087941Y047293*
X087986Y047275*
X088038Y047261*
X088099Y047251*
X088167Y047245*
X088244Y047243*
Y046843*
X088167Y046841*
X088099Y046835*
X088038Y046825*
X087986Y046811*
X087941Y046793*
X087905Y046771*
X087877Y046745*
X087857Y046715*
X087845Y046681*
X087841Y046643*
Y047443*
X087845Y047405*
G37*
G36*
X088199Y024113D02*
X088205Y024045D01*
X088215Y023984*
X088229Y023932*
X088247Y023888*
X088269Y023851*
X088295Y023823*
X088325Y023803*
X088359Y023791*
X088397Y023787*
X087597*
X087635Y023791*
X087669Y023803*
X087699Y023823*
X087725Y023851*
X087747Y023888*
X087765Y023932*
X087779Y023984*
X087789Y024045*
X087795Y024113*
X087797Y024190*
X088197*
X088199Y024113*
G37*
G36*
Y027214D02*
X088205Y027146D01*
X088215Y027086*
X088229Y027034*
X088247Y026990*
X088269Y026954*
X088295Y026926*
X088325Y026906*
X088359Y026894*
X088397Y026890*
X087597*
X087635Y026894*
X087669Y026906*
X087699Y026926*
X087725Y026954*
X087747Y026990*
X087765Y027034*
X087779Y027086*
X087789Y027146*
X087795Y027214*
X087797Y027290*
X088197*
X088199Y027214*
G37*
G36*
X088359Y024795D02*
X088325Y024783D01*
X088295Y024763*
X088269Y024735*
X088247Y024698*
X088229Y024654*
X088215Y024601*
X088205Y024541*
X088199Y024473*
X088197Y024396*
X087797*
X087795Y024473*
X087789Y024541*
X087779Y024601*
X087765Y024654*
X087747Y024698*
X087725Y024735*
X087699Y024763*
X087669Y024783*
X087635Y024795*
X087597Y024799*
X088397*
X088359Y024795*
G37*
G36*
Y027845D02*
X088325Y027833D01*
X088295Y027813*
X088269Y027785*
X088247Y027748*
X088229Y027704*
X088215Y027651*
X088205Y027591*
X088199Y027523*
X088197Y027446*
X087797*
X087795Y027523*
X087789Y027591*
X087779Y027651*
X087765Y027704*
X087747Y027748*
X087725Y027785*
X087699Y027813*
X087669Y027833*
X087635Y027845*
X087597Y027849*
X088397*
X088359Y027845*
G37*
G36*
X088448Y025417D02*
X088460Y025396D01*
X088480Y025378*
X088508Y025362*
X088544Y025348*
X088588Y025337*
X088640Y025329*
X088700Y025323*
X088844Y025318*
Y024918*
X088768Y024917*
X088640Y024907*
X088588Y024898*
X088544Y024887*
X088508Y024874*
X088480Y024858*
X088460Y024840*
X088448Y024819*
X088444Y024796*
Y025440*
X088448Y025417*
G37*
G36*
X089700Y046643D02*
X089696Y046681D01*
X089684Y046715*
X089664Y046745*
X089636Y046771*
X089600Y046793*
X089556Y046811*
X089504Y046825*
X089444Y046835*
X089376Y046841*
X089300Y046843*
Y047243*
X089376Y047245*
X089444Y047251*
X089504Y047261*
X089556Y047275*
X089600Y047293*
X089636Y047315*
X089664Y047341*
X089684Y047371*
X089696Y047405*
X089700Y047443*
Y046643*
G37*
G36*
X090173Y044714D02*
X090183Y044586D01*
X090191Y044534*
X090202Y044490*
X090216Y044454*
X090231Y044426*
X090250Y044406*
X090270Y044394*
X090294Y044390*
X089650*
X089673Y044394*
X089694Y044406*
X089712Y044426*
X089728Y044454*
X089741Y044490*
X089752Y044534*
X089761Y044586*
X089767Y044646*
X089772Y044790*
X090172*
X090173Y044714*
G37*
G36*
X090230Y046292D02*
X090218Y046280D01*
X090207Y046260*
X090198Y046232*
X090190Y046196*
X090183Y046152*
X090175Y046040*
X090172Y045896*
X089772*
X089771Y045972*
X089754Y046196*
X089746Y046232*
X089736Y046260*
X089726Y046280*
X089713Y046292*
X089700Y046296*
X090244*
X090230Y046292*
G37*
G36*
X091065Y025446D02*
X091034Y025469D01*
X090998Y025480*
X090955*
X090907Y025469*
X090853Y025446*
X090794Y025412*
X090729Y025367*
X090658Y025310*
X090500Y025163*
X090217Y025446*
X090296Y025528*
X090421Y025675*
X090466Y025740*
X090500Y025799*
X090522Y025853*
X090534Y025901*
Y025944*
X090522Y025980*
X090500Y026012*
X091065Y025446*
G37*
G36*
X091672Y032534D02*
X091674Y032465D01*
X091682Y032393*
X091695Y032320*
X091714Y032244*
X091737Y032166*
X091766Y032087*
X091840Y031922*
X091885Y031837*
X091935Y031749*
X090784Y032053*
X090858Y032099*
X090924Y032149*
X090982Y032202*
X091032Y032258*
X091075Y032318*
X091110Y032382*
X091137Y032450*
X091156Y032521*
X091168Y032595*
X091172Y032674*
X091672Y032534*
G37*
G36*
X091730Y043491D02*
X091718Y043476D01*
X091707Y043451*
X091698Y043416*
X091690Y043371*
X091683Y043316*
X091675Y043176*
X091672Y042996*
X091172*
X091171Y043091*
X091154Y043371*
X091146Y043416*
X091136Y043451*
X091126Y043476*
X091113Y043491*
X091100Y043496*
X091744*
X091730Y043491*
G37*
G36*
X092495Y026705D02*
X092507Y026671D01*
X092527Y026641*
X092555Y026615*
X092591Y026593*
X092636Y026575*
X092688Y026561*
X092749Y026551*
X092817Y026545*
X092894Y026543*
Y026143*
X092817Y026141*
X092749Y026135*
X092688Y026125*
X092636Y026111*
X092591Y026093*
X092555Y026071*
X092527Y026045*
X092507Y026015*
X092495Y025981*
X092491Y025943*
Y026743*
X092495Y026705*
G37*
%LNtopcopperfilm-3*%
%LPD*%
G36*
X083624Y067641D02*
Y066470D01*
X084795*
X084767Y066683*
X084636Y067001*
X084427Y067273*
X084154Y067482*
X083837Y067613*
X083624Y067641*
G37*
G36*
X048624D02*
Y066470D01*
X049795*
X049767Y066683*
X049636Y067001*
X049427Y067273*
X049154Y067482*
X048837Y067613*
X048624Y067641*
G37*
G36*
X013624D02*
Y066470D01*
X014795*
X014767Y066683*
X014636Y067001*
X014427Y067273*
X014154Y067482*
X013837Y067613*
X013624Y067641*
G37*
G36*
X118624D02*
Y066470D01*
X119795*
X119767Y066683*
X119636Y067001*
X119427Y067273*
X119154Y067482*
X118837Y067613*
X118624Y067641*
G37*
G36*
X084795Y066216D02*
X083624D01*
Y065044*
X083837Y065072*
X084154Y065204*
X084427Y065413*
X084636Y065685*
X084767Y066002*
X084795Y066216*
G37*
G36*
X049795D02*
X048624D01*
Y065044*
X048837Y065072*
X049154Y065204*
X049427Y065413*
X049636Y065685*
X049767Y066002*
X049795Y066216*
G37*
G36*
X014795D02*
X013624D01*
Y065044*
X013837Y065072*
X014154Y065204*
X014427Y065413*
X014636Y065685*
X014767Y066002*
X014795Y066216*
G37*
G36*
X119795D02*
X118624D01*
Y065044*
X118837Y065072*
X119154Y065204*
X119427Y065413*
X119636Y065685*
X119767Y066002*
X119795Y066216*
G37*
G36*
X101724Y065740D02*
Y064770D01*
X102693*
X102672Y064931*
X102561Y065200*
X102384Y065430*
X102153Y065607*
X101885Y065718*
X101724Y065740*
G37*
G36*
X101470D02*
X101308Y065718D01*
X101040Y065607*
X100809Y065430*
X100632Y065200*
X100521Y064931*
X100500Y064770*
X101470*
Y065740*
G37*
G36*
X098524D02*
Y064770D01*
X099493*
X099472Y064931*
X099361Y065200*
X099184Y065430*
X098953Y065607*
X098685Y065718*
X098524Y065740*
G37*
G36*
X098270D02*
X098108Y065718D01*
X097840Y065607*
X097609Y065430*
X097432Y065200*
X097321Y064931*
X097300Y064770*
X098270*
Y065740*
G37*
G36*
X095324D02*
Y064770D01*
X096293*
X096272Y064931*
X096161Y065200*
X095984Y065430*
X095753Y065607*
X095485Y065718*
X095324Y065740*
G37*
G36*
X095070D02*
X094908Y065718D01*
X094640Y065607*
X094409Y065430*
X094232Y065200*
X094121Y064931*
X094100Y064770*
X095070*
Y065740*
G37*
G36*
X102693Y064516D02*
X101724D01*
Y063546*
X101885Y063567*
X102153Y063679*
X102384Y063856*
X102561Y064086*
X102672Y064355*
X102693Y064516*
G37*
G36*
X101470D02*
X100500D01*
X100521Y064355*
X100632Y064086*
X100809Y063856*
X101040Y063679*
X101308Y063567*
X101470Y063546*
Y064516*
G37*
G36*
X099493D02*
X098524D01*
Y063546*
X098685Y063567*
X098953Y063679*
X099184Y063856*
X099361Y064086*
X099472Y064355*
X099493Y064516*
G37*
G36*
X098270D02*
X097300D01*
X097321Y064355*
X097432Y064086*
X097609Y063856*
X097840Y063679*
X098108Y063567*
X098270Y063546*
Y064516*
G37*
G36*
X096293D02*
X095324D01*
Y063546*
X095485Y063567*
X095753Y063679*
X095984Y063856*
X096161Y064086*
X096272Y064355*
X096293Y064516*
G37*
G36*
X095070D02*
X094100D01*
X094121Y064355*
X094232Y064086*
X094409Y063856*
X094640Y063679*
X094908Y063567*
X095070Y063546*
Y064516*
G37*
G36*
X102124Y058140D02*
Y057170D01*
X103094*
X103072Y057331*
X102961Y057600*
X102784Y057830*
X102553Y058007*
X102285Y058118*
X102124Y058140*
G37*
G36*
X101870D02*
X101708Y058118D01*
X101440Y058007*
X101209Y057830*
X101032Y057600*
X100921Y057331*
X100900Y057170*
X101870*
Y058140*
G37*
G36*
X098324D02*
Y057170D01*
X099293*
X099272Y057331*
X099161Y057600*
X098984Y057830*
X098753Y058007*
X098485Y058118*
X098324Y058140*
G37*
G36*
X098070D02*
X097908Y058118D01*
X097640Y058007*
X097409Y057830*
X097232Y057600*
X097121Y057331*
X097100Y057170*
X098070*
Y058140*
G37*
G36*
X094524D02*
Y057170D01*
X095493*
X095472Y057331*
X095361Y057600*
X095184Y057830*
X094953Y058007*
X094685Y058118*
X094524Y058140*
G37*
G36*
X094270D02*
X094108Y058118D01*
X093840Y058007*
X093609Y057830*
X093432Y057600*
X093321Y057331*
X093300Y057170*
X094270*
Y058140*
G37*
G36*
X085747Y061455D02*
X085237Y061405D01*
X084747Y061257*
X084295Y061015*
X083899Y060690*
X083574Y060294*
X083333Y059843*
X083184Y059353*
X083134Y058843*
X083184Y058333*
X083333Y057843*
X083574Y057391*
X083899Y056996*
X084295Y056671*
X084747Y056429*
X085237Y056281*
X085747Y056230*
X086256Y056281*
X086746Y056429*
X087198Y056671*
X087594Y056996*
X087919Y057391*
X088160Y057843*
X088309Y058333*
X088359Y058843*
X088309Y059353*
X088160Y059843*
X087919Y060294*
X087594Y060690*
X087198Y061015*
X086746Y061257*
X086256Y061405*
X085747Y061455*
G37*
G36*
X076247D02*
X075737Y061405D01*
X075247Y061257*
X074795Y061015*
X074399Y060690*
X074074Y060294*
X073833Y059843*
X073684Y059353*
X073634Y058843*
X073684Y058333*
X073833Y057843*
X074074Y057391*
X074399Y056996*
X074795Y056671*
X075247Y056429*
X075737Y056281*
X076247Y056230*
X076756Y056281*
X077246Y056429*
X077698Y056671*
X078094Y056996*
X078419Y057391*
X078660Y057843*
X078809Y058333*
X078859Y058843*
X078809Y059353*
X078660Y059843*
X078419Y060294*
X078094Y060690*
X077698Y061015*
X077246Y061257*
X076756Y061405*
X076247Y061455*
G37*
G36*
X103094Y056916D02*
X102124D01*
Y055946*
X102285Y055967*
X102553Y056079*
X102784Y056255*
X102961Y056486*
X103072Y056755*
X103094Y056916*
G37*
G36*
X101870D02*
X100900D01*
X100921Y056755*
X101032Y056486*
X101209Y056255*
X101440Y056079*
X101708Y055967*
X101870Y055946*
Y056916*
G37*
G36*
X099293D02*
X098324D01*
Y055946*
X098485Y055967*
X098753Y056079*
X098984Y056255*
X099161Y056486*
X099272Y056755*
X099293Y056916*
G37*
G36*
X098070D02*
X097100D01*
X097121Y056755*
X097232Y056486*
X097409Y056255*
X097640Y056079*
X097908Y055967*
X098070Y055946*
Y056916*
G37*
G36*
X095493D02*
X094524D01*
Y055946*
X094685Y055967*
X094953Y056079*
X095184Y056255*
X095361Y056486*
X095472Y056755*
X095493Y056916*
G37*
G36*
X094270D02*
X093300D01*
X093321Y056755*
X093432Y056486*
X093609Y056255*
X093840Y056079*
X094108Y055967*
X094270Y055946*
Y056916*
G37*
G36*
X020145Y054197D02*
X019293D01*
Y053563*
X019306Y053565*
X019372Y053583*
X019427Y053605*
X019472Y053633*
X019508Y053665*
X019533Y053703*
X019548Y053745*
X019553Y053793*
Y053420*
X020145*
Y054197*
G37*
G36*
X016324Y054340D02*
Y053370D01*
X017293*
X017272Y053531*
X017161Y053800*
X016984Y054030*
X016753Y054207*
X016485Y054318*
X016324Y054340*
G37*
G36*
X016070D02*
X015908Y054318D01*
X015640Y054207*
X015409Y054030*
X015232Y053800*
X015121Y053531*
X015100Y053370*
X016070*
Y054340*
G37*
G36*
X020145Y053166D02*
X019553D01*
Y052793*
X019548Y052840*
X019533Y052883*
X019508Y052920*
X019472Y052953*
X019427Y052980*
X019372Y053003*
X019306Y053020*
X019293Y053023*
Y052389*
X020145*
Y053166*
G37*
G36*
X017293Y053116D02*
X016324D01*
Y052146*
X016485Y052167*
X016753Y052279*
X016984Y052456*
X017161Y052686*
X017272Y052955*
X017293Y053116*
G37*
G36*
X016070D02*
X015100D01*
X015121Y052955*
X015232Y052686*
X015409Y052456*
X015640Y052279*
X015908Y052167*
X016070Y052146*
Y053116*
G37*
G36*
X014924Y051840D02*
Y050870D01*
X015397*
X015368Y051373*
X015440Y051310*
X015513Y051254*
X015586Y051204*
X015660Y051162*
X015733Y051125*
X015807Y051096*
X015851Y051082*
X015761Y051300*
X015584Y051530*
X015353Y051707*
X015085Y051818*
X014924Y051840*
G37*
G36*
X021551Y051797D02*
X020624D01*
Y050970*
X021551*
Y051797*
G37*
G36*
X020370D02*
X019443D01*
Y051063*
X019456Y051065*
X019522Y051083*
X019577Y051105*
X019622Y051133*
X019657Y051165*
X019683Y051203*
X019698Y051245*
X019703Y051293*
Y050970*
X020370*
Y051797*
G37*
G36*
X014670Y051840D02*
X014508Y051818D01*
X014240Y051707*
X014009Y051530*
X013832Y051300*
X013721Y051031*
X013700Y050870*
X014670*
Y051840*
G37*
G36*
X020370Y050716D02*
X019703D01*
Y050293*
X019698Y050340*
X019683Y050383*
X019657Y050420*
X019622Y050453*
X019577Y050480*
X019522Y050503*
X019456Y050520*
X019443Y050523*
Y049889*
X020326*
X020324Y049902*
X020307Y049968*
X020284Y050023*
X020257Y050068*
X020224Y050104*
X020187Y050129*
X020144Y050144*
X020097Y050149*
X020370*
Y050716*
G37*
G36*
X021551D02*
X020624D01*
Y050149*
X021097*
X021049Y050144*
X021007Y050129*
X020969Y050104*
X020937Y050068*
X020909Y050023*
X020887Y049968*
X020869Y049902*
X020867Y049889*
X021551*
Y050716*
G37*
G36*
X015412Y050616D02*
X014924D01*
Y049646*
X015085Y049667*
X015353Y049779*
X015584Y049956*
X015761Y050186*
X015872Y050455*
X015878Y050500*
X015838Y050486*
X015767Y050453*
X015699Y050414*
X015631Y050367*
X015565Y050314*
X015501Y050253*
X015438Y050185*
X015412Y050616*
G37*
G36*
X014670D02*
X013700D01*
X013721Y050455*
X013832Y050186*
X014009Y049956*
X014240Y049779*
X014508Y049667*
X014670Y049646*
Y050616*
G37*
G36*
X093751Y048047D02*
X093349D01*
Y047170*
X093751*
Y048047*
G37*
G36*
X093095D02*
X092693D01*
Y047170*
X093095*
Y048047*
G37*
G36*
X020886Y047318D02*
X020902Y047270D01*
X020933Y047198*
X020971Y047127*
X021016Y047056*
X021067Y046987*
X021126Y046918*
X021192Y046850*
X020724*
Y046370*
X021693*
X021672Y046531*
X021561Y046800*
X021384Y047030*
X021153Y047207*
X020886Y047318*
G37*
G36*
X020308D02*
X020040Y047207D01*
X019809Y047030*
X019632Y046800*
X019521Y046531*
X019500Y046370*
X020470*
Y046850*
X020002*
X020067Y046918*
X020126Y046987*
X020178Y047056*
X020222Y047127*
X020260Y047198*
X020291Y047270*
X020308Y047318*
G37*
G36*
X093751Y046916D02*
X093349D01*
Y046039*
X093751*
Y046916*
G37*
G36*
X093095D02*
X092693D01*
Y046039*
X093095*
Y046916*
G37*
G36*
X021693Y046116D02*
X020724D01*
Y045146*
X020885Y045167*
X021153Y045279*
X021384Y045456*
X021561Y045686*
X021672Y045955*
X021693Y046116*
G37*
G36*
X020470D02*
X019500D01*
X019521Y045955*
X019632Y045686*
X019809Y045456*
X020040Y045279*
X020308Y045167*
X020470Y045146*
Y046116*
G37*
G36*
X008624Y042640D02*
Y041670D01*
X009593*
X009572Y041831*
X009461Y042100*
X009284Y042330*
X009053Y042507*
X008785Y042618*
X008624Y042640*
G37*
G36*
X008370D02*
X008209Y042618D01*
X007940Y042507*
X007709Y042330*
X007532Y042100*
X007421Y041831*
X007400Y041670*
X008370*
Y042640*
G37*
G36*
X023624Y041740D02*
Y040770D01*
X024594*
X024572Y040931*
X024461Y041200*
X024284Y041430*
X024053Y041607*
X023785Y041718*
X023624Y041740*
G37*
G36*
X023370D02*
X023208Y041718D01*
X022940Y041607*
X022709Y041430*
X022532Y041200*
X022421Y040931*
X022400Y040770*
X023370*
Y041740*
G37*
G36*
X009593Y041416D02*
X008624D01*
Y040446*
X008785Y040467*
X009053Y040579*
X009284Y040756*
X009461Y040986*
X009572Y041255*
X009593Y041416*
G37*
G36*
X008370D02*
X007400D01*
X007421Y041255*
X007532Y040986*
X007709Y040756*
X007940Y040579*
X008209Y040467*
X008370Y040446*
Y041416*
G37*
G36*
X024594Y040516D02*
X023624D01*
Y039546*
X023785Y039567*
X024053Y039679*
X024284Y039856*
X024461Y040086*
X024572Y040355*
X024594Y040516*
G37*
G36*
X023370D02*
X022400D01*
X022421Y040355*
X022532Y040086*
X022709Y039856*
X022940Y039679*
X023208Y039567*
X023370Y039546*
Y040516*
G37*
G36*
X012324Y039740D02*
Y038770D01*
X013294*
X013272Y038931*
X013161Y039200*
X012984Y039430*
X012753Y039607*
X012485Y039718*
X012324Y039740*
G37*
G36*
X012070D02*
X011908Y039718D01*
X011640Y039607*
X011409Y039430*
X011232Y039200*
X011121Y038931*
X011100Y038770*
X012070*
Y039740*
G37*
G36*
X013294Y038516D02*
X012324D01*
Y037546*
X012485Y037567*
X012753Y037679*
X012984Y037856*
X013161Y038086*
X013272Y038355*
X013294Y038516*
G37*
G36*
X012070D02*
X011100D01*
X011121Y038355*
X011232Y038086*
X011409Y037856*
X011640Y037679*
X011908Y037567*
X012070Y037546*
Y038516*
G37*
G36*
X016224Y036540D02*
Y035570D01*
X017193*
X017172Y035731*
X017061Y036000*
X016884Y036230*
X016653Y036407*
X016385Y036518*
X016224Y036540*
G37*
G36*
X015970D02*
X015808Y036518D01*
X015540Y036407*
X015309Y036230*
X015132Y036000*
X015021Y035731*
X015000Y035570*
X015970*
Y036540*
G37*
G36*
X017193Y035316D02*
X016224D01*
Y034346*
X016385Y034367*
X016653Y034479*
X016884Y034656*
X017061Y034886*
X017172Y035155*
X017193Y035316*
G37*
G36*
X015970D02*
X015000D01*
X015021Y035155*
X015132Y034886*
X015309Y034656*
X015540Y034479*
X015808Y034367*
X015970Y034346*
Y035316*
G37*
G36*
X088701Y030497D02*
X088124D01*
Y029995*
X088701*
Y030497*
G37*
G36*
X087870D02*
X087293D01*
Y029995*
X087870*
Y030497*
G37*
G36*
X106751Y022497D02*
X105624D01*
Y021470*
X106751*
Y022497*
G37*
G36*
X105370D02*
X104243D01*
Y021470*
X105370*
Y022497*
G37*
G36*
X092751D02*
X091624D01*
Y021470*
X092751*
Y022497*
G37*
G36*
X091370D02*
X090243D01*
Y021470*
X091370*
Y022497*
G37*
G36*
X057751D02*
X056624D01*
Y021470*
X057751*
Y022497*
G37*
G36*
X056370D02*
X055243D01*
Y021470*
X056370*
Y022497*
G37*
G36*
X036751D02*
X035624D01*
Y021470*
X036751*
Y022497*
G37*
G36*
X035370D02*
X034243D01*
Y021470*
X035370*
Y022497*
G37*
G36*
X022751D02*
X021624D01*
Y021470*
X022751*
Y022497*
G37*
G36*
X021370D02*
X020243D01*
Y021470*
X021370*
Y022497*
G37*
G36*
X106751Y021216D02*
X105624D01*
Y020189*
X106751*
Y021216*
G37*
G36*
X105370D02*
X104243D01*
Y020189*
X105370*
Y021216*
G37*
G36*
X092751D02*
X091624D01*
Y020189*
X092751*
Y021216*
G37*
G36*
X091370D02*
X090243D01*
Y020189*
X091370*
Y021216*
G37*
G36*
X071751D02*
X070624D01*
Y020189*
X071751*
Y021216*
G37*
G36*
X070370D02*
X069243D01*
Y020189*
X070370*
Y021216*
G37*
G36*
X057751D02*
X056624D01*
Y020189*
X057751*
Y021216*
G37*
G36*
X056370D02*
X055243D01*
Y020189*
X056370*
Y021216*
G37*
G36*
X036751D02*
X035624D01*
Y020189*
X036751*
Y021216*
G37*
G36*
X035370D02*
X034243D01*
Y020189*
X035370*
Y021216*
G37*
G36*
X022751D02*
X021624D01*
Y020189*
X022751*
Y021216*
G37*
G36*
X021370D02*
X020243D01*
Y020189*
X021370*
Y021216*
G37*
G36*
X056624Y019340D02*
Y018370D01*
X057593*
X057572Y018531*
X057461Y018800*
X057284Y019030*
X057053Y019207*
X056785Y019318*
X056624Y019340*
G37*
G36*
X056370D02*
X056208Y019318D01*
X055940Y019207*
X055709Y019030*
X055532Y018800*
X055421Y018531*
X055400Y018370*
X056370*
Y019340*
G37*
G36*
X035624D02*
Y018370D01*
X036593*
X036572Y018531*
X036461Y018800*
X036284Y019030*
X036053Y019207*
X035785Y019318*
X035624Y019340*
G37*
G36*
X035370D02*
X035208Y019318D01*
X034940Y019207*
X034709Y019030*
X034532Y018800*
X034421Y018531*
X034400Y018370*
X035370*
Y019340*
G37*
G36*
X091624Y019240D02*
Y018270D01*
X092593*
X092572Y018431*
X092461Y018700*
X092284Y018930*
X092053Y019107*
X091785Y019218*
X091624Y019240*
G37*
G36*
X091370D02*
X091208Y019218D01*
X090940Y019107*
X090709Y018930*
X090532Y018700*
X090421Y018431*
X090400Y018270*
X091370*
Y019240*
G37*
G36*
X021624D02*
Y018270D01*
X022593*
X022572Y018431*
X022461Y018700*
X022284Y018930*
X022053Y019107*
X021785Y019218*
X021624Y019240*
G37*
G36*
X021370D02*
X021209Y019218D01*
X020940Y019107*
X020709Y018930*
X020532Y018700*
X020421Y018431*
X020400Y018270*
X021370*
Y019240*
G37*
G36*
X105624Y018940D02*
Y017970D01*
X106593*
X106572Y018131*
X106461Y018400*
X106284Y018630*
X106053Y018807*
X105785Y018918*
X105624Y018940*
G37*
G36*
X105370D02*
X105208Y018918D01*
X104940Y018807*
X104709Y018630*
X104532Y018400*
X104421Y018131*
X104400Y017970*
X105370*
Y018940*
G37*
G36*
X070624D02*
Y017970D01*
X071593*
X071572Y018131*
X071461Y018400*
X071284Y018630*
X071053Y018807*
X070785Y018918*
X070624Y018940*
G37*
G36*
X070370D02*
X070208Y018918D01*
X069940Y018807*
X069709Y018630*
X069532Y018400*
X069421Y018131*
X069400Y017970*
X070370*
Y018940*
G37*
G36*
X057593Y018116D02*
X056624D01*
Y017146*
X056785Y017167*
X057053Y017279*
X057284Y017455*
X057461Y017686*
X057572Y017955*
X057593Y018116*
G37*
G36*
X056370D02*
X055400D01*
X055421Y017955*
X055532Y017686*
X055709Y017455*
X055940Y017279*
X056208Y017167*
X056370Y017146*
Y018116*
G37*
G36*
X036593D02*
X035624D01*
Y017146*
X035785Y017167*
X036053Y017279*
X036284Y017455*
X036461Y017686*
X036572Y017955*
X036593Y018116*
G37*
G36*
X035370D02*
X034400D01*
X034421Y017955*
X034532Y017686*
X034709Y017455*
X034940Y017279*
X035208Y017167*
X035370Y017146*
Y018116*
G37*
G36*
X092593Y018016D02*
X091624D01*
Y017046*
X091785Y017067*
X092053Y017179*
X092284Y017355*
X092461Y017586*
X092572Y017855*
X092593Y018016*
G37*
G36*
X091370D02*
X090400D01*
X090421Y017855*
X090532Y017586*
X090709Y017355*
X090940Y017179*
X091208Y017067*
X091370Y017046*
Y018016*
G37*
G36*
X022593D02*
X021624D01*
Y017046*
X021785Y017067*
X022053Y017179*
X022284Y017355*
X022461Y017586*
X022572Y017855*
X022593Y018016*
G37*
G36*
X021370D02*
X020400D01*
X020421Y017855*
X020532Y017586*
X020709Y017355*
X020940Y017179*
X021209Y017067*
X021370Y017046*
Y018016*
G37*
G36*
X106593Y017716D02*
X105624D01*
Y016746*
X105785Y016767*
X106053Y016879*
X106284Y017055*
X106461Y017286*
X106572Y017555*
X106593Y017716*
G37*
G36*
X105370D02*
X104400D01*
X104421Y017555*
X104532Y017286*
X104709Y017055*
X104940Y016879*
X105208Y016767*
X105370Y016746*
Y017716*
G37*
G36*
X071593D02*
X070624D01*
Y016746*
X070785Y016767*
X071053Y016879*
X071284Y017055*
X071461Y017286*
X071572Y017555*
X071593Y017716*
G37*
G36*
X070370D02*
X069400D01*
X069421Y017555*
X069532Y017286*
X069709Y017055*
X069940Y016879*
X070208Y016767*
X070370Y016746*
Y017716*
G37*
G36*
X021426Y015307D02*
X005497D01*
Y006043*
X021426*
Y015307*
G37*
G36*
X036560Y060393D02*
X036687D01*
X036560*
G37*
G36*
X036814Y062072D02*
Y060520D01*
X037441*
Y062072*
X036814*
G37*
G36*
X037441Y060266D02*
X036814D01*
Y058714*
X037441*
Y060266*
G37*
G36*
X068461Y057687D02*
X065514D01*
Y057080*
X068461*
Y057687*
G37*
G36*
X065260D02*
X062313D01*
Y057080*
X065260*
Y057687*
G37*
G36*
X041247Y061455D02*
X040737Y061405D01*
X040247Y061257*
X039795Y061015*
X039399Y060690*
X039074Y060294*
X038833Y059843*
X038684Y059353*
X038634Y058843*
X038684Y058333*
X038833Y057843*
X039074Y057391*
X039399Y056996*
X039795Y056671*
X040247Y056429*
X040737Y056281*
X041247Y056230*
X041756Y056281*
X042246Y056429*
X042698Y056671*
X043094Y056996*
X043419Y057391*
X043660Y057843*
X043809Y058333*
X043859Y058843*
X043809Y059353*
X043660Y059843*
X043419Y060294*
X043094Y060690*
X042698Y061015*
X042246Y061257*
X041756Y061405*
X041247Y061455*
G37*
G36*
X068461Y056826D02*
X065514D01*
Y056219*
X068461*
Y056826*
G37*
G36*
X065260D02*
X062313D01*
Y056219*
X065260*
Y056826*
G37*
G36*
X047824Y053640D02*
Y052670D01*
X048293*
X048230Y053205*
X048307Y053146*
X048460Y053046*
X048536Y053005*
X048612Y052971*
X048686Y052943*
X048731Y052930*
X048661Y053100*
X048484Y053330*
X048253Y053507*
X047985Y053618*
X047824Y053640*
G37*
G36*
X047570D02*
X047408Y053618D01*
X047140Y053507*
X046909Y053330*
X046732Y053100*
X046621Y052831*
X046600Y052670*
X047570*
Y053640*
G37*
G36*
X044674D02*
Y052670D01*
X045644*
X045622Y052831*
X045511Y053100*
X045334Y053330*
X045103Y053507*
X044835Y053618*
X044674Y053640*
G37*
G36*
X044420D02*
X044258Y053618D01*
X043990Y053507*
X043759Y053330*
X043582Y053100*
X043471Y052831*
X043450Y052670*
X044420*
Y053640*
G37*
G36*
X041524D02*
Y052670D01*
X042493*
X042472Y052831*
X042361Y053100*
X042184Y053330*
X041953Y053507*
X041685Y053618*
X041524Y053640*
G37*
G36*
X041270D02*
X041108Y053618D01*
X040840Y053507*
X040609Y053330*
X040432Y053100*
X040321Y052831*
X040300Y052670*
X041270*
Y053640*
G37*
G36*
X048323Y052416D02*
X047824D01*
Y051446*
X047985Y051467*
X048253Y051579*
X048484Y051756*
X048661Y051986*
X048772Y052255*
X048784Y052347*
X048749Y052334*
X048681Y052301*
X048614Y052260*
X048550Y052212*
X048488Y052156*
X048428Y052094*
X048369Y052023*
X048323Y052416*
G37*
G36*
X047570D02*
X046600D01*
X046621Y052255*
X046732Y051986*
X046909Y051756*
X047140Y051579*
X047408Y051467*
X047570Y051446*
Y052416*
G37*
G36*
X045644D02*
X044674D01*
Y051446*
X044835Y051467*
X045103Y051579*
X045334Y051756*
X045511Y051986*
X045622Y052255*
X045644Y052416*
G37*
G36*
X044420D02*
X043450D01*
X043471Y052255*
X043582Y051986*
X043759Y051756*
X043990Y051579*
X044258Y051467*
X044420Y051446*
Y052416*
G37*
G36*
X042493D02*
X041524D01*
Y051446*
X041685Y051467*
X041953Y051579*
X042184Y051756*
X042361Y051986*
X042472Y052255*
X042493Y052416*
G37*
G36*
X041270D02*
X040300D01*
X040321Y052255*
X040432Y051986*
X040609Y051756*
X040840Y051579*
X041108Y051467*
X041270Y051446*
Y052416*
G37*
G36*
X078824Y042440D02*
Y041470D01*
X079793*
X079772Y041631*
X079661Y041900*
X079484Y042130*
X079253Y042307*
X078985Y042418*
X078824Y042440*
G37*
G36*
X078570D02*
X078408Y042418D01*
X078140Y042307*
X077909Y042130*
X077732Y041900*
X077621Y041632*
X077670Y041648*
X077742Y041679*
X077813Y041717*
X077883Y041762*
X077953Y041814*
X078022Y041872*
X078090Y041938*
Y041470*
X078570*
Y042440*
G37*
G36*
Y041216D02*
X078090D01*
Y040748*
X078022Y040813*
X077953Y040872*
X077883Y040924*
X077813Y040969*
X077742Y041007*
X077670Y041038*
X077621Y041054*
X077732Y040786*
X077909Y040556*
X078140Y040379*
X078408Y040267*
X078570Y040246*
Y041216*
G37*
G36*
X064286Y041318D02*
X064302Y041270D01*
X064333Y041198*
X064371Y041127*
X064416Y041056*
X064467Y040987*
X064526Y040918*
X064592Y040850*
X064124*
Y040370*
X064604*
Y040838*
X064672Y040772*
X064741Y040714*
X064810Y040662*
X064880Y040617*
X064952Y040579*
X065024Y040548*
X065072Y040532*
X064961Y040800*
X064784Y041030*
X064553Y041207*
X064286Y041318*
G37*
G36*
X060443Y037916D02*
X060200D01*
X060221Y037755*
X060332Y037487*
X060355Y037533*
X060384Y037605*
X060407Y037683*
X060425Y037764*
X060438Y037850*
X060443Y037916*
G37*
G36*
X061170D02*
X060565D01*
X061170Y037311*
Y037916*
G37*
G36*
Y037189D02*
X061104Y037184D01*
X061018Y037171*
X060936Y037153*
X060859Y037130*
X060786Y037101*
X060741Y037078*
X061008Y036967*
X061170Y036946*
Y037189*
G37*
G36*
X027249Y054197D02*
Y053420D01*
X028101*
Y054197*
X027249*
G37*
G36*
X028101Y053166D02*
X027249D01*
Y052389*
X028101*
Y053166*
G37*
G36*
X045924Y047840D02*
Y046870D01*
X046893*
X046872Y047031*
X046761Y047300*
X046584Y047530*
X046353Y047707*
X046085Y047818*
X045924Y047840*
G37*
G36*
X045670D02*
X045508Y047818D01*
X045240Y047707*
X045009Y047530*
X044832Y047300*
X044721Y047031*
X044700Y046870*
X045670*
Y047840*
G37*
G36*
X043024D02*
Y046870D01*
X043993*
X043972Y047031*
X043861Y047300*
X043684Y047530*
X043453Y047707*
X043185Y047818*
X043024Y047840*
G37*
G36*
X042770D02*
X042608Y047818D01*
X042340Y047707*
X042109Y047530*
X041932Y047300*
X041821Y047031*
X041800Y046870*
X042770*
Y047840*
G37*
G36*
X040124D02*
Y046870D01*
X041093*
X041072Y047031*
X040961Y047300*
X040784Y047530*
X040553Y047707*
X040285Y047818*
X040124Y047840*
G37*
G36*
X039870D02*
X039708Y047818D01*
X039440Y047707*
X039209Y047530*
X039032Y047300*
X038921Y047031*
X038900Y046870*
X039870*
Y047840*
G37*
G36*
X035676Y047391D02*
X035024D01*
Y046739*
X035676*
Y047391*
G37*
G36*
X034770D02*
X034118D01*
Y046739*
X034770*
Y047391*
G37*
G36*
X032276D02*
X031624D01*
Y046739*
X032276*
Y047391*
G37*
G36*
X031370D02*
X030718D01*
Y046739*
X031370*
Y047391*
G37*
G36*
X028924Y047440D02*
Y046470D01*
X029893*
X029872Y046631*
X029761Y046900*
X029584Y047130*
X029353Y047307*
X029085Y047418*
X028924Y047440*
G37*
G36*
X028670D02*
X028508Y047418D01*
X028240Y047307*
X028009Y047130*
X027832Y046900*
X027721Y046631*
X027700Y046470*
X028670*
Y047440*
G37*
G36*
X046893Y046616D02*
X045924D01*
Y045646*
X046085Y045667*
X046353Y045779*
X046584Y045956*
X046761Y046186*
X046872Y046455*
X046893Y046616*
G37*
G36*
X045670D02*
X044700D01*
X044721Y046455*
X044832Y046186*
X045009Y045956*
X045240Y045779*
X045508Y045667*
X045670Y045646*
Y046616*
G37*
G36*
X043993D02*
X043024D01*
Y045646*
X043185Y045667*
X043453Y045779*
X043684Y045956*
X043861Y046186*
X043972Y046455*
X043993Y046616*
G37*
G36*
X042770D02*
X041800D01*
X041821Y046455*
X041932Y046186*
X042109Y045956*
X042340Y045779*
X042608Y045667*
X042770Y045646*
Y046616*
G37*
G36*
X041093D02*
X040124D01*
Y045646*
X040285Y045667*
X040553Y045779*
X040784Y045956*
X040961Y046186*
X041072Y046455*
X041093Y046616*
G37*
G36*
X039870D02*
X038900D01*
X038921Y046455*
X039032Y046186*
X039209Y045956*
X039440Y045779*
X039708Y045667*
X039870Y045646*
Y046616*
G37*
G36*
X029893Y046216D02*
X028924D01*
Y045246*
X029085Y045267*
X029353Y045379*
X029584Y045556*
X029761Y045786*
X029872Y046055*
X029893Y046216*
G37*
G36*
X028670D02*
X027700D01*
X027721Y046055*
X027832Y045786*
X028009Y045556*
X028240Y045379*
X028508Y045267*
X028670Y045246*
Y046216*
G37*
G36*
X031824Y044640D02*
Y043670D01*
X032793*
X032772Y043831*
X032661Y044100*
X032484Y044330*
X032253Y044507*
X031985Y044618*
X031824Y044640*
G37*
G36*
X031570D02*
X031408Y044618D01*
X031140Y044507*
X030909Y044330*
X030732Y044100*
X030621Y043831*
X030600Y043670*
X031570*
Y044640*
G37*
G36*
X036224Y044440D02*
Y043470D01*
X037193*
X037172Y043631*
X037061Y043900*
X036884Y044130*
X036653Y044307*
X036385Y044418*
X036224Y044440*
G37*
G36*
X035970D02*
X035808Y044418D01*
X035540Y044307*
X035309Y044130*
X035132Y043900*
X035021Y043631*
X035000Y043470*
X035970*
Y044440*
G37*
G36*
X032793Y043416D02*
X031824D01*
Y042446*
X031985Y042467*
X032253Y042579*
X032484Y042755*
X032661Y042986*
X032772Y043255*
X032793Y043416*
G37*
G36*
X031570D02*
X030600D01*
X030621Y043255*
X030732Y042986*
X030909Y042755*
X031140Y042579*
X031408Y042467*
X031570Y042446*
Y043416*
G37*
G36*
X037193Y043216D02*
X036224D01*
Y042246*
X036385Y042267*
X036653Y042379*
X036884Y042555*
X037061Y042786*
X037172Y043055*
X037193Y043216*
G37*
G36*
X035970D02*
X035000D01*
X035021Y043055*
X035132Y042786*
X035309Y042555*
X035540Y042379*
X035808Y042267*
X035970Y042246*
Y043216*
G37*
G36*
X034751Y031916D02*
X034249D01*
Y031339*
X034751*
Y031916*
G37*
G36*
X048524Y030340D02*
Y029370D01*
X049493*
X049472Y029531*
X049361Y029800*
X049184Y030030*
X048953Y030207*
X048685Y030318*
X048524Y030340*
G37*
G36*
X048270D02*
X048108Y030318D01*
X047840Y030207*
X047609Y030030*
X047432Y029800*
X047321Y029531*
X047300Y029370*
X048270*
Y030340*
G37*
G36*
X044224D02*
Y029370D01*
X045193*
X045172Y029531*
X045061Y029800*
X044884Y030030*
X044653Y030207*
X044385Y030318*
X044224Y030340*
G37*
G36*
X043970D02*
X043808Y030318D01*
X043540Y030207*
X043309Y030030*
X043132Y029800*
X043021Y029531*
X043000Y029370*
X043970*
Y030340*
G37*
G36*
X049493Y029116D02*
X048524D01*
Y028146*
X048685Y028167*
X048953Y028279*
X049184Y028456*
X049361Y028686*
X049472Y028955*
X049493Y029116*
G37*
G36*
X048270D02*
X047300D01*
X047321Y028955*
X047432Y028686*
X047609Y028456*
X047840Y028279*
X048108Y028167*
X048270Y028146*
Y029116*
G37*
G36*
X045193D02*
X044224D01*
Y028146*
X044385Y028167*
X044653Y028279*
X044884Y028456*
X045061Y028686*
X045172Y028955*
X045193Y029116*
G37*
G36*
X043970D02*
X043000D01*
X043021Y028955*
X043132Y028686*
X043309Y028456*
X043540Y028279*
X043808Y028167*
X043970Y028146*
Y029116*
G37*
G36*
X082324Y026640D02*
Y025670D01*
X083293*
X083272Y025831*
X083161Y026100*
X082984Y026330*
X082753Y026507*
X082485Y026618*
X082324Y026640*
G37*
G36*
X082070D02*
X081908Y026618D01*
X081640Y026507*
X081409Y026330*
X081232Y026100*
X081121Y025831*
X081100Y025670*
X082070*
Y026640*
G37*
G36*
X076201Y025991D02*
X075624D01*
Y025489*
X076201*
Y025991*
G37*
G36*
X083293Y025416D02*
X082324D01*
Y024446*
X082485Y024467*
X082753Y024579*
X082984Y024756*
X083161Y024986*
X083272Y025255*
X083293Y025416*
G37*
G36*
X082070D02*
X081100D01*
X081121Y025255*
X081232Y024986*
X081409Y024756*
X081640Y024579*
X081908Y024467*
X082070Y024446*
Y025416*
G37*
%LNtopcopperfilm-4*%
%LPC*%
G54D38*
X115366Y066261D02*
D01*
X115345Y066243*
X115325Y066224*
X115306Y066203*
X115288Y066182*
X115274Y066161*
G54D64*
X006797Y014007D02*
X010129D01*
X008463D02*
Y009009D01*
X010129Y014007D02*
X008463D01*
G54D38*
X010997Y047443D02*
Y066343D01*
Y047443D02*
X022097Y036343D01*
G54D64*
X011795Y009842D02*
X012628Y009009D01*
X011795Y011508D02*
Y009842D01*
X012628Y009009D02*
X014294D01*
X012628Y012341D02*
X011795Y011508D01*
X014294Y009009D02*
X015127Y009842D01*
X014294Y012341D02*
X012628D01*
G54D61*
X014797Y050743D02*
X014847Y050793D01*
X020447D01*
G54D64*
X015127Y009842D02*
Y011508D01*
X014294Y012341D01*
X016793Y007343D02*
Y012341D01*
X019293D01*
G54D61*
X017497Y054543D02*
X018747Y053293D01*
X020272D01*
G54D64*
X019293Y009009D02*
X016793D01*
X019293Y012341D02*
X020126Y011508D01*
Y009842D02*
X019293Y009009D01*
X020126Y011508D02*
Y009842D01*
G54D61*
X020272Y053293D02*
X022497D01*
X020447Y050793D02*
X020497Y050843D01*
X020597Y050743D01*
Y046243D02*
Y050743D01*
G54D38*
X021497Y026343D02*
X027522D01*
G54D61*
X021847Y048943D02*
Y050068D01*
G54D38*
X021847Y050068D02*
X022397Y050618D01*
X022097Y036343D02*
X040147D01*
G54D61*
X022497Y053293D02*
X024897D01*
G54D63*
X023457Y046153D02*
Y048543D01*
Y046153D02*
X023782Y045828D01*
G54D62*
X023697Y048743D02*
Y050618D01*
G54D63*
X023782Y045828D02*
X024882Y044728D01*
G54D62*
X024347Y048743D02*
Y050618D01*
G54D63*
X024567Y046613D02*
Y048543D01*
Y046613D02*
X029483Y041697D01*
G54D61*
X024597Y029843D02*
X026016Y031263D01*
G54D63*
X024882Y044728D02*
X028373Y041237D01*
G54D61*
X024897Y053293D02*
X027122D01*
G54D38*
X024997Y050443D02*
Y050618D01*
Y050443D02*
X025397Y050043D01*
Y049853D02*
Y050043D01*
Y049853D02*
X025907Y049343D01*
X028297D01*
G54D61*
X026016Y031263D02*
Y031988D01*
X026072Y032043D01*
G54D38*
X027522Y026343D02*
D01*
Y032043D01*
Y026343D02*
X035497D01*
X027522Y032043D02*
X029172D01*
X028297Y049343D02*
X029909Y050955D01*
G54D63*
X028373Y041237D02*
D01*
X030277Y039333D01*
X029483Y041697D02*
D01*
X030737Y040443D01*
G54D38*
X029909Y050955D02*
X030897Y051943D01*
X029909Y050955D02*
X031497Y049368D01*
G54D63*
X030277Y039333D02*
X045607D01*
G54D38*
X030622Y032043D02*
X032472D01*
G54D63*
X030737Y040443D02*
X046067D01*
G54D38*
X030897Y051943D02*
Y058258D01*
X032107Y059468D01*
G54D61*
X031345Y029188D02*
X036051D01*
G54D38*
X032107Y059468D02*
Y060393D01*
X032472Y032043D02*
Y033618D01*
X032797Y033943D01*
X036697D01*
G54D61*
X034397Y053643D02*
Y060393D01*
Y053643D02*
X034897Y053143D01*
X034397Y060393D02*
Y063243D01*
X035397Y064243D01*
X034897Y049368D02*
Y052943D01*
Y053143D01*
Y052943D02*
X038271Y049568D01*
X035397Y064243D02*
X036397Y065243D01*
X036051Y029188D02*
X040997Y024243D01*
X036397Y065243D02*
X042263D01*
G54D38*
X036697Y033943D02*
X037397Y033243D01*
X057797D01*
G54D61*
X038271Y049568D02*
X056804D01*
G54D38*
X040147Y036343D02*
X041747Y034743D01*
G54D61*
X040997Y024243D02*
X061097D01*
G54D38*
X041747Y034743D02*
X060697D01*
G54D61*
X042263Y065243D02*
X043363Y066343D01*
X043497D01*
G54D63*
X045607Y039333D02*
X047022Y037918D01*
G54D38*
X045997Y064643D02*
Y066343D01*
Y064643D02*
X049497Y061143D01*
G54D63*
X046067Y040443D02*
X047482Y039028D01*
X047022Y037918D02*
X049482D01*
X047482Y039028D02*
X049022D01*
G54D61*
X047697Y052643D02*
X049427D01*
G54D63*
X049022Y039028D02*
X049092Y039098D01*
X051127D01*
G54D61*
X049427Y052643D02*
X050351Y051718D01*
G54D63*
X049482Y037918D02*
X049552Y037988D01*
G54D38*
X049497Y061143D02*
X067297D01*
G54D63*
X049552Y037988D02*
X051002D01*
G54D61*
X050351Y051718D02*
X050851D01*
X050926Y051643D01*
Y051143D02*
Y051643D01*
G54D63*
X051002Y037988D02*
X051147Y037843D01*
X051127Y039098D02*
X051272Y039243D01*
X051147Y037843D02*
X051272D01*
G54D61*
X053890Y036536D02*
Y039503D01*
Y036536D02*
X054182Y036243D01*
X053890Y039503D02*
Y041699D01*
Y039503D02*
X057097D01*
X053890Y041699D02*
X054661Y042470D01*
X054182Y036243D02*
X056359D01*
X054661Y042470D02*
Y043868D01*
X054736Y043943D01*
X054811Y044018D01*
G54D38*
X054736Y051143D02*
X054761Y051168D01*
X057297D01*
G54D61*
X054811Y044018D02*
X056597D01*
G54D38*
X055397Y054143D02*
X055409Y054155D01*
X057284D01*
X055697Y037843D02*
X057297D01*
X055697Y041243D02*
X056847D01*
G54D61*
X056359Y036243D02*
X056459Y036343D01*
X057597D01*
G54D38*
X056497Y026343D02*
X070497D01*
G54D61*
X056597Y044018D02*
X057672D01*
X056804Y049568D02*
X056879Y049643D01*
G54D38*
X056847Y041243D02*
X056947Y041143D01*
G54D61*
X056879Y049643D02*
X057222D01*
G54D38*
X056947Y041143D02*
X057297D01*
G54D61*
X057222Y049643D02*
X057297Y049718D01*
G54D38*
X057284Y054155D02*
X057297Y054168D01*
Y041143D02*
X057597Y040843D01*
X057297Y037843D02*
X057597Y038143D01*
G54D61*
X057297Y049718D02*
X057422D01*
G54D38*
X057297Y051168D02*
Y052718D01*
Y054168D02*
X057419Y054290D01*
X063084D01*
G54D61*
X057422Y049718D02*
X060197Y046943D01*
G54D38*
X057597Y040843D02*
Y041809D01*
X057831Y042043D01*
G54D61*
X057672Y044018D02*
X058897Y045243D01*
G54D38*
X057831Y042043D02*
X060162D01*
G54D61*
X058897Y045243D02*
X060197D01*
X059157Y036343D02*
Y036579D01*
Y036343D02*
Y038143D01*
Y036579D02*
X059307Y036729D01*
X059157Y038143D02*
Y040843D01*
X059307Y036729D02*
X059982D01*
G54D38*
X059497Y033343D02*
X063524D01*
G54D61*
X059982Y036729D02*
X061297Y038043D01*
G54D38*
X060162Y042043D02*
X060397Y041809D01*
G54D61*
X060197Y043683D02*
X063597D01*
X060197Y045243D02*
Y046943D01*
Y045243D02*
X061897D01*
G54D38*
X060397Y041343D02*
Y041809D01*
Y041343D02*
X063897Y037843D01*
X060697Y029943D02*
Y031843D01*
Y029943D02*
X062497Y028143D01*
G54D61*
X061097Y024243D02*
X061421D01*
X061297Y038043D02*
X061526Y037813D01*
X061421Y024243D02*
X062246Y023418D01*
X061526Y037813D02*
X062266D01*
X061897Y045243D02*
Y046843D01*
Y045243D02*
X063597D01*
X062246Y023418D02*
X073697D01*
X062266Y037813D02*
X064037Y036043D01*
G54D38*
X062474Y032266D02*
X064431Y030309D01*
X062497Y028143D02*
X073197D01*
X062597Y034843D02*
X062766D01*
X063897D01*
X063084Y054290D02*
X063207Y054413D01*
Y049333D02*
X067207D01*
X063524Y033343D02*
X065658Y031209D01*
G54D61*
X063597Y043683D02*
X063997Y043283D01*
X063597Y045243D02*
X063747Y045093D01*
X064026D01*
G54D38*
X063897Y037843D02*
X068097D01*
X063897Y034843D02*
X066197Y032543D01*
G54D61*
X063997Y040243D02*
Y043283D01*
Y040243D02*
X066937D01*
X064026Y045093D02*
X064040Y045079D01*
X064061D01*
X064797Y044344D01*
G54D38*
X064431Y030309D02*
X072303D01*
G54D61*
X064797Y043980D02*
Y044344D01*
Y043980D02*
X065734Y043043D01*
G54D38*
X065387Y051873D02*
X067727D01*
G54D61*
X065597Y036043D02*
X065627Y036073D01*
X066427D01*
G54D38*
X065658Y031209D02*
X079228D01*
G54D61*
X065734Y043043D02*
X066397D01*
G54D38*
X066197Y032543D02*
X073428D01*
X066297Y034543D02*
X066397Y034343D01*
X066297Y034543D02*
X067097Y033743D01*
G54D61*
X066397Y043043D02*
X068347Y041093D01*
X066427Y036073D02*
X067247Y036893D01*
X066937Y038943D02*
Y040243D01*
G54D38*
X067097Y033743D02*
X073501D01*
X067207Y049333D02*
X068097Y048443D01*
G54D61*
X067247Y036893D02*
X069904D01*
G54D38*
X067297Y061143D02*
X081597Y046843D01*
X067727Y051873D02*
X069397Y050203D01*
X068097Y037843D02*
X068431Y038177D01*
X068097Y043143D02*
Y048443D01*
Y043143D02*
X069440Y041799D01*
X068340Y035293D02*
X068427Y035380D01*
G54D61*
X068347Y040393D02*
Y041093D01*
Y040393D02*
X068497Y040243D01*
G54D38*
X068427Y035380D02*
X070159D01*
X068431Y038177D02*
Y038877D01*
X068497Y038943D01*
G54D61*
X068497Y040243D02*
X069804D01*
G54D38*
X069397Y043843D02*
Y050203D01*
G54D61*
X069804Y040243D02*
X070197Y039850D01*
X069904Y036893D02*
X070197Y037186D01*
G54D38*
X070159Y035380D02*
X070368Y035589D01*
G54D61*
X070197Y037186D02*
Y039850D01*
G54D38*
X070497Y026343D02*
X070522Y026318D01*
X073697D01*
G54D61*
X071447Y035993D02*
Y037143D01*
Y035993D02*
X071922Y035518D01*
X071447Y037143D02*
Y038840D01*
X073949Y041343D01*
G54D38*
X071649Y043268D02*
Y045996D01*
X071697Y046043D01*
X075541D01*
G54D61*
X071922Y035443D02*
Y035518D01*
G54D38*
X072303Y030309D02*
X072969Y029643D01*
X072547Y037093D02*
X074991D01*
X072969Y029643D02*
X076697D01*
X073197Y028143D02*
X073572Y027768D01*
X073428Y032543D02*
X073862Y032109D01*
X073501Y033743D02*
X074235Y033009D01*
X073572Y027768D02*
X075497D01*
G54D61*
X073697Y023418D02*
X080184D01*
G54D38*
X073697Y024868D02*
Y026318D01*
X073862Y032109D02*
X077287D01*
G54D61*
X073949Y041343D02*
X078697D01*
G54D38*
X074235Y033009D02*
X076915D01*
X074991Y037093D02*
X075575Y036509D01*
X075541Y046043D02*
X075575Y046009D01*
X075609Y046043D01*
X078947D01*
X076697Y029643D02*
X078122Y028218D01*
X076915Y033009D02*
X077497Y033591D01*
X077287Y032109D02*
X078397Y033218D01*
X077497Y033591D02*
Y036843D01*
X081597Y040943D01*
X078122Y028218D02*
X087997D01*
X078397Y033218D02*
Y035843D01*
X082697Y040143D01*
X079228Y031209D02*
X079597Y031577D01*
Y035343D01*
X080297Y036043D01*
G54D61*
X079997Y044443D02*
X080047Y044493D01*
Y046043D01*
X080184Y023418D02*
X081584Y022018D01*
G54D38*
X080297Y036043D02*
D01*
X083797Y039543D01*
X080997Y054113D02*
Y066343D01*
Y054113D02*
X082697Y052413D01*
G54D61*
X081584Y022018D02*
X085697D01*
G54D38*
X081597Y040943D02*
Y046843D01*
G54D61*
X082197Y025443D02*
Y025543D01*
G54D38*
X082697Y040143D02*
Y052413D01*
X083397Y035343D02*
X086072Y038018D01*
X083797Y039543D02*
Y046533D01*
X090797Y053533D01*
G54D61*
X085697Y022018D02*
X087997D01*
G54D38*
X086072Y038018D02*
Y047043D01*
X087522D02*
X089972D01*
X087997Y023468D02*
Y025118D01*
X090172D01*
X087997Y026568D02*
Y028218D01*
X089972Y043943D02*
Y047043D01*
X090172Y025118D02*
X091397Y026343D01*
X090797Y053533D02*
Y058343D01*
X093597Y061143D01*
G54D61*
X091204Y031314D02*
X091422Y031532D01*
G54D38*
X091397Y026343D02*
X091497D01*
G54D61*
X091422Y031532D02*
Y043943D01*
G54D38*
X091497Y026343D02*
X105497D01*
X093597Y061143D02*
X114597D01*
X115997Y062543D01*
X115240Y066109D02*
X115274Y066161D01*
X115366Y066261D02*
X115474Y066343D01*
X115997D01*
Y062543D02*
Y066343D01*
G54D66*
X006247Y058843D03*
G54D65*
X008497Y066343D03*
X010997D03*
X013497D03*
G54D66*
X015747Y058843D03*
G54D55*
X020272Y053293D03*
G54D56*
X020497Y050843D03*
G54D51*
X021497Y021343D03*
Y026343D03*
G54D54*
X022397Y050618D03*
G54D57*
X022497Y053293D03*
G54D54*
X023047Y050618D03*
X023697D03*
X024347D03*
G54D57*
X024897Y053293D03*
G54D54*
X024997Y050618D03*
G54D46*
X026072Y032043D03*
G54D56*
X026897Y050843D03*
G54D55*
X027122Y053293D03*
G54D46*
X027522Y032043D03*
X029172D03*
X030622D03*
G54D50*
X031497Y047518D03*
Y049368D03*
G54D40*
X032107Y060393D03*
G54D58*
X032472Y032043D03*
X034122D03*
G54D41*
X034397Y053643D03*
G54D40*
X034397Y060393D03*
G54D50*
X034897Y047518D03*
Y049368D03*
G54D51*
X035497Y021343D03*
Y026343D03*
G54D40*
X036687Y060393D03*
G54D66*
X041247Y058843D03*
G54D65*
X043497Y066343D03*
X045997D03*
X048497D03*
G54D66*
X050747Y058843D03*
G54D42*
X050926Y043943D03*
Y051143D03*
G54D59*
X050997Y041343D03*
G54D46*
X051272Y037843D03*
Y039243D03*
G54D42*
X052196Y043943D03*
Y051143D03*
G54D46*
X052722Y037843D03*
Y039243D03*
G54D42*
X053466Y043943D03*
Y051143D03*
X054736Y043943D03*
Y051143D03*
G54D51*
X056497Y021343D03*
Y026343D03*
G54D47*
X056597Y044018D03*
Y045668D03*
G54D49*
X057097Y039503D03*
G54D45*
X057297Y049718D03*
Y051168D03*
Y052718D03*
Y054168D03*
G54D49*
X057597Y036343D03*
Y038143D03*
Y040843D03*
G54D60*
X057797Y033243D03*
G54D53*
X058897Y039503D03*
G54D52*
X059157Y036343D03*
G54D49*
X059157Y038143D03*
Y040843D03*
G54D60*
X059497Y033343D03*
G54D49*
X060197Y043683D03*
Y045243D03*
G54D60*
X060697Y034743D03*
Y031843D03*
X062597Y034843D03*
X062697Y032043D03*
G54D43*
X063207Y049333D03*
Y054413D03*
G54D49*
X063597Y043683D03*
Y045243D03*
X064037Y036043D03*
G54D43*
X065387Y051873D03*
Y056953D03*
G54D49*
X065597Y036043D03*
G54D60*
X066397Y034343D03*
G54D49*
X066937Y038943D03*
Y040343D03*
X068497Y038943D03*
Y040343D03*
G54D60*
X069397Y041943D03*
Y043843D03*
G54D58*
X070272Y035443D03*
G54D51*
X070497Y021343D03*
Y026343D03*
G54D48*
X071447Y037143D03*
G54D45*
X071649Y041818D03*
Y043268D03*
G54D58*
X071922Y035443D03*
G54D48*
X072547Y037143D03*
G54D45*
X073697Y023418D03*
Y024868D03*
Y026318D03*
Y027768D03*
G54D47*
X075497Y026118D03*
Y027768D03*
G54D44*
X075575Y036509D03*
Y046009D03*
G54D66*
X076247Y058843D03*
G54D65*
X078497Y066343D03*
G54D48*
X078947Y046043D03*
X080047D03*
G54D65*
X080997Y066343D03*
X083497D03*
G54D66*
X085747Y058843D03*
G54D46*
X086072Y047043D03*
X087522D03*
G54D45*
X087997Y022018D03*
Y023468D03*
Y025118D03*
Y026568D03*
G54D47*
X087997Y028218D03*
Y029868D03*
G54D46*
X089972Y043943D03*
G54D39*
X089972Y047043D03*
G54D46*
X091422Y043943D03*
G54D51*
X091497Y021343D03*
Y026343D03*
G54D39*
X093222Y047043D03*
G54D51*
X105497Y021343D03*
Y026343D03*
G54D66*
X111247Y058843D03*
G54D65*
X113497Y066343D03*
X115997D03*
X118497D03*
G54D66*
X120747Y058843D03*
G54D67*
X008497Y041543D03*
X012197Y038643D03*
X014797Y050743D03*
X016097Y035443D03*
X016197Y053243D03*
X020597Y046243D03*
X021497Y018143D03*
X023497Y040643D03*
X024597Y029843D03*
X028797Y046343D03*
X031345Y029188D03*
X031697Y043543D03*
X035397Y064243D03*
X035497Y018243D03*
X036097Y043343D03*
X039997Y046743D03*
X041397Y052543D03*
X042897Y046743D03*
X044097Y029243D03*
X044547Y052543D03*
X045797Y046743D03*
X047697Y052543D03*
X048397Y029243D03*
X055397Y054143D03*
X055697Y037843D03*
Y041243D03*
X056497Y018243D03*
X061097Y024243D03*
X061297Y038043D03*
X061897Y046843D03*
X063997Y040243D03*
X066497Y045043D03*
X068340Y035293D03*
X070497Y017843D03*
X078697Y041343D03*
X082197Y025543D03*
X083397Y035343D03*
X085697Y022018D03*
X091204Y031314D03*
X091497Y018143D03*
X094397Y057043D03*
X095197Y064643D03*
X098197Y057043D03*
X098397Y064643D03*
X101597D03*
X101997Y057043D03*
X105497Y017843D03*
M02*