G04*
G04 #@! TF.GenerationSoftware,Altium Limited,Altium Designer,21.6.4 (81)*
G04*
G04 Layer_Color=16711935*
%FSLAX25Y25*%
%MOIN*%
G70*
G04*
G04 #@! TF.SameCoordinates,229126BB-2D6E-4CE4-B507-F74EAE748698*
G04*
G04*
G04 #@! TF.FilePolarity,Positive*
G04*
G01*
G75*
%ADD69C,0.00051*%
%ADD70C,0.00050*%
D69*
X105118Y231102D02*
X105185Y230075D01*
X105386Y229064D01*
X105718Y228089D01*
X106173Y227165D01*
X106745Y226309D01*
X107424Y225535D01*
X108199Y224855D01*
X109055Y224283D01*
X109979Y223828D01*
X110954Y223497D01*
X111964Y223296D01*
X112992Y223228D01*
X144488D02*
X145516Y223296D01*
X146526Y223497D01*
X147501Y223828D01*
X148425Y224283D01*
X149282Y224855D01*
X150056Y225535D01*
X150735Y226309D01*
X151307Y227165D01*
X151763Y228089D01*
X152094Y229064D01*
X152295Y230075D01*
X152362Y231102D01*
X47244Y287402D02*
X105118D01*
Y231102D02*
Y287402D01*
X112992Y223228D02*
X144488D01*
X152362Y287402D02*
X523622D01*
X152362Y231102D02*
Y287402D01*
D70*
X100394Y43307D02*
X100329Y44314D01*
X100136Y45304D01*
X99818Y46262D01*
X99380Y47171D01*
X98830Y48017D01*
X98176Y48785D01*
X97429Y49463D01*
X96601Y50041D01*
X95707Y50507D01*
X94760Y50856D01*
X93776Y51080D01*
X92772Y51177D01*
X91764Y51145D01*
X90768Y50984D01*
X89800Y50697D01*
X88878Y50288D01*
X88015Y49765D01*
X87226Y49136D01*
X86524Y48411D01*
X85921Y47603D01*
X85425Y46723D01*
X85047Y45788D01*
X84791Y44812D01*
X84662Y43812D01*
Y42803D01*
X84791Y41802D01*
X85047Y40826D01*
X85425Y39891D01*
X85921Y39011D01*
X86524Y38203D01*
X87226Y37478D01*
X88015Y36849D01*
X88878Y36326D01*
X89800Y35918D01*
X90768Y35631D01*
X91764Y35469D01*
X92772Y35437D01*
X93776Y35534D01*
X94760Y35759D01*
X95707Y36107D01*
X96601Y36574D01*
X97429Y37151D01*
X98176Y37829D01*
X98830Y38598D01*
X99380Y39443D01*
X99818Y40352D01*
X100136Y41310D01*
X100329Y42300D01*
X100394Y43307D01*
X486221Y43307D02*
X486156Y44314D01*
X485963Y45304D01*
X485645Y46262D01*
X485207Y47171D01*
X484657Y48017D01*
X484003Y48785D01*
X483256Y49463D01*
X482428Y50041D01*
X481534Y50507D01*
X480587Y50856D01*
X479603Y51080D01*
X478599Y51177D01*
X477590Y51145D01*
X476594Y50984D01*
X475627Y50697D01*
X474704Y50288D01*
X473842Y49765D01*
X473053Y49136D01*
X472351Y48411D01*
X471747Y47603D01*
X471252Y46723D01*
X470874Y45788D01*
X470618Y44812D01*
X470489Y43812D01*
Y42803D01*
X470618Y41802D01*
X470874Y40826D01*
X471252Y39891D01*
X471747Y39011D01*
X472351Y38203D01*
X473053Y37478D01*
X473842Y36849D01*
X474704Y36326D01*
X475627Y35918D01*
X476594Y35631D01*
X477590Y35469D01*
X478599Y35437D01*
X479603Y35534D01*
X480587Y35759D01*
X481534Y36107D01*
X482428Y36574D01*
X483256Y37151D01*
X484003Y37829D01*
X484657Y38598D01*
X485207Y39443D01*
X485645Y40352D01*
X485963Y41310D01*
X486156Y42300D01*
X486221Y43307D01*
Y153543D02*
X486156Y154550D01*
X485963Y155541D01*
X485645Y156498D01*
X485207Y157407D01*
X484657Y158253D01*
X484003Y159021D01*
X483256Y159699D01*
X482428Y160277D01*
X481534Y160743D01*
X480587Y161092D01*
X479603Y161316D01*
X478599Y161413D01*
X477590Y161381D01*
X476594Y161220D01*
X475627Y160933D01*
X474704Y160524D01*
X473842Y160001D01*
X473053Y159372D01*
X472351Y158648D01*
X471747Y157839D01*
X471252Y156960D01*
X470874Y156025D01*
X470618Y155049D01*
X470489Y154048D01*
Y153039D01*
X470618Y152038D01*
X470874Y151062D01*
X471252Y150127D01*
X471747Y149248D01*
X472351Y148439D01*
X473053Y147714D01*
X473842Y147085D01*
X474704Y146562D01*
X475627Y146154D01*
X476594Y145867D01*
X477590Y145706D01*
X478599Y145673D01*
X479603Y145770D01*
X480587Y145995D01*
X481534Y146343D01*
X482428Y146810D01*
X483256Y147387D01*
X484003Y148065D01*
X484657Y148834D01*
X485207Y149679D01*
X485645Y150588D01*
X485963Y151546D01*
X486156Y152536D01*
X486221Y153543D01*
X100394Y153543D02*
X100329Y154550D01*
X100136Y155541D01*
X99818Y156498D01*
X99380Y157407D01*
X98830Y158253D01*
X98176Y159021D01*
X97429Y159699D01*
X96601Y160277D01*
X95707Y160743D01*
X94760Y161092D01*
X93776Y161316D01*
X92772Y161413D01*
X91764Y161381D01*
X90768Y161220D01*
X89800Y160933D01*
X88878Y160524D01*
X88015Y160001D01*
X87226Y159372D01*
X86524Y158648D01*
X85921Y157839D01*
X85425Y156960D01*
X85047Y156025D01*
X84791Y155049D01*
X84662Y154048D01*
Y153039D01*
X84791Y152038D01*
X85047Y151062D01*
X85425Y150127D01*
X85921Y149248D01*
X86524Y148439D01*
X87226Y147714D01*
X88015Y147085D01*
X88878Y146562D01*
X89800Y146154D01*
X90768Y145867D01*
X91764Y145706D01*
X92772Y145673D01*
X93776Y145770D01*
X94760Y145995D01*
X95707Y146343D01*
X96601Y146810D01*
X97429Y147387D01*
X98176Y148065D01*
X98830Y148834D01*
X99380Y149679D01*
X99818Y150588D01*
X100136Y151546D01*
X100329Y152536D01*
X100394Y153543D01*
X523622Y21654D02*
Y287402D01*
X47244Y21654D02*
X523622D01*
X47244D02*
Y287402D01*
M02*
