G04*
G04 #@! TF.GenerationSoftware,Altium Limited,Altium Designer,21.6.4 (81)*
G04*
G04 Layer_Color=65535*
%FSLAX25Y25*%
%MOIN*%
G70*
G04*
G04 #@! TF.SameCoordinates,229126BB-2D6E-4CE4-B507-F74EAE748698*
G04*
G04*
G04 #@! TF.FilePolarity,Positive*
G04*
G01*
G75*
%ADD10C,0.00787*%
%ADD11C,0.00394*%
%ADD12C,0.00984*%
%ADD13C,0.01575*%
%ADD14C,0.00787*%
%ADD15C,0.01000*%
D10*
X271260Y146161D02*
X270472D01*
X271260D01*
X134252Y199213D02*
X133858D01*
X134252D01*
X133858D01*
X198504Y133760D02*
Y140256D01*
X198268Y141634D02*
X219055D01*
Y160728D01*
X198268D02*
X219055D01*
X198268Y141634D02*
Y160728D01*
X219409Y70157D02*
X229410D01*
X219409Y110158D02*
X239803D01*
X391339Y193701D02*
X400787D01*
X391339Y185827D02*
X400787D01*
X158071Y228937D02*
Y235236D01*
X183661D01*
Y228937D02*
Y235236D01*
X366449Y131559D02*
Y176441D01*
X347551Y131559D02*
Y176441D01*
X362118D02*
X366449D01*
X347551D02*
X351882D01*
X347551Y131559D02*
X351882D01*
X362118D02*
X366449D01*
X446850Y94488D02*
Y102362D01*
X399606Y94488D02*
Y102362D01*
X446850Y74803D02*
Y82677D01*
X399606Y74803D02*
X446850D01*
X399606D02*
Y82677D01*
X446850Y114173D02*
Y122047D01*
X399606D02*
X446850D01*
X399606Y114173D02*
Y122047D01*
X309055Y94488D02*
Y102362D01*
X261811Y94488D02*
Y102362D01*
X309055Y74803D02*
Y82677D01*
X261811Y74803D02*
X309055D01*
X261811D02*
Y82677D01*
X309055Y114173D02*
Y122047D01*
X261811D02*
X309055D01*
X261811Y114173D02*
Y122047D01*
X171260Y94488D02*
Y102362D01*
X124016Y94488D02*
Y102362D01*
X171260Y74803D02*
Y82677D01*
X124016Y74803D02*
X171260D01*
X124016D02*
Y82677D01*
X171260Y114173D02*
Y122047D01*
X124016D02*
X171260D01*
X124016Y114173D02*
Y122047D01*
D11*
X405905Y189764D02*
X405512D01*
X405905D01*
X389764Y108268D02*
X389370D01*
X389764D01*
X251969D02*
X251575D01*
X251969D01*
X114173D02*
X113779D01*
X114173D01*
X144095Y218898D02*
Y222835D01*
Y218898D02*
Y222835D01*
X113386D02*
X144095D01*
X113386D02*
X144095D01*
X113386Y219882D02*
Y222835D01*
Y219882D02*
Y222835D01*
D12*
X184350Y246850D02*
X183612Y247277D01*
Y246424D01*
X184350Y246850D01*
D13*
X363440Y185909D02*
X362697Y186339D01*
Y185480D01*
X363440Y185909D01*
D14*
X342618Y172835D02*
D03*
D15*
X220260Y120322D02*
X218261D01*
X219261D01*
Y115323D01*
X218261Y114324D01*
X217261D01*
X216262Y115323D01*
X226258Y114324D02*
X222259D01*
X226258Y118323D01*
Y119322D01*
X225259Y120322D01*
X223259D01*
X222259Y119322D01*
X348200Y196198D02*
X352199Y190200D01*
Y196198D02*
X348200Y190200D01*
X354198D02*
X356197D01*
X355198D01*
Y196198D01*
X354198Y195198D01*
X392599Y134198D02*
X391599Y135198D01*
X389600D01*
X388600Y134198D01*
Y133199D01*
X389600Y132199D01*
X391599D01*
X392599Y131199D01*
Y130200D01*
X391599Y129200D01*
X389600D01*
X388600Y130200D01*
X394598Y134198D02*
X395598Y135198D01*
X397597D01*
X398597Y134198D01*
Y133199D01*
X397597Y132199D01*
X396597D01*
X397597D01*
X398597Y131199D01*
Y130200D01*
X397597Y129200D01*
X395598D01*
X394598Y130200D01*
X254799Y134198D02*
X253799Y135198D01*
X251800D01*
X250800Y134198D01*
Y133199D01*
X251800Y132199D01*
X253799D01*
X254799Y131199D01*
Y130200D01*
X253799Y129200D01*
X251800D01*
X250800Y130200D01*
X260797Y129200D02*
X256798D01*
X260797Y133199D01*
Y134198D01*
X259797Y135198D01*
X257798D01*
X256798Y134198D01*
X116999D02*
X115999Y135198D01*
X114000D01*
X113000Y134198D01*
Y133199D01*
X114000Y132199D01*
X115999D01*
X116999Y131199D01*
Y130200D01*
X115999Y129200D01*
X114000D01*
X113000Y130200D01*
X118998Y129200D02*
X120997D01*
X119998D01*
Y135198D01*
X118998Y134198D01*
X388565Y162749D02*
Y168747D01*
X391564D01*
X392564Y167747D01*
Y165748D01*
X391564Y164748D01*
X388565D01*
X390565D02*
X392564Y162749D01*
X394564D02*
X396563D01*
X395563D01*
Y168747D01*
X394564Y167747D01*
X403561Y168747D02*
X401561Y167747D01*
X399562Y165748D01*
Y163749D01*
X400562Y162749D01*
X402561D01*
X403561Y163749D01*
Y164748D01*
X402561Y165748D01*
X399562D01*
X364550Y207631D02*
Y213629D01*
X367549D01*
X368548Y212629D01*
Y210630D01*
X367549Y209630D01*
X364550D01*
X366549D02*
X368548Y207631D01*
X370548D02*
X372547D01*
X371547D01*
Y213629D01*
X370548Y212629D01*
X379545Y213629D02*
X375546D01*
Y210630D01*
X377545Y211630D01*
X378545D01*
X379545Y210630D01*
Y208631D01*
X378545Y207631D01*
X376546D01*
X375546Y208631D01*
X369274Y111962D02*
Y117960D01*
X372273D01*
X373273Y116960D01*
Y114961D01*
X372273Y113961D01*
X369274D01*
X371273D02*
X373273Y111962D01*
X375272D02*
X377272D01*
X376272D01*
Y117960D01*
X375272Y116960D01*
X383270Y111962D02*
Y117960D01*
X380271Y114961D01*
X384269D01*
X353526Y90702D02*
Y96700D01*
X356525D01*
X357525Y95700D01*
Y93701D01*
X356525Y92701D01*
X353526D01*
X355525D02*
X357525Y90702D01*
X359524D02*
X361524D01*
X360524D01*
Y96700D01*
X359524Y95700D01*
X364523D02*
X365522Y96700D01*
X367522D01*
X368521Y95700D01*
Y94700D01*
X367522Y93701D01*
X366522D01*
X367522D01*
X368521Y92701D01*
Y91701D01*
X367522Y90702D01*
X365522D01*
X364523Y91701D01*
X332266Y101332D02*
Y107330D01*
X335265D01*
X336265Y106330D01*
Y104331D01*
X335265Y103331D01*
X332266D01*
X334266D02*
X336265Y101332D01*
X338264D02*
X340264D01*
X339264D01*
Y107330D01*
X338264Y106330D01*
X347261Y101332D02*
X343263D01*
X347261Y105330D01*
Y106330D01*
X346262Y107330D01*
X344262D01*
X343263Y106330D01*
X323030Y119048D02*
Y125046D01*
X326029D01*
X327028Y124047D01*
Y122047D01*
X326029Y121048D01*
X323030D01*
X325029D02*
X327028Y119048D01*
X329028D02*
X331027D01*
X330027D01*
Y125046D01*
X329028Y124047D01*
X334026Y119048D02*
X336026D01*
X335026D01*
Y125046D01*
X334026Y124047D01*
X127542Y136371D02*
Y142369D01*
X130541D01*
X131541Y141369D01*
Y139370D01*
X130541Y138370D01*
X127542D01*
X129541D02*
X131541Y136371D01*
X133540D02*
X135539D01*
X134539D01*
Y142369D01*
X133540Y141369D01*
X138538D02*
X139538Y142369D01*
X141537D01*
X142537Y141369D01*
Y137371D01*
X141537Y136371D01*
X139538D01*
X138538Y137371D01*
Y141369D01*
X149500Y136200D02*
Y142198D01*
X152499D01*
X153499Y141198D01*
Y139199D01*
X152499Y138199D01*
X149500D01*
X151499D02*
X153499Y136200D01*
X155498Y137200D02*
X156498Y136200D01*
X158497D01*
X159497Y137200D01*
Y141198D01*
X158497Y142198D01*
X156498D01*
X155498Y141198D01*
Y140199D01*
X156498Y139199D01*
X159497D01*
X329800Y181400D02*
Y187398D01*
X332799D01*
X333799Y186398D01*
Y184399D01*
X332799Y183399D01*
X329800D01*
X331799D02*
X333799Y181400D01*
X335798Y186398D02*
X336798Y187398D01*
X338797D01*
X339797Y186398D01*
Y185399D01*
X338797Y184399D01*
X339797Y183399D01*
Y182400D01*
X338797Y181400D01*
X336798D01*
X335798Y182400D01*
Y183399D01*
X336798Y184399D01*
X335798Y185399D01*
Y186398D01*
X336798Y184399D02*
X338797D01*
X178073Y141489D02*
Y147487D01*
X181071D01*
X182071Y146487D01*
Y144488D01*
X181071Y143489D01*
X178073D01*
X180072D02*
X182071Y141489D01*
X187070D02*
Y147487D01*
X184071Y144488D01*
X188069D01*
X185947Y117473D02*
Y123471D01*
X188945D01*
X189945Y122472D01*
Y120472D01*
X188945Y119473D01*
X185947D01*
X187946D02*
X189945Y117473D01*
X191945Y122472D02*
X192944Y123471D01*
X194944D01*
X195943Y122472D01*
Y121472D01*
X194944Y120472D01*
X193944D01*
X194944D01*
X195943Y119473D01*
Y118473D01*
X194944Y117473D01*
X192944D01*
X191945Y118473D01*
X238702Y181253D02*
Y187251D01*
X241701D01*
X242701Y186251D01*
Y184252D01*
X241701Y183252D01*
X238702D01*
X240702D02*
X242701Y181253D01*
X248699D02*
X244701D01*
X248699Y185252D01*
Y186251D01*
X247699Y187251D01*
X245700D01*
X244701Y186251D01*
X238915Y172985D02*
Y178983D01*
X241914D01*
X242913Y177984D01*
Y175984D01*
X241914Y174985D01*
X238915D01*
X240914D02*
X242913Y172985D01*
X244913D02*
X246912D01*
X245912D01*
Y178983D01*
X244913Y177984D01*
X104724Y206936D02*
X102725D01*
X103725D01*
Y201938D01*
X102725Y200938D01*
X101725D01*
X100726Y201938D01*
X106724Y200938D02*
X108723D01*
X107723D01*
Y206936D01*
X106724Y205936D01*
X191321Y177409D02*
X193321D01*
X192321D01*
Y171410D01*
X191321D01*
X193321D01*
X200318Y176409D02*
X199319Y177409D01*
X197319D01*
X196320Y176409D01*
Y172410D01*
X197319Y171410D01*
X199319D01*
X200318Y172410D01*
X202318Y176409D02*
X203317Y177409D01*
X205317D01*
X206316Y176409D01*
Y175409D01*
X205317Y174409D01*
X204317D01*
X205317D01*
X206316Y173410D01*
Y172410D01*
X205317Y171410D01*
X203317D01*
X202318Y172410D01*
X263762Y207330D02*
X265762D01*
X264762D01*
Y201332D01*
X263762D01*
X265762D01*
X272759Y206330D02*
X271760Y207330D01*
X269760D01*
X268761Y206330D01*
Y202331D01*
X269760Y201332D01*
X271760D01*
X272759Y202331D01*
X278757Y201332D02*
X274759D01*
X278757Y205330D01*
Y206330D01*
X277758Y207330D01*
X275758D01*
X274759Y206330D01*
X157400Y258098D02*
X159399D01*
X158400D01*
Y252100D01*
X157400D01*
X159399D01*
X166397Y257098D02*
X165397Y258098D01*
X163398D01*
X162398Y257098D01*
Y253100D01*
X163398Y252100D01*
X165397D01*
X166397Y253100D01*
X168396Y252100D02*
X170396D01*
X169396D01*
Y258098D01*
X168396Y257098D01*
X368155Y201999D02*
X367155Y202999D01*
X365156D01*
X364156Y201999D01*
Y198001D01*
X365156Y197001D01*
X367155D01*
X368155Y198001D01*
X370154Y197001D02*
X372153D01*
X371154D01*
Y202999D01*
X370154Y201999D01*
X375152D02*
X376152Y202999D01*
X378151D01*
X379151Y201999D01*
Y201000D01*
X378151Y200000D01*
X379151Y199000D01*
Y198001D01*
X378151Y197001D01*
X376152D01*
X375152Y198001D01*
Y199000D01*
X376152Y200000D01*
X375152Y201000D01*
Y201999D01*
X376152Y200000D02*
X378151D01*
X358706Y105936D02*
X357706Y106936D01*
X355707D01*
X354707Y105936D01*
Y101938D01*
X355707Y100938D01*
X357706D01*
X358706Y101938D01*
X360705Y100938D02*
X362705D01*
X361705D01*
Y106936D01*
X360705Y105936D01*
X365704Y106936D02*
X369702D01*
Y105936D01*
X365704Y101938D01*
Y100938D01*
X167799Y140598D02*
X166799Y141598D01*
X164800D01*
X163800Y140598D01*
Y136600D01*
X164800Y135600D01*
X166799D01*
X167799Y136600D01*
X169798Y135600D02*
X171797D01*
X170798D01*
Y141598D01*
X169798Y140598D01*
X178795Y141598D02*
X176796Y140598D01*
X174796Y138599D01*
Y136600D01*
X175796Y135600D01*
X177796D01*
X178795Y136600D01*
Y137599D01*
X177796Y138599D01*
X174796D01*
X345320Y115385D02*
X344320Y116385D01*
X342321D01*
X341321Y115385D01*
Y111387D01*
X342321Y110387D01*
X344320D01*
X345320Y111387D01*
X347319Y110387D02*
X349319D01*
X348319D01*
Y116385D01*
X347319Y115385D01*
X356316Y116385D02*
X352318D01*
Y113386D01*
X354317Y114385D01*
X355317D01*
X356316Y113386D01*
Y111387D01*
X355317Y110387D01*
X353317D01*
X352318Y111387D01*
X373273Y167747D02*
X372273Y168747D01*
X370274D01*
X369274Y167747D01*
Y163749D01*
X370274Y162749D01*
X372273D01*
X373273Y163749D01*
X375272Y162749D02*
X377272D01*
X376272D01*
Y168747D01*
X375272Y167747D01*
X383270Y162749D02*
Y168747D01*
X380271Y165748D01*
X384269D01*
X373399Y145298D02*
X372399Y146298D01*
X370400D01*
X369400Y145298D01*
Y141300D01*
X370400Y140300D01*
X372399D01*
X373399Y141300D01*
X375398Y140300D02*
X377397D01*
X376398D01*
Y146298D01*
X375398Y145298D01*
X380396D02*
X381396Y146298D01*
X383396D01*
X384395Y145298D01*
Y144299D01*
X383396Y143299D01*
X382396D01*
X383396D01*
X384395Y142299D01*
Y141300D01*
X383396Y140300D01*
X381396D01*
X380396Y141300D01*
X177997Y155936D02*
X176997Y156936D01*
X174998D01*
X173998Y155936D01*
Y151938D01*
X174998Y150938D01*
X176997D01*
X177997Y151938D01*
X179997Y150938D02*
X181996D01*
X180996D01*
Y156936D01*
X179997Y155936D01*
X188994Y150938D02*
X184995D01*
X188994Y154937D01*
Y155936D01*
X187994Y156936D01*
X185995D01*
X184995Y155936D01*
X247501Y194519D02*
X246501Y195519D01*
X244502D01*
X243502Y194519D01*
Y190520D01*
X244502Y189521D01*
X246501D01*
X247501Y190520D01*
X249500Y189521D02*
X251500D01*
X250500D01*
Y195519D01*
X249500Y194519D01*
X254499Y189521D02*
X256498D01*
X255498D01*
Y195519D01*
X254499Y194519D01*
X229966Y197669D02*
X228966Y198668D01*
X226967D01*
X225967Y197669D01*
Y193670D01*
X226967Y192670D01*
X228966D01*
X229966Y193670D01*
X231965Y192670D02*
X233964D01*
X232965D01*
Y198668D01*
X231965Y197669D01*
X236963D02*
X237963Y198668D01*
X239963D01*
X240962Y197669D01*
Y193670D01*
X239963Y192670D01*
X237963D01*
X236963Y193670D01*
Y197669D01*
X315142Y155149D02*
X314142Y156149D01*
X312143D01*
X311143Y155149D01*
Y151150D01*
X312143Y150151D01*
X314142D01*
X315142Y151150D01*
X317141D02*
X318141Y150151D01*
X320140D01*
X321140Y151150D01*
Y155149D01*
X320140Y156149D01*
X318141D01*
X317141Y155149D01*
Y154149D01*
X318141Y153150D01*
X321140D01*
X290499Y197498D02*
X289499Y198498D01*
X287500D01*
X286500Y197498D01*
Y193500D01*
X287500Y192500D01*
X289499D01*
X290499Y193500D01*
X292498Y197498D02*
X293498Y198498D01*
X295497D01*
X296497Y197498D01*
Y196499D01*
X295497Y195499D01*
X296497Y194499D01*
Y193500D01*
X295497Y192500D01*
X293498D01*
X292498Y193500D01*
Y194499D01*
X293498Y195499D01*
X292498Y196499D01*
Y197498D01*
X293498Y195499D02*
X295497D01*
X271835Y196487D02*
X270835Y197487D01*
X268836D01*
X267836Y196487D01*
Y192489D01*
X268836Y191489D01*
X270835D01*
X271835Y192489D01*
X273834Y197487D02*
X277833D01*
Y196487D01*
X273834Y192489D01*
Y191489D01*
X228528Y163417D02*
X227528Y164416D01*
X225529D01*
X224529Y163417D01*
Y159418D01*
X225529Y158418D01*
X227528D01*
X228528Y159418D01*
X234526Y164416D02*
X232527Y163417D01*
X230527Y161417D01*
Y159418D01*
X231527Y158418D01*
X233526D01*
X234526Y159418D01*
Y160418D01*
X233526Y161417D01*
X230527D01*
X239158Y206330D02*
X238158Y207330D01*
X236159D01*
X235159Y206330D01*
Y202331D01*
X236159Y201332D01*
X238158D01*
X239158Y202331D01*
X245156Y207330D02*
X241157D01*
Y204331D01*
X243157Y205330D01*
X244156D01*
X245156Y204331D01*
Y202331D01*
X244156Y201332D01*
X242157D01*
X241157Y202331D01*
X297426Y134283D02*
X296426Y135283D01*
X294426D01*
X293427Y134283D01*
Y130284D01*
X294426Y129284D01*
X296426D01*
X297426Y130284D01*
X302424Y129284D02*
Y135283D01*
X299425Y132283D01*
X303424D01*
X276559Y131527D02*
X275560Y132527D01*
X273560D01*
X272561Y131527D01*
Y127528D01*
X273560Y126529D01*
X275560D01*
X276559Y127528D01*
X278559Y131527D02*
X279558Y132527D01*
X281558D01*
X282558Y131527D01*
Y130527D01*
X281558Y129528D01*
X280558D01*
X281558D01*
X282558Y128528D01*
Y127528D01*
X281558Y126529D01*
X279558D01*
X278559Y127528D01*
X254906Y148456D02*
X253906Y149456D01*
X251907D01*
X250907Y148456D01*
Y144457D01*
X251907Y143458D01*
X253906D01*
X254906Y144457D01*
X260904Y143458D02*
X256905D01*
X260904Y147456D01*
Y148456D01*
X259904Y149456D01*
X257905D01*
X256905Y148456D01*
X322047Y188220D02*
X321048Y189219D01*
X319048D01*
X318049Y188220D01*
Y184221D01*
X319048Y183221D01*
X321048D01*
X322047Y184221D01*
X324047Y183221D02*
X326046D01*
X325046D01*
Y189219D01*
X324047Y188220D01*
M02*
