G04*
G04 #@! TF.GenerationSoftware,Altium Limited,Altium Designer,21.6.4 (81)*
G04*
G04 Layer_Physical_Order=1*
G04 Layer_Color=255*
%FSLAX25Y25*%
%MOIN*%
G70*
G04*
G04 #@! TF.SameCoordinates,229126BB-2D6E-4CE4-B507-F74EAE748698*
G04*
G04*
G04 #@! TF.FilePolarity,Positive*
G04*
G01*
G75*
%ADD10C,0.00787*%
%ADD12C,0.00984*%
%ADD13C,0.01575*%
%ADD15C,0.01000*%
%ADD41R,0.04134X0.04134*%
%ADD42R,0.01968X0.01575*%
%ADD43R,0.00787X0.03347*%
%ADD44R,0.03347X0.00787*%
%ADD45R,0.12598X0.12598*%
%ADD46R,0.02441X0.02559*%
%ADD47R,0.02559X0.02441*%
%ADD48R,0.02559X0.03543*%
%ADD49R,0.01654X0.02441*%
%ADD50R,0.03543X0.02559*%
%ADD51R,0.01575X0.05315*%
%ADD52R,0.05709X0.05118*%
%ADD53R,0.06299X0.05512*%
%ADD54R,0.07480X0.07480*%
%ADD55R,0.02559X0.06496*%
%ADD56R,0.22205X0.03780*%
%ADD57R,0.02165X0.05906*%
%ADD58R,0.03937X0.11221*%
%ADD59R,0.21850X0.23425*%
%ADD60R,0.08268X0.22047*%
%ADD61R,0.07874X0.07087*%
%ADD62C,0.01968*%
%ADD63C,0.01181*%
%ADD64C,0.02424*%
%ADD65C,0.09843*%
%ADD66C,0.07087*%
%ADD67C,0.05000*%
%ADD68C,0.17717*%
G36*
X523622Y21654D02*
X47244D01*
Y287402D01*
X105118D01*
Y231102D01*
X105156Y230331D01*
X105457Y228817D01*
X106048Y227391D01*
X106905Y226107D01*
X107997Y225016D01*
X109280Y224158D01*
X110706Y223567D01*
X112220Y223266D01*
X112992Y223228D01*
X144488D01*
X145260Y223266D01*
X146774Y223567D01*
X148200Y224158D01*
X149483Y225016D01*
X150575Y226107D01*
X151432Y227391D01*
X152023Y228817D01*
X152324Y230331D01*
X152362Y231102D01*
Y287402D01*
X523622D01*
Y21654D01*
D02*
G37*
%LPC*%
G36*
X364673Y270265D02*
Y266248D01*
X368690D01*
X368600Y266934D01*
X368142Y268039D01*
X367413Y268988D01*
X366464Y269717D01*
X365359Y270174D01*
X364673Y270265D01*
D02*
G37*
G36*
X226878D02*
Y266248D01*
X230895D01*
X230804Y266934D01*
X230346Y268039D01*
X229618Y268988D01*
X228669Y269717D01*
X227564Y270174D01*
X226878Y270265D01*
D02*
G37*
G36*
X89083Y270265D02*
Y266248D01*
X93099D01*
X93009Y266934D01*
X92551Y268039D01*
X91823Y268988D01*
X90874Y269717D01*
X89769Y270174D01*
X89083Y270265D01*
D02*
G37*
G36*
X502468D02*
Y266248D01*
X506485D01*
X506395Y266934D01*
X505937Y268039D01*
X505209Y268988D01*
X504260Y269717D01*
X503155Y270174D01*
X502468Y270265D01*
D02*
G37*
G36*
X501469Y270265D02*
X500782Y270174D01*
X499677Y269717D01*
X498728Y268988D01*
X498000Y268039D01*
X497542Y266934D01*
X497452Y266248D01*
X501469D01*
Y270265D01*
D02*
G37*
G36*
X88083Y270265D02*
X87397Y270174D01*
X86291Y269717D01*
X85342Y268988D01*
X84614Y268039D01*
X84156Y266934D01*
X84066Y266248D01*
X88083D01*
Y270265D01*
D02*
G37*
G36*
X225878D02*
X225192Y270174D01*
X224087Y269717D01*
X223138Y268988D01*
X222409Y268039D01*
X221952Y266934D01*
X221861Y266248D01*
X225878D01*
Y270265D01*
D02*
G37*
G36*
X363673D02*
X362987Y270174D01*
X361882Y269717D01*
X360933Y268988D01*
X360205Y268039D01*
X359747Y266934D01*
X359657Y266248D01*
X363673D01*
Y270265D01*
D02*
G37*
G36*
X482283Y269917D02*
X481204Y269776D01*
X480199Y269359D01*
X479335Y268696D01*
X478673Y267833D01*
X478256Y266827D01*
X478114Y265748D01*
X478256Y264669D01*
X478673Y263663D01*
X479335Y262800D01*
X480199Y262137D01*
X481204Y261721D01*
X482283Y261578D01*
X483363Y261721D01*
X484368Y262137D01*
X485232Y262800D01*
X485894Y263663D01*
X486311Y264669D01*
X486453Y265748D01*
X486311Y266827D01*
X485894Y267833D01*
X485232Y268696D01*
X484368Y269359D01*
X483363Y269776D01*
X482283Y269917D01*
D02*
G37*
G36*
X344488D02*
X343409Y269776D01*
X342403Y269359D01*
X341540Y268696D01*
X340877Y267833D01*
X340461Y266827D01*
X340319Y265748D01*
X340461Y264669D01*
X340877Y263663D01*
X341540Y262800D01*
X342403Y262137D01*
X343409Y261721D01*
X344488Y261578D01*
X345567Y261721D01*
X346573Y262137D01*
X347436Y262800D01*
X348099Y263663D01*
X348516Y264669D01*
X348658Y265748D01*
X348516Y266827D01*
X348099Y267833D01*
X347436Y268696D01*
X346573Y269359D01*
X345567Y269776D01*
X344488Y269917D01*
D02*
G37*
G36*
X206693D02*
X205614Y269776D01*
X204608Y269359D01*
X203745Y268696D01*
X203082Y267833D01*
X202665Y266827D01*
X202523Y265748D01*
X202665Y264669D01*
X203082Y263663D01*
X203745Y262800D01*
X204608Y262137D01*
X205614Y261721D01*
X206693Y261578D01*
X207772Y261721D01*
X208778Y262137D01*
X209641Y262800D01*
X210304Y263663D01*
X210720Y264669D01*
X210862Y265748D01*
X210720Y266827D01*
X210304Y267833D01*
X209641Y268696D01*
X208778Y269359D01*
X207772Y269776D01*
X206693Y269917D01*
D02*
G37*
G36*
X78740D02*
X77661Y269776D01*
X76655Y269359D01*
X75792Y268696D01*
X75129Y267833D01*
X74713Y266827D01*
X74571Y265748D01*
X74713Y264669D01*
X75129Y263663D01*
X75792Y262800D01*
X76655Y262137D01*
X77661Y261721D01*
X78740Y261578D01*
X79819Y261721D01*
X80825Y262137D01*
X81688Y262800D01*
X82351Y263663D01*
X82768Y264669D01*
X82910Y265748D01*
X82768Y266827D01*
X82351Y267833D01*
X81688Y268696D01*
X80825Y269359D01*
X79819Y269776D01*
X78740Y269917D01*
D02*
G37*
G36*
X68898D02*
X67818Y269776D01*
X66813Y269359D01*
X65949Y268696D01*
X65287Y267833D01*
X64870Y266827D01*
X64728Y265748D01*
X64870Y264669D01*
X65287Y263663D01*
X65949Y262800D01*
X66813Y262137D01*
X67818Y261721D01*
X68898Y261578D01*
X69977Y261721D01*
X70982Y262137D01*
X71846Y262800D01*
X72509Y263663D01*
X72925Y264669D01*
X73067Y265748D01*
X72925Y266827D01*
X72509Y267833D01*
X71846Y268696D01*
X70982Y269359D01*
X69977Y269776D01*
X68898Y269917D01*
D02*
G37*
G36*
X501469Y265248D02*
X497452D01*
X497542Y264562D01*
X498000Y263457D01*
X498728Y262508D01*
X499677Y261779D01*
X500782Y261322D01*
X501469Y261231D01*
Y265248D01*
D02*
G37*
G36*
X230895D02*
X226878D01*
Y261231D01*
X227564Y261322D01*
X228669Y261779D01*
X229618Y262508D01*
X230346Y263457D01*
X230804Y264562D01*
X230895Y265248D01*
D02*
G37*
G36*
X368690D02*
X364673D01*
Y261231D01*
X365359Y261322D01*
X366464Y261779D01*
X367413Y262508D01*
X368142Y263457D01*
X368600Y264562D01*
X368690Y265248D01*
D02*
G37*
G36*
X93099D02*
X89083D01*
Y261231D01*
X89769Y261322D01*
X90874Y261779D01*
X91823Y262508D01*
X92551Y263457D01*
X93009Y264562D01*
X93099Y265248D01*
D02*
G37*
G36*
X88083D02*
X84066D01*
X84156Y264562D01*
X84614Y263457D01*
X85342Y262508D01*
X86291Y261779D01*
X87397Y261322D01*
X88083Y261231D01*
Y265248D01*
D02*
G37*
G36*
X363673D02*
X359657D01*
X359747Y264562D01*
X360205Y263457D01*
X360933Y262508D01*
X361882Y261779D01*
X362987Y261322D01*
X363673Y261231D01*
Y265248D01*
D02*
G37*
G36*
X225878D02*
X221861D01*
X221952Y264562D01*
X222409Y263457D01*
X223138Y262508D01*
X224087Y261779D01*
X225192Y261322D01*
X225878Y261231D01*
Y265248D01*
D02*
G37*
G36*
X506485D02*
X502468D01*
Y261231D01*
X503155Y261322D01*
X504260Y261779D01*
X505209Y262508D01*
X505937Y263457D01*
X506395Y264562D01*
X506485Y265248D01*
D02*
G37*
G36*
X182850Y248933D02*
X180382D01*
Y242823D01*
X182850D01*
Y248933D01*
D02*
G37*
G36*
X179382D02*
X176913D01*
Y242823D01*
X179382D01*
Y248933D01*
D02*
G37*
G36*
X182850Y241823D02*
X180382D01*
Y235713D01*
X182850D01*
Y241823D01*
D02*
G37*
G36*
X179382D02*
X176913D01*
Y235713D01*
X179382D01*
Y241823D01*
D02*
G37*
G36*
X510827Y241780D02*
X509388Y241590D01*
X508047Y241035D01*
X506896Y240152D01*
X506012Y239000D01*
X505457Y237659D01*
X505267Y236221D01*
X505457Y234782D01*
X506012Y233441D01*
X506896Y232289D01*
X508047Y231406D01*
X509388Y230851D01*
X510827Y230661D01*
X512266Y230851D01*
X513607Y231406D01*
X514758Y232289D01*
X515641Y233441D01*
X516197Y234782D01*
X516386Y236221D01*
X516197Y237659D01*
X515641Y239000D01*
X514758Y240152D01*
X513607Y241035D01*
X512266Y241590D01*
X510827Y241780D01*
D02*
G37*
G36*
X373031D02*
X371593Y241590D01*
X370252Y241035D01*
X369100Y240152D01*
X368217Y239000D01*
X367662Y237659D01*
X367472Y236221D01*
X367662Y234782D01*
X368217Y233441D01*
X369100Y232289D01*
X370252Y231406D01*
X371593Y230851D01*
X373031Y230661D01*
X374470Y230851D01*
X375811Y231406D01*
X376963Y232289D01*
X377846Y233441D01*
X378401Y234782D01*
X378591Y236221D01*
X378401Y237659D01*
X377846Y239000D01*
X376963Y240152D01*
X375811Y241035D01*
X374470Y241590D01*
X373031Y241780D01*
D02*
G37*
G36*
X335630D02*
X334191Y241590D01*
X332850Y241035D01*
X331699Y240152D01*
X330815Y239000D01*
X330260Y237659D01*
X330071Y236221D01*
X330260Y234782D01*
X330815Y233441D01*
X331699Y232289D01*
X332850Y231406D01*
X334191Y230851D01*
X335630Y230661D01*
X337069Y230851D01*
X338410Y231406D01*
X339561Y232289D01*
X340444Y233441D01*
X341000Y234782D01*
X341189Y236221D01*
X341000Y237659D01*
X340444Y239000D01*
X339561Y240152D01*
X338410Y241035D01*
X337069Y241590D01*
X335630Y241780D01*
D02*
G37*
G36*
X235236D02*
X233797Y241590D01*
X232456Y241035D01*
X231305Y240152D01*
X230422Y239000D01*
X229866Y237659D01*
X229677Y236221D01*
X229866Y234782D01*
X230422Y233441D01*
X231305Y232289D01*
X232456Y231406D01*
X233797Y230851D01*
X235236Y230661D01*
X236675Y230851D01*
X238016Y231406D01*
X239167Y232289D01*
X240051Y233441D01*
X240606Y234782D01*
X240796Y236221D01*
X240606Y237659D01*
X240051Y239000D01*
X239167Y240152D01*
X238016Y241035D01*
X236675Y241590D01*
X235236Y241780D01*
D02*
G37*
G36*
X197835D02*
X196396Y241590D01*
X195055Y241035D01*
X193904Y240152D01*
X193020Y239000D01*
X192465Y237659D01*
X192275Y236221D01*
X192465Y234782D01*
X193020Y233441D01*
X193904Y232289D01*
X195055Y231406D01*
X196396Y230851D01*
X197835Y230661D01*
X199274Y230851D01*
X200614Y231406D01*
X201766Y232289D01*
X202649Y233441D01*
X203205Y234782D01*
X203394Y236221D01*
X203205Y237659D01*
X202649Y239000D01*
X201766Y240152D01*
X200614Y241035D01*
X199274Y241590D01*
X197835Y241780D01*
D02*
G37*
G36*
X97441D02*
X96002Y241590D01*
X94661Y241035D01*
X93510Y240152D01*
X92626Y239000D01*
X92071Y237659D01*
X91882Y236221D01*
X92071Y234782D01*
X92626Y233441D01*
X93510Y232289D01*
X94661Y231406D01*
X96002Y230851D01*
X97441Y230661D01*
X98880Y230851D01*
X100221Y231406D01*
X101372Y232289D01*
X102255Y233441D01*
X102811Y234782D01*
X103000Y236221D01*
X102811Y237659D01*
X102255Y239000D01*
X101372Y240152D01*
X100221Y241035D01*
X98880Y241590D01*
X97441Y241780D01*
D02*
G37*
G36*
X60039D02*
X58600Y241590D01*
X57260Y241035D01*
X56108Y240152D01*
X55225Y239000D01*
X54669Y237659D01*
X54480Y236221D01*
X54669Y234782D01*
X55225Y233441D01*
X56108Y232289D01*
X57260Y231406D01*
X58600Y230851D01*
X60039Y230661D01*
X61478Y230851D01*
X62819Y231406D01*
X63970Y232289D01*
X64854Y233441D01*
X65409Y234782D01*
X65599Y236221D01*
X65409Y237659D01*
X64854Y239000D01*
X63970Y240152D01*
X62819Y241035D01*
X61478Y241590D01*
X60039Y241780D01*
D02*
G37*
G36*
X142724Y217929D02*
Y214870D01*
X146079D01*
Y217929D01*
X142724D01*
D02*
G37*
G36*
X114756D02*
X111402D01*
Y214870D01*
X114756D01*
Y217929D01*
D02*
G37*
G36*
X146079Y213870D02*
X142724D01*
Y210811D01*
X146079D01*
Y213870D01*
D02*
G37*
G36*
X114756D02*
X111402D01*
Y210811D01*
X114756D01*
Y213870D01*
D02*
G37*
G36*
X138205Y219110D02*
X133965D01*
Y214370D01*
Y209630D01*
X138205D01*
Y210380D01*
X138370Y210811D01*
X138705Y210811D01*
X141724D01*
Y214370D01*
Y217929D01*
X138705D01*
X138370Y217929D01*
X138205Y218361D01*
Y219110D01*
D02*
G37*
G36*
X132965D02*
X124516D01*
Y214370D01*
Y209630D01*
X132965D01*
Y214370D01*
Y219110D01*
D02*
G37*
G36*
X123516D02*
X119276D01*
Y218361D01*
X119110Y217929D01*
X118776Y217929D01*
X115756D01*
Y214370D01*
Y210811D01*
X118776D01*
X119110Y210811D01*
X119276Y210380D01*
Y209630D01*
X123516D01*
Y214370D01*
Y219110D01*
D02*
G37*
G36*
X201984Y208972D02*
X199417D01*
Y206405D01*
X201984D01*
Y208972D01*
D02*
G37*
G36*
X198417D02*
X195850D01*
Y206405D01*
X198417D01*
Y208972D01*
D02*
G37*
G36*
X145488Y208480D02*
X141839D01*
Y205224D01*
X145488D01*
Y208480D01*
D02*
G37*
G36*
X120291D02*
X116642D01*
Y205224D01*
X120291D01*
Y208480D01*
D02*
G37*
G36*
X140839D02*
X137189D01*
Y205224D01*
X140839D01*
Y208480D01*
D02*
G37*
G36*
X115642D02*
X111992D01*
Y205224D01*
X115642D01*
Y208480D01*
D02*
G37*
G36*
X123122Y207496D02*
X121835D01*
Y204339D01*
X123122D01*
Y207496D01*
D02*
G37*
G36*
X173425Y248524D02*
X168307D01*
Y236122D01*
X169261D01*
Y228051D01*
X159350D01*
Y203445D01*
X169261D01*
Y200124D01*
X168699Y199693D01*
X168203Y199048D01*
X167892Y198296D01*
X167786Y197489D01*
X167892Y196682D01*
X168203Y195930D01*
X168699Y195285D01*
X169344Y194789D01*
X170096Y194478D01*
X170903Y194372D01*
X171710Y194478D01*
X172461Y194789D01*
X173107Y195285D01*
X173602Y195930D01*
X173914Y196682D01*
X174020Y197489D01*
X173914Y198296D01*
X173602Y199048D01*
X173107Y199693D01*
X172472Y200181D01*
Y203445D01*
X182382D01*
Y213749D01*
X187346D01*
X187828Y213642D01*
X187934Y212835D01*
X188245Y212083D01*
X188741Y211438D01*
X189386Y210942D01*
X189684Y210819D01*
Y208563D01*
X188976D01*
Y203248D01*
X194291D01*
Y208563D01*
X192895D01*
Y211243D01*
X193149Y211438D01*
X193644Y212083D01*
X193956Y212835D01*
X194062Y213642D01*
X193956Y214448D01*
X193644Y215200D01*
X193149Y215846D01*
X192503Y216341D01*
X191752Y216653D01*
X190945Y216759D01*
X190138Y216653D01*
X189605Y216432D01*
X189547Y216490D01*
X189026Y216838D01*
X188412Y216960D01*
X188412Y216960D01*
X182382D01*
Y228051D01*
X172472D01*
Y236122D01*
X173425D01*
Y248524D01*
D02*
G37*
G36*
X201984Y205405D02*
X199417D01*
Y202839D01*
X201984D01*
Y205405D01*
D02*
G37*
G36*
X198417D02*
X195850D01*
Y202839D01*
X198417D01*
Y205405D01*
D02*
G37*
G36*
X145488Y204224D02*
X141839D01*
Y200969D01*
X145488D01*
Y204224D01*
D02*
G37*
G36*
X140839D02*
X137189D01*
Y200969D01*
X140839D01*
Y204224D01*
D02*
G37*
G36*
X120291D02*
X116642D01*
Y200969D01*
X120291D01*
Y204224D01*
D02*
G37*
G36*
X115642D02*
X111992D01*
Y200969D01*
X115642D01*
Y204224D01*
D02*
G37*
G36*
X123122Y203339D02*
X121835D01*
Y200181D01*
X123122D01*
Y203339D01*
D02*
G37*
G36*
X257587Y203071D02*
Y200106D01*
X260551D01*
X260496Y200520D01*
X260144Y201371D01*
X259583Y202102D01*
X258852Y202663D01*
X258000Y203016D01*
X257587Y203071D01*
D02*
G37*
G36*
X256587D02*
X256173Y203016D01*
X255322Y202663D01*
X254590Y202102D01*
X254029Y201371D01*
X253677Y200520D01*
X253622Y200106D01*
X256587D01*
Y203071D01*
D02*
G37*
G36*
X260551Y199106D02*
X257587D01*
Y196142D01*
X258000Y196196D01*
X258852Y196549D01*
X259583Y197110D01*
X260144Y197841D01*
X260496Y198693D01*
X260551Y199106D01*
D02*
G37*
G36*
X256587D02*
X253622D01*
X253677Y198693D01*
X254029Y197841D01*
X254590Y197110D01*
X255322Y196549D01*
X256173Y196196D01*
X256587Y196142D01*
Y199106D01*
D02*
G37*
G36*
X166945Y198343D02*
X164378D01*
Y195776D01*
X166945D01*
Y198343D01*
D02*
G37*
G36*
X163378D02*
X160811D01*
Y195776D01*
X163378D01*
Y198343D01*
D02*
G37*
G36*
X306799Y198740D02*
Y195776D01*
X309764D01*
X309709Y196189D01*
X309356Y197041D01*
X308795Y197772D01*
X308064Y198333D01*
X307213Y198686D01*
X306799Y198740D01*
D02*
G37*
G36*
X305799D02*
X305385Y198686D01*
X304534Y198333D01*
X303803Y197772D01*
X303242Y197041D01*
X302889Y196189D01*
X302835Y195776D01*
X305799D01*
Y198740D01*
D02*
G37*
G36*
X492126Y269917D02*
X491047Y269776D01*
X490041Y269359D01*
X489178Y268696D01*
X488515Y267833D01*
X488098Y266827D01*
X487956Y265748D01*
X488098Y264669D01*
X488515Y263663D01*
X489178Y262800D01*
X490041Y262137D01*
X490721Y261856D01*
Y260424D01*
X475205Y244909D01*
X424213D01*
X423675Y244802D01*
X423219Y244497D01*
X382883Y204161D01*
X301575D01*
X301037Y204054D01*
X300581Y203749D01*
X289282Y192450D01*
X286288D01*
X286288Y192450D01*
X285862Y192366D01*
X285502Y192125D01*
X283466Y190089D01*
X283225Y189728D01*
X283140Y189303D01*
X283140Y189303D01*
Y179744D01*
X282224D01*
X282073Y180244D01*
X282282Y180384D01*
X282523Y180744D01*
X282608Y181170D01*
Y196763D01*
X336015Y250170D01*
X353408D01*
X353946Y250277D01*
X354402Y250581D01*
X355324Y251504D01*
X355629Y251960D01*
X355736Y252497D01*
Y261856D01*
X356416Y262137D01*
X357279Y262800D01*
X357942Y263663D01*
X358358Y264669D01*
X358500Y265748D01*
X358358Y266827D01*
X357942Y267833D01*
X357279Y268696D01*
X356416Y269359D01*
X355410Y269776D01*
X354331Y269917D01*
X353252Y269776D01*
X352246Y269359D01*
X351382Y268696D01*
X350720Y267833D01*
X350303Y266827D01*
X350161Y265748D01*
X350303Y264669D01*
X350720Y263663D01*
X351382Y262800D01*
X352246Y262137D01*
X352926Y261856D01*
Y253079D01*
X352826Y252980D01*
X335433D01*
X334895Y252873D01*
X334440Y252568D01*
X280503Y198631D01*
X280198Y198176D01*
X280091Y197638D01*
X280198Y197100D01*
X280384Y196822D01*
Y181712D01*
X279615D01*
X279347Y182212D01*
X279374Y182252D01*
X279458Y182677D01*
Y198790D01*
X279644Y199069D01*
X279751Y199606D01*
X279644Y200144D01*
X279340Y200600D01*
X247468Y232472D01*
Y239764D01*
X247361Y240301D01*
X247056Y240757D01*
X236426Y251387D01*
X235971Y251692D01*
X235433Y251799D01*
X218040D01*
X217940Y251898D01*
Y261856D01*
X218620Y262137D01*
X219484Y262800D01*
X220146Y263663D01*
X220563Y264669D01*
X220705Y265748D01*
X220563Y266827D01*
X220146Y267833D01*
X219484Y268696D01*
X218620Y269359D01*
X217615Y269776D01*
X216535Y269917D01*
X215456Y269776D01*
X214451Y269359D01*
X213587Y268696D01*
X212925Y267833D01*
X212508Y266827D01*
X212366Y265748D01*
X212508Y264669D01*
X212925Y263663D01*
X213587Y262800D01*
X214451Y262137D01*
X215130Y261856D01*
Y251316D01*
X215237Y250779D01*
X215542Y250323D01*
X216464Y249400D01*
X216920Y249096D01*
X217458Y248989D01*
X234851D01*
X244658Y239182D01*
Y231890D01*
X244765Y231352D01*
X245070Y230896D01*
X277235Y198731D01*
Y182984D01*
X276269Y182018D01*
X275807Y182210D01*
Y193116D01*
X276101Y193557D01*
X276208Y194095D01*
X276101Y194632D01*
X275797Y195088D01*
X247056Y223828D01*
X246601Y224133D01*
X246063Y224240D01*
X205125D01*
X205062Y224393D01*
X204566Y225039D01*
X203921Y225534D01*
X203169Y225846D01*
X202362Y225952D01*
X201555Y225846D01*
X200804Y225534D01*
X200158Y225039D01*
X199663Y224393D01*
X199351Y223641D01*
X199245Y222835D01*
X199351Y222028D01*
X199663Y221276D01*
X200158Y220630D01*
X200804Y220135D01*
X201555Y219824D01*
X202362Y219717D01*
X203169Y219824D01*
X203921Y220135D01*
X204566Y220630D01*
X205062Y221276D01*
X205125Y221430D01*
X245481D01*
X273800Y193111D01*
Y189839D01*
X272547D01*
Y187559D01*
X272047D01*
Y187059D01*
X269827D01*
Y185280D01*
X269360Y185198D01*
X268293D01*
X267871Y185114D01*
X267513Y184875D01*
X267206Y184569D01*
X265413D01*
Y185276D01*
X264962D01*
Y186121D01*
X265338Y186277D01*
X265984Y186772D01*
X266479Y187418D01*
X266791Y188170D01*
X266897Y188976D01*
X266791Y189783D01*
X266479Y190535D01*
X265984Y191181D01*
X265338Y191676D01*
X264586Y191987D01*
X263779Y192094D01*
X262973Y191987D01*
X262221Y191676D01*
X261575Y191181D01*
X261080Y190535D01*
X260769Y189783D01*
X260662Y188976D01*
X260769Y188170D01*
X261080Y187418D01*
X261575Y186772D01*
X262221Y186277D01*
X262304Y186242D01*
X262322Y186055D01*
X261986Y185685D01*
X260579D01*
Y183465D01*
Y181244D01*
X262358D01*
Y181653D01*
X265413D01*
Y182361D01*
X266613D01*
Y181102D01*
X266697Y180680D01*
X266936Y180322D01*
X268187Y179070D01*
Y173051D01*
X267286D01*
X266945Y173409D01*
Y174697D01*
X264961D01*
Y175197D01*
X264461D01*
Y176984D01*
X263008D01*
Y177847D01*
X259039D01*
Y176559D01*
X258698Y176200D01*
X255140D01*
X254750Y176591D01*
X254979Y177146D01*
X255086Y177953D01*
X254979Y178760D01*
X254668Y179511D01*
X254173Y180157D01*
X253527Y180652D01*
X252775Y180964D01*
X251969Y181070D01*
X251162Y180964D01*
X250410Y180652D01*
X249764Y180157D01*
X249269Y179511D01*
X248957Y178760D01*
X248851Y177953D01*
X248957Y177146D01*
X249269Y176394D01*
X249764Y175749D01*
X250410Y175253D01*
X251162Y174942D01*
X251969Y174836D01*
X252775Y174942D01*
X253330Y175172D01*
X254015Y174487D01*
X254340Y174270D01*
X254724Y174193D01*
X259016D01*
X259052Y174071D01*
X258664Y173622D01*
X258609Y173622D01*
X255315D01*
Y168898D01*
X259055D01*
X259055Y168898D01*
Y168898D01*
X259492Y168726D01*
X260766Y167452D01*
X260559Y166952D01*
X259055D01*
Y168110D01*
X255315D01*
Y163580D01*
X253346D01*
Y168110D01*
X252170D01*
X252112Y168608D01*
X252545Y168898D01*
X253346D01*
Y173622D01*
X249606D01*
Y171890D01*
X249251Y171652D01*
X238034D01*
X219314Y190371D01*
X218718Y190770D01*
X218015Y190910D01*
X139575D01*
X133891Y196593D01*
Y197475D01*
X133843Y197715D01*
X134303Y197961D01*
X136610Y195655D01*
X137065Y195351D01*
X137603Y195244D01*
X147830D01*
X148368Y195351D01*
X148823Y195655D01*
X151526Y198358D01*
X153937Y195946D01*
Y192618D01*
X159252D01*
Y197933D01*
X155924D01*
X153513Y200344D01*
X157048Y203880D01*
X157352Y204336D01*
X157459Y204873D01*
Y232303D01*
X161278Y236122D01*
X164409D01*
Y248524D01*
X159291D01*
Y238109D01*
X155061Y233879D01*
X154756Y233423D01*
X154649Y232885D01*
Y205455D01*
X150532Y201338D01*
X147248Y198054D01*
X138185D01*
X135263Y200976D01*
Y203839D01*
X135236Y203974D01*
Y207087D01*
X125409D01*
Y207496D01*
X124122D01*
Y203839D01*
Y200181D01*
X125409D01*
Y200591D01*
X127536D01*
Y199567D01*
X127182Y199331D01*
X126784Y198735D01*
X126644Y198031D01*
Y195140D01*
X126784Y194437D01*
X127182Y193841D01*
X128622Y192401D01*
X128622Y192401D01*
X136265Y184758D01*
X136861Y184360D01*
X137565Y184220D01*
X216005D01*
X227258Y172967D01*
X228852Y171372D01*
X234724Y165500D01*
X235320Y165102D01*
X236024Y164962D01*
X249251D01*
X249606Y164724D01*
Y163386D01*
X249606Y163386D01*
X249606D01*
X249577Y162898D01*
X248336Y161656D01*
X247874Y161848D01*
Y161870D01*
X244252D01*
Y161058D01*
X243410D01*
X242985Y160973D01*
X242624Y160732D01*
X242624Y160732D01*
X240230Y158338D01*
X239783Y158523D01*
X238976Y158629D01*
X238170Y158523D01*
X237418Y158211D01*
X236772Y157716D01*
X236277Y157070D01*
X235965Y156319D01*
X235859Y155512D01*
X235965Y154705D01*
X236277Y153953D01*
X236772Y153308D01*
X237418Y152812D01*
X238170Y152501D01*
X238976Y152395D01*
X239783Y152501D01*
X240535Y152812D01*
X241181Y153308D01*
X241676Y153953D01*
X241987Y154705D01*
X242094Y155512D01*
X241987Y156319D01*
X241802Y156765D01*
X243381Y158344D01*
X243843Y158152D01*
Y157035D01*
X246063D01*
Y156535D01*
X246563D01*
Y154256D01*
X248283D01*
X248327Y153774D01*
Y151856D01*
X246000Y149529D01*
X245014D01*
X244826Y149984D01*
X244330Y150629D01*
X243685Y151125D01*
X242933Y151436D01*
X242126Y151542D01*
X241319Y151436D01*
X240567Y151125D01*
X239922Y150629D01*
X239426Y149984D01*
X239115Y149232D01*
X239009Y148425D01*
X239115Y147618D01*
X239426Y146867D01*
X239922Y146221D01*
X240567Y145726D01*
X241319Y145414D01*
X242126Y145308D01*
X242933Y145414D01*
X243685Y145726D01*
X244330Y146221D01*
X244826Y146867D01*
X245014Y147321D01*
X246457D01*
X246879Y147405D01*
X247237Y147645D01*
X250211Y150619D01*
X250450Y150977D01*
X250535Y151399D01*
Y154700D01*
X252042Y156208D01*
X252504Y156016D01*
Y153862D01*
X254224D01*
Y156142D01*
X255224D01*
Y153862D01*
X255981D01*
X256172Y153400D01*
X246797Y144025D01*
X235500D01*
X228671Y150854D01*
Y167323D01*
X228586Y167748D01*
X228345Y168109D01*
X228345Y168109D01*
X222046Y174408D01*
X221685Y174649D01*
X221260Y174734D01*
X221260Y174734D01*
X212461D01*
X212035Y174649D01*
X211674Y174408D01*
X211674Y174408D01*
X206459Y169193D01*
X204291D01*
Y161516D01*
X208032D01*
Y167620D01*
X208829Y168418D01*
X209291Y168227D01*
Y161516D01*
X213032D01*
Y167620D01*
X213829Y168418D01*
X214291Y168227D01*
Y161516D01*
X215050D01*
Y151555D01*
X215050Y151555D01*
X215134Y151130D01*
X215375Y150769D01*
X231103Y135040D01*
X231464Y134800D01*
X231890Y134715D01*
X231890Y134715D01*
X248031D01*
X248031Y134715D01*
X248457Y134800D01*
X248818Y135040D01*
X262168Y148390D01*
X262668Y148183D01*
Y145153D01*
X251099Y133584D01*
X218441D01*
Y136508D01*
X216161D01*
X213882D01*
Y134545D01*
X213420Y134353D01*
X213032Y134742D01*
Y140847D01*
X209291D01*
Y133169D01*
X211459D01*
X212701Y131927D01*
X212494Y131427D01*
X208527D01*
X207411Y132542D01*
Y133169D01*
X208032D01*
Y140847D01*
X204291D01*
Y133169D01*
X205187D01*
Y132082D01*
X205187Y132082D01*
X205272Y131656D01*
X205513Y131296D01*
X207126Y129683D01*
X206919Y129183D01*
X203543D01*
Y129921D01*
X202273D01*
Y133169D01*
X203031D01*
Y140847D01*
X199291D01*
Y138120D01*
X196063D01*
Y139370D01*
X192323D01*
Y134646D01*
X196063D01*
Y135896D01*
X199291D01*
Y133169D01*
X200049D01*
Y129921D01*
X198819D01*
Y126181D01*
X203543D01*
Y126959D01*
X254449D01*
X254449Y126959D01*
X254874Y127044D01*
X255235Y127285D01*
X269684Y141733D01*
X269684Y141733D01*
X269925Y142094D01*
X270010Y142520D01*
Y144815D01*
X270668Y145474D01*
X270909Y145834D01*
X270994Y146260D01*
X270909Y146685D01*
X270885Y146721D01*
Y149843D01*
X271239Y150197D01*
X271712Y150197D01*
X271754Y150197D01*
X271793Y150195D01*
X272163Y150116D01*
X272242Y149746D01*
X272244Y149707D01*
X272244Y149664D01*
Y147932D01*
X272225Y147835D01*
Y144750D01*
X272054Y144580D01*
X271815Y144222D01*
X271731Y143799D01*
Y141791D01*
X271024D01*
Y140202D01*
X270780Y140154D01*
X270422Y139914D01*
X265479Y134971D01*
X264941Y134901D01*
X264189Y134589D01*
X263544Y134094D01*
X263048Y133448D01*
X262737Y132697D01*
X262631Y131890D01*
X262737Y131083D01*
X263048Y130331D01*
X263544Y129685D01*
X264189Y129190D01*
X264941Y128879D01*
X265748Y128772D01*
X266555Y128879D01*
X267307Y129190D01*
X267952Y129685D01*
X268448Y130331D01*
X268759Y131083D01*
X268865Y131890D01*
X268759Y132697D01*
X268448Y133448D01*
X267952Y134094D01*
X267938Y134309D01*
X270152Y136523D01*
X270614Y136331D01*
Y134177D01*
X272335D01*
Y136457D01*
X273335D01*
Y134177D01*
X273812D01*
X274003Y133715D01*
X259016Y118728D01*
X166724D01*
X161641Y123810D01*
Y129304D01*
X162933D01*
Y128898D01*
X165988D01*
Y128488D01*
X167768D01*
Y130709D01*
Y132929D01*
X165988D01*
Y132520D01*
X162933D01*
Y132114D01*
X157874D01*
Y133071D01*
X154134D01*
Y128347D01*
X157874D01*
Y129304D01*
X158831D01*
Y123228D01*
X158938Y122691D01*
X159243Y122235D01*
X165148Y116329D01*
X165604Y116025D01*
X166142Y115918D01*
X259183D01*
X259721Y116025D01*
X260177Y116329D01*
X260481Y116785D01*
X260547Y117114D01*
X276770Y133337D01*
X276770Y133337D01*
X277011Y133698D01*
X277096Y134124D01*
X277096Y134124D01*
Y142091D01*
X277558Y142282D01*
X278416Y141425D01*
Y121682D01*
X278230Y121404D01*
X278123Y120866D01*
X278230Y120328D01*
X278534Y119873D01*
X285522Y112884D01*
X285978Y112580D01*
X286516Y112473D01*
X307994D01*
X308465Y112402D01*
X308465Y111973D01*
Y104134D01*
X308076Y103866D01*
X264657D01*
X262402Y106121D01*
Y112402D01*
X253346D01*
Y104134D01*
X260415D01*
X263081Y101467D01*
X263537Y101163D01*
X264075Y101056D01*
X323228D01*
Y100591D01*
X327953D01*
Y104331D01*
X326995D01*
Y106299D01*
X327953D01*
Y110039D01*
X323228D01*
Y106299D01*
X324186D01*
Y104331D01*
X323228D01*
Y103866D01*
X317909D01*
X317520Y104134D01*
Y111973D01*
X317520Y112402D01*
X317990Y112473D01*
X323228D01*
Y112008D01*
X327953D01*
Y112424D01*
X330650D01*
Y111969D01*
X333705D01*
Y111559D01*
X335484D01*
Y113779D01*
Y116000D01*
X333705D01*
Y115591D01*
X330650D01*
Y115234D01*
X327953D01*
Y115748D01*
X323228D01*
Y115283D01*
X287098D01*
X280640Y121741D01*
Y141732D01*
X280555Y142158D01*
X280314Y142518D01*
X279953Y142760D01*
X279911Y142768D01*
X279531Y143148D01*
X279708Y143679D01*
X279916Y143708D01*
X281171Y142453D01*
Y140551D01*
X281171Y140551D01*
X281256Y140126D01*
X281497Y139765D01*
X282854Y138408D01*
Y135572D01*
X282854Y135572D01*
X282938Y135146D01*
X283179Y134786D01*
X299460Y118505D01*
X299460Y118505D01*
X299821Y118264D01*
X300246Y118179D01*
X351508D01*
X362865Y106822D01*
X362865Y106822D01*
X363226Y106581D01*
X363652Y106496D01*
X363652Y106496D01*
X373675D01*
X374158Y106453D01*
Y104673D01*
X376378D01*
X378598D01*
Y106203D01*
X379528D01*
Y105709D01*
X384252D01*
Y109449D01*
X379528D01*
Y109013D01*
X378189D01*
Y109508D01*
X374567D01*
Y108720D01*
X364112D01*
X352755Y120078D01*
X352394Y120319D01*
X351969Y120403D01*
X351968Y120403D01*
X300707D01*
X287395Y133715D01*
X287586Y134177D01*
X289622D01*
Y135957D01*
X287402D01*
Y136957D01*
X289622D01*
Y138736D01*
X290121Y138739D01*
X291174D01*
X291395Y138205D01*
X291890Y137560D01*
X292536Y137064D01*
X293288Y136753D01*
X294094Y136647D01*
X294901Y136753D01*
X295653Y137064D01*
X296299Y137560D01*
X296794Y138205D01*
X297106Y138957D01*
X297212Y139764D01*
X297106Y140571D01*
X296794Y141322D01*
X296299Y141968D01*
X295653Y142463D01*
X294901Y142775D01*
X294094Y142881D01*
X293288Y142775D01*
X292536Y142463D01*
X291890Y141968D01*
X291395Y141322D01*
X291239Y140946D01*
X289213D01*
Y141791D01*
X288506D01*
Y143701D01*
X288421Y144123D01*
X288405Y144148D01*
Y145571D01*
X294685D01*
X294685Y149664D01*
X294685Y149707D01*
X294687Y149746D01*
X294766Y150116D01*
X295136Y150195D01*
X295175Y150197D01*
X295217Y150197D01*
X299311D01*
Y151772D01*
Y156087D01*
X299721D01*
Y156980D01*
X297047D01*
X294374D01*
Y156087D01*
X294783D01*
X294783Y150631D01*
X294783Y150588D01*
X294782Y150550D01*
X294702Y150180D01*
X294332Y150100D01*
X294293Y150098D01*
X294251Y150098D01*
X272678Y150098D01*
X272636Y150098D01*
X272597Y150100D01*
X272227Y150180D01*
X272147Y150550D01*
X272146Y150588D01*
X272146Y150631D01*
Y153347D01*
Y158071D01*
Y162795D01*
Y167520D01*
Y172277D01*
X272227Y172655D01*
X272605Y172736D01*
X294251Y172736D01*
X294293Y172736D01*
X294332Y172734D01*
X294702Y172655D01*
X294782Y172285D01*
X294783Y172246D01*
X294783Y172204D01*
Y167520D01*
Y162795D01*
Y158874D01*
X294374D01*
Y157980D01*
X297047D01*
X299721D01*
Y158052D01*
X300765D01*
X302046Y156771D01*
X302372Y156553D01*
X302756Y156477D01*
X328970D01*
X340397Y145050D01*
X340755Y144811D01*
X341177Y144727D01*
X352276D01*
Y123685D01*
X361724D01*
Y134329D01*
X368465D01*
Y133622D01*
X371299D01*
Y137244D01*
X368465D01*
Y136537D01*
X361724D01*
Y146913D01*
X353465D01*
X353358Y146935D01*
X341634D01*
X330308Y158261D01*
X329950Y158500D01*
X329528Y158584D01*
X329105Y158500D01*
X329081Y158484D01*
X324925D01*
X324718Y158984D01*
X328340Y162605D01*
X328579Y162963D01*
X328663Y163386D01*
Y171731D01*
X331496D01*
Y170473D01*
X335236D01*
Y175197D01*
X331496D01*
Y173939D01*
X328136D01*
X327713Y173854D01*
X327355Y173615D01*
X326779Y173039D01*
X326539Y172680D01*
X326455Y172258D01*
Y163843D01*
X323165Y160553D01*
X319366D01*
Y161705D01*
X317087D01*
Y162205D01*
X316587D01*
Y164425D01*
X314890D01*
X314743Y164899D01*
X315770Y165926D01*
X319511D01*
X319741Y165371D01*
X320237Y164725D01*
X320882Y164230D01*
X321634Y163918D01*
X322441Y163812D01*
X323248Y163918D01*
X324000Y164230D01*
X324645Y164725D01*
X325141Y165371D01*
X325452Y166122D01*
X325558Y166929D01*
X325452Y167736D01*
X325141Y168488D01*
X324645Y169133D01*
X324000Y169629D01*
X323248Y169940D01*
X322441Y170046D01*
X321634Y169940D01*
X320882Y169629D01*
X320237Y169133D01*
X319741Y168488D01*
X319511Y167933D01*
X315354D01*
X314970Y167856D01*
X314645Y167639D01*
X312971Y165965D01*
X312754Y165640D01*
X312678Y165256D01*
Y164016D01*
X311752D01*
Y163309D01*
X307452D01*
X307261Y163770D01*
X312680Y169189D01*
X312919Y169547D01*
X313003Y169970D01*
Y170236D01*
X313626D01*
Y169827D01*
X315406D01*
Y172047D01*
X315905D01*
Y172547D01*
X318185D01*
Y174093D01*
X320389D01*
X320811Y174177D01*
X321169Y174416D01*
X321746Y174993D01*
X321985Y175351D01*
X322069Y175773D01*
Y176124D01*
X322818Y176434D01*
X323464Y176930D01*
X323959Y177575D01*
X324271Y178327D01*
X324377Y179134D01*
X324271Y179941D01*
X323959Y180693D01*
X323464Y181338D01*
X322818Y181833D01*
X322067Y182145D01*
X321260Y182251D01*
X320453Y182145D01*
X319701Y181833D01*
X319056Y181338D01*
X318560Y180693D01*
X318249Y179941D01*
X318143Y179134D01*
X318249Y178327D01*
X318560Y177575D01*
X319056Y176930D01*
X319224Y176801D01*
X319054Y176301D01*
X314173D01*
X313751Y176217D01*
X313393Y175977D01*
X312448Y175032D01*
X312209Y174674D01*
X312124Y174252D01*
Y173858D01*
X310571D01*
Y170236D01*
X310571Y170236D01*
X310571D01*
X310256Y169888D01*
X309771Y169403D01*
X309271Y169610D01*
Y173994D01*
X313958Y178680D01*
X314175Y179006D01*
X314252Y179390D01*
Y180016D01*
X314586Y180060D01*
X315338Y180371D01*
X315984Y180867D01*
X316479Y181512D01*
X316791Y182264D01*
X316897Y183071D01*
X316791Y183878D01*
X316479Y184629D01*
X315984Y185275D01*
X315338Y185770D01*
X314586Y186082D01*
X313779Y186188D01*
X312973Y186082D01*
X312221Y185770D01*
X311575Y185275D01*
X311080Y184629D01*
X310769Y183878D01*
X310662Y183071D01*
X310769Y182264D01*
X311080Y181512D01*
X311575Y180867D01*
X312221Y180371D01*
X312245Y180361D01*
Y179805D01*
X307558Y175119D01*
X307341Y174794D01*
X307264Y174409D01*
Y169707D01*
X303932Y166375D01*
X303513Y166417D01*
X303331Y166873D01*
X306221Y169763D01*
X306439Y170088D01*
X306515Y170472D01*
Y174755D01*
X306439Y175139D01*
X306221Y175465D01*
X306122Y175565D01*
Y176074D01*
X306258Y176130D01*
X306904Y176626D01*
X307399Y177271D01*
X307711Y178023D01*
X307817Y178830D01*
X307711Y179637D01*
X307399Y180389D01*
X306904Y181034D01*
X306258Y181530D01*
X305506Y181841D01*
X304700Y181947D01*
X303893Y181841D01*
X303141Y181530D01*
X302495Y181034D01*
X302000Y180389D01*
X301689Y179637D01*
X301582Y178830D01*
X301689Y178023D01*
X302000Y177271D01*
X302495Y176626D01*
X303141Y176130D01*
X303893Y175819D01*
X304115Y175790D01*
Y175149D01*
X304191Y174765D01*
X304409Y174439D01*
X304508Y174339D01*
Y170888D01*
X301553Y167933D01*
X300711D01*
X300520Y168395D01*
X301843Y169718D01*
X302036Y169756D01*
X302426Y170018D01*
X302687Y170408D01*
X302779Y170869D01*
Y173622D01*
X302779Y173622D01*
X302687Y174083D01*
X302426Y174474D01*
X302426Y174474D01*
X300417Y176483D01*
Y183753D01*
X304830Y188166D01*
X372441D01*
Y187402D01*
X373077D01*
Y184882D01*
X372382D01*
Y181260D01*
X375437D01*
Y180850D01*
X377217D01*
Y183071D01*
Y185291D01*
X375486D01*
Y187402D01*
X376181D01*
Y192126D01*
X372441D01*
Y190574D01*
X304331D01*
X303870Y190483D01*
X303479Y190222D01*
X298361Y185103D01*
X298100Y184713D01*
X298008Y184252D01*
X298008Y184252D01*
Y175984D01*
X298008Y175984D01*
X298100Y175523D01*
X298361Y175133D01*
X300371Y173123D01*
Y171084D01*
X299767Y170480D01*
X299482Y170598D01*
X299311Y170732D01*
Y172638D01*
X295217Y172638D01*
X295175Y172638D01*
X295136Y172640D01*
X294766Y172719D01*
X294687Y173089D01*
X294685Y173128D01*
X294685Y173170D01*
Y177264D01*
X288405D01*
Y177900D01*
X288421Y177924D01*
X288506Y178347D01*
Y182224D01*
X289213D01*
Y183069D01*
X290452D01*
X290608Y182693D01*
X291103Y182048D01*
X291748Y181552D01*
X292500Y181241D01*
X293307Y181135D01*
X294114Y181241D01*
X294866Y181552D01*
X295511Y182048D01*
X296007Y182693D01*
X296318Y183445D01*
X296424Y184252D01*
X296318Y185059D01*
X296007Y185811D01*
X295511Y186456D01*
X294866Y186952D01*
X294114Y187263D01*
X293307Y187369D01*
X292500Y187263D01*
X291748Y186952D01*
X291103Y186456D01*
X290608Y185811D01*
X290387Y185277D01*
X290121D01*
X289622Y185280D01*
Y187059D01*
X287402D01*
Y188059D01*
X289622D01*
Y189530D01*
X290076Y189950D01*
X290158Y189934D01*
X290695Y190041D01*
X291151Y190345D01*
X302157Y201351D01*
X383465D01*
X384002Y201458D01*
X384458Y201763D01*
X424794Y242099D01*
X472019D01*
X472051Y241599D01*
X471986Y241590D01*
X470646Y241035D01*
X469494Y240152D01*
X468611Y239000D01*
X468055Y237659D01*
X467866Y236221D01*
X468055Y234782D01*
X468611Y233441D01*
X469494Y232289D01*
X470646Y231406D01*
X471986Y230851D01*
X473425Y230661D01*
X474864Y230851D01*
X476205Y231406D01*
X477356Y232289D01*
X478240Y233441D01*
X478795Y234782D01*
X478985Y236221D01*
X478795Y237659D01*
X478240Y239000D01*
X477356Y240152D01*
X476205Y241035D01*
X474864Y241590D01*
X474799Y241599D01*
X474832Y242099D01*
X475787D01*
X476325Y242206D01*
X476781Y242511D01*
X493119Y258849D01*
X493424Y259305D01*
X493531Y259842D01*
Y261856D01*
X494211Y262137D01*
X495074Y262800D01*
X495737Y263663D01*
X496153Y264669D01*
X496295Y265748D01*
X496153Y266827D01*
X495737Y267833D01*
X495074Y268696D01*
X494211Y269359D01*
X493205Y269776D01*
X492126Y269917D01*
D02*
G37*
G36*
X166945Y194776D02*
X164378D01*
Y192209D01*
X166945D01*
Y194776D01*
D02*
G37*
G36*
X163378D02*
X160811D01*
Y192209D01*
X163378D01*
Y194776D01*
D02*
G37*
G36*
X309764Y194776D02*
X306799D01*
Y191811D01*
X307213Y191866D01*
X308064Y192218D01*
X308795Y192779D01*
X309356Y193510D01*
X309709Y194362D01*
X309764Y194776D01*
D02*
G37*
G36*
X305799D02*
X302835D01*
X302889Y194362D01*
X303242Y193510D01*
X303803Y192779D01*
X304534Y192218D01*
X305385Y191866D01*
X305799Y191811D01*
Y194776D01*
D02*
G37*
G36*
X391339Y193307D02*
X387992D01*
Y190968D01*
X381890D01*
Y192126D01*
X378150D01*
Y187402D01*
X381890D01*
Y188559D01*
X387992D01*
Y186221D01*
X388461D01*
Y179921D01*
X387795D01*
Y175197D01*
X391535D01*
Y179921D01*
X390870D01*
Y186221D01*
X391339D01*
Y193307D01*
D02*
G37*
G36*
X404543Y193717D02*
X402961D01*
Y190264D01*
X404543D01*
Y193717D01*
D02*
G37*
G36*
X401961D02*
X400378D01*
Y190264D01*
X401961D01*
Y193717D01*
D02*
G37*
G36*
X271547Y189839D02*
X269827D01*
Y188059D01*
X271547D01*
Y189839D01*
D02*
G37*
G36*
X404543Y189264D02*
X402961D01*
Y185811D01*
X404543D01*
Y189264D01*
D02*
G37*
G36*
X401961D02*
X400378D01*
Y185811D01*
X401961D01*
Y189264D01*
D02*
G37*
G36*
X259579Y185685D02*
X257799D01*
Y183965D01*
X259579D01*
Y185685D01*
D02*
G37*
G36*
X379996Y185291D02*
X378217D01*
Y183571D01*
X379996D01*
Y185291D01*
D02*
G37*
G36*
X259579Y182965D02*
X257799D01*
Y181244D01*
X259579D01*
Y182965D01*
D02*
G37*
G36*
X379996Y182571D02*
X378217D01*
Y180850D01*
X379996D01*
Y182571D01*
D02*
G37*
G36*
X263008Y180134D02*
X261524D01*
Y178847D01*
X263008D01*
Y180134D01*
D02*
G37*
G36*
X260524D02*
X259039D01*
Y178847D01*
X260524D01*
Y180134D01*
D02*
G37*
G36*
X266945Y176984D02*
X265461D01*
Y175697D01*
X266945D01*
Y176984D01*
D02*
G37*
G36*
X361724Y184315D02*
X352276D01*
Y173939D01*
X340945D01*
Y175197D01*
X337205D01*
Y170473D01*
X340945D01*
Y171731D01*
X352276D01*
Y161087D01*
X361724D01*
Y171337D01*
X368465D01*
Y170630D01*
X371299D01*
Y174252D01*
X368465D01*
Y173545D01*
X361724D01*
Y184315D01*
D02*
G37*
G36*
X376039Y174661D02*
X374713D01*
Y172941D01*
X376039D01*
Y174661D01*
D02*
G37*
G36*
X373713D02*
X372386D01*
Y172941D01*
X373713D01*
Y174661D01*
D02*
G37*
G36*
X397244Y179921D02*
X393504D01*
Y175197D01*
X397244D01*
Y175953D01*
X402547D01*
X402877Y175577D01*
X402841Y175305D01*
X402947Y174498D01*
X403259Y173746D01*
X403754Y173101D01*
X404400Y172605D01*
X405152Y172294D01*
X405958Y172188D01*
X406765Y172294D01*
X407517Y172605D01*
X408163Y173101D01*
X408658Y173746D01*
X408969Y174498D01*
X409076Y175305D01*
X408969Y176112D01*
X408658Y176863D01*
X408163Y177509D01*
X407517Y178004D01*
X406765Y178316D01*
X405958Y178422D01*
X405210Y178323D01*
X404840Y178694D01*
X404319Y179042D01*
X403704Y179165D01*
X403704Y179165D01*
X397244D01*
Y179921D01*
D02*
G37*
G36*
X376039Y171941D02*
X374713D01*
Y170220D01*
X376039D01*
Y171941D01*
D02*
G37*
G36*
X373713D02*
X372386D01*
Y170220D01*
X373713D01*
Y171941D01*
D02*
G37*
G36*
X318185Y171547D02*
X316406D01*
Y169827D01*
X318185D01*
Y171547D01*
D02*
G37*
G36*
X203031Y169193D02*
X199291D01*
Y163702D01*
X195575D01*
X195441Y163676D01*
X194866Y164117D01*
X194114Y164428D01*
X193307Y164534D01*
X192500Y164428D01*
X191748Y164117D01*
X191103Y163621D01*
X190608Y162976D01*
X190296Y162224D01*
X190190Y161417D01*
X190296Y160610D01*
X190608Y159859D01*
X191103Y159213D01*
X191748Y158718D01*
X192500Y158406D01*
X192588Y158395D01*
Y155571D01*
X192267D01*
Y152516D01*
X191857D01*
Y150736D01*
X194078D01*
X196298D01*
Y152516D01*
X195889D01*
Y155571D01*
X194796D01*
Y158689D01*
X194866Y158718D01*
X195511Y159213D01*
X196007Y159859D01*
X196318Y160610D01*
X196424Y161417D01*
X196492Y161495D01*
X200374D01*
X200481Y161516D01*
X203031D01*
Y169193D01*
D02*
G37*
G36*
X319366Y164425D02*
X317587D01*
Y162705D01*
X319366D01*
Y164425D01*
D02*
G37*
G36*
X290764Y168717D02*
X283965D01*
Y161917D01*
X290764D01*
Y168717D01*
D02*
G37*
G36*
X282965D02*
X276165D01*
Y161917D01*
X282965D01*
Y168717D01*
D02*
G37*
G36*
X245563Y156035D02*
X243843D01*
Y154256D01*
X245563D01*
Y156035D01*
D02*
G37*
G36*
X290764Y160917D02*
X283965D01*
Y154118D01*
X290764D01*
Y160917D01*
D02*
G37*
G36*
X282965D02*
X276165D01*
Y154118D01*
X282965D01*
Y160917D01*
D02*
G37*
G36*
X196298Y149736D02*
X194578D01*
Y147957D01*
X196298D01*
Y149736D01*
D02*
G37*
G36*
X193578D02*
X191857D01*
Y147957D01*
X193578D01*
Y149736D01*
D02*
G37*
G36*
X478346Y163038D02*
X476494Y162855D01*
X474713Y162315D01*
X473072Y161438D01*
X471633Y160257D01*
X470452Y158818D01*
X469575Y157177D01*
X469034Y155396D01*
X468852Y153543D01*
X469034Y151691D01*
X469575Y149910D01*
X470452Y148268D01*
X471633Y146830D01*
X473072Y145649D01*
X474713Y144772D01*
X476494Y144231D01*
X478346Y144049D01*
X480199Y144231D01*
X481980Y144772D01*
X483621Y145649D01*
X485060Y146830D01*
X486241Y148268D01*
X487118Y149910D01*
X487659Y151691D01*
X487841Y153543D01*
X487659Y155396D01*
X487118Y157177D01*
X486241Y158818D01*
X485060Y160257D01*
X483621Y161438D01*
X481980Y162315D01*
X480199Y162855D01*
X478346Y163038D01*
D02*
G37*
G36*
X92520D02*
X90667Y162855D01*
X88886Y162315D01*
X87245Y161438D01*
X85806Y160257D01*
X84625Y158818D01*
X83748Y157177D01*
X83208Y155396D01*
X83025Y153543D01*
X83208Y151691D01*
X83748Y149910D01*
X84625Y148268D01*
X85806Y146830D01*
X87245Y145649D01*
X88886Y144772D01*
X90667Y144231D01*
X92520Y144049D01*
X94372Y144231D01*
X96153Y144772D01*
X97795Y145649D01*
X99233Y146830D01*
X100414Y148268D01*
X101292Y149910D01*
X101832Y151691D01*
X102014Y153543D01*
X101832Y155396D01*
X101292Y157177D01*
X100414Y158818D01*
X99233Y160257D01*
X97795Y161438D01*
X96153Y162315D01*
X94372Y162855D01*
X92520Y163038D01*
D02*
G37*
G36*
X218441Y141256D02*
X216661D01*
Y137508D01*
X218441D01*
Y141256D01*
D02*
G37*
G36*
X215661D02*
X213882D01*
Y137508D01*
X215661D01*
Y141256D01*
D02*
G37*
G36*
X376039Y137654D02*
X374713D01*
Y135933D01*
X376039D01*
Y137654D01*
D02*
G37*
G36*
X373713D02*
X372386D01*
Y135933D01*
X373713D01*
Y137654D01*
D02*
G37*
G36*
X190354Y139370D02*
X186614D01*
Y134646D01*
X187372D01*
Y133775D01*
X186838Y133241D01*
X186634Y133326D01*
X185827Y133432D01*
X185020Y133326D01*
X184268Y133015D01*
X183623Y132519D01*
X183127Y131874D01*
X182816Y131122D01*
X182710Y130315D01*
X182816Y129508D01*
X183127Y128756D01*
X183623Y128111D01*
X184268Y127615D01*
X185020Y127304D01*
X185827Y127198D01*
X186634Y127304D01*
X187385Y127615D01*
X188031Y128111D01*
X188526Y128756D01*
X188838Y129508D01*
X188944Y130315D01*
X188838Y131122D01*
X188553Y131810D01*
X189270Y132528D01*
X189512Y132889D01*
X189596Y133314D01*
X189596Y133314D01*
Y134646D01*
X190354D01*
Y139370D01*
D02*
G37*
G36*
X376039Y134933D02*
X374713D01*
Y133213D01*
X376039D01*
Y134933D01*
D02*
G37*
G36*
X373713D02*
X372386D01*
Y133213D01*
X373713D01*
Y134933D01*
D02*
G37*
G36*
X170547Y132929D02*
X168768D01*
Y131209D01*
X170547D01*
Y132929D01*
D02*
G37*
G36*
Y130209D02*
X168768D01*
Y128488D01*
X170547D01*
Y130209D01*
D02*
G37*
G36*
X131496Y133826D02*
X130689Y133720D01*
X129937Y133408D01*
X129292Y132913D01*
X128797Y132267D01*
X128485Y131516D01*
X128379Y130709D01*
X128485Y129902D01*
X128797Y129150D01*
X129292Y128504D01*
X129937Y128009D01*
X130689Y127698D01*
X131496Y127591D01*
X132303Y127698D01*
X133055Y128009D01*
X133700Y128504D01*
X134160Y129103D01*
X136221D01*
Y128347D01*
X139289D01*
X139480Y127884D01*
X128140Y116545D01*
X127836Y116089D01*
X127729Y115551D01*
Y109673D01*
X124606D01*
Y112402D01*
X115551D01*
Y104134D01*
X124606D01*
Y106863D01*
X170669D01*
Y104134D01*
X179724D01*
Y112402D01*
X170669D01*
Y109673D01*
X130539D01*
Y114969D01*
X143916Y128347D01*
X145669D01*
Y129304D01*
X148425D01*
Y128347D01*
X152165D01*
Y133071D01*
X148425D01*
Y132114D01*
X145669D01*
Y133071D01*
X141929D01*
Y130333D01*
X140423Y128827D01*
X139961Y129018D01*
Y133071D01*
X136221D01*
Y132314D01*
X134160D01*
X133700Y132913D01*
X133055Y133408D01*
X132303Y133720D01*
X131496Y133826D01*
D02*
G37*
G36*
X209055Y125952D02*
X208248Y125846D01*
X207497Y125534D01*
X206851Y125039D01*
X206356Y124393D01*
X206171Y123948D01*
X203543D01*
Y124213D01*
X198819D01*
Y120473D01*
X203543D01*
Y120737D01*
X206769D01*
X206851Y120630D01*
X207497Y120135D01*
X208248Y119824D01*
X209055Y119717D01*
X209862Y119824D01*
X210614Y120135D01*
X211259Y120630D01*
X211755Y121276D01*
X212066Y122028D01*
X212172Y122835D01*
X212066Y123642D01*
X211755Y124393D01*
X211259Y125039D01*
X210614Y125534D01*
X209862Y125846D01*
X209055Y125952D01*
D02*
G37*
G36*
X338264Y116000D02*
X336484D01*
Y114279D01*
X338264D01*
Y116000D01*
D02*
G37*
G36*
Y113279D02*
X336484D01*
Y111559D01*
X338264D01*
Y113279D01*
D02*
G37*
G36*
X240803Y108047D02*
X229201D01*
Y105657D01*
X240803D01*
Y108047D01*
D02*
G37*
G36*
X228201D02*
X216598D01*
Y105657D01*
X228201D01*
Y108047D01*
D02*
G37*
G36*
X455315Y112402D02*
X446260D01*
Y104134D01*
X449382D01*
Y103375D01*
X449283Y103275D01*
X397074D01*
Y104134D01*
X400197D01*
Y112402D01*
X391142D01*
Y104134D01*
X394264D01*
Y103275D01*
X384252D01*
Y103740D01*
X379528D01*
Y100000D01*
X380485D01*
Y98819D01*
X379528D01*
Y95079D01*
X384252D01*
Y98819D01*
X383295D01*
Y100000D01*
X384252D01*
Y100465D01*
X449865D01*
X450403Y100572D01*
X450858Y100877D01*
X451781Y101799D01*
X452085Y102255D01*
X452192Y102793D01*
Y104134D01*
X455315D01*
Y112402D01*
D02*
G37*
G36*
X240803Y104657D02*
X229201D01*
Y102268D01*
X240803D01*
Y104657D01*
D02*
G37*
G36*
X228201D02*
X216598D01*
Y102268D01*
X228201D01*
Y104657D01*
D02*
G37*
G36*
X378598Y103673D02*
X376878D01*
Y101894D01*
X378598D01*
Y103673D01*
D02*
G37*
G36*
X375878D02*
X374158D01*
Y101894D01*
X375878D01*
Y103673D01*
D02*
G37*
G36*
X335039Y99574D02*
X334233Y99468D01*
X333481Y99156D01*
X332835Y98661D01*
X332602Y98358D01*
X327953D01*
Y98622D01*
X323228D01*
Y94882D01*
X327953D01*
Y95146D01*
X332237D01*
X332340Y94898D01*
X332835Y94253D01*
X333481Y93757D01*
X334233Y93446D01*
X335039Y93340D01*
X335846Y93446D01*
X336598Y93757D01*
X337244Y94253D01*
X337739Y94898D01*
X338050Y95650D01*
X338157Y96457D01*
X338050Y97263D01*
X337739Y98015D01*
X337244Y98661D01*
X336598Y99156D01*
X335846Y99468D01*
X335039Y99574D01*
D02*
G37*
G36*
X202756Y113747D02*
X201949Y113641D01*
X201197Y113330D01*
X200552Y112834D01*
X200056Y112188D01*
X199745Y111437D01*
X199639Y110630D01*
X199745Y109823D01*
X200056Y109071D01*
X200552Y108426D01*
X201197Y107930D01*
X201644Y107745D01*
Y95743D01*
X201644Y95743D01*
X201729Y95318D01*
X201970Y94957D01*
X202555Y94371D01*
X202555Y94371D01*
X202916Y94130D01*
X203342Y94046D01*
X208425D01*
Y92677D01*
X231811D01*
Y97638D01*
X208425D01*
Y96269D01*
X203868D01*
Y107745D01*
X204314Y107930D01*
X204960Y108426D01*
X205455Y109071D01*
X205767Y109823D01*
X205873Y110630D01*
X205767Y111437D01*
X205455Y112188D01*
X204960Y112834D01*
X204314Y113330D01*
X203563Y113641D01*
X202756Y113747D01*
D02*
G37*
G36*
X239764Y97212D02*
X238957Y97105D01*
X238205Y96794D01*
X237560Y96299D01*
X237064Y95653D01*
X236753Y94901D01*
X236647Y94095D01*
X236753Y93288D01*
X236816Y93134D01*
X233163Y89480D01*
X232858Y89025D01*
X232751Y88487D01*
Y87638D01*
X217008D01*
Y82677D01*
X240394D01*
Y87638D01*
X236001D01*
X235794Y88138D01*
X238803Y91147D01*
X238957Y91084D01*
X239764Y90977D01*
X240571Y91084D01*
X241322Y91395D01*
X241968Y91890D01*
X242463Y92536D01*
X242775Y93288D01*
X242881Y94095D01*
X242775Y94901D01*
X242463Y95653D01*
X241968Y96299D01*
X241322Y96794D01*
X240571Y97105D01*
X239764Y97212D01*
D02*
G37*
G36*
X373888Y94134D02*
X373081Y94027D01*
X372329Y93716D01*
X371684Y93221D01*
X371188Y92575D01*
X370877Y91823D01*
X370771Y91016D01*
X370877Y90210D01*
X371188Y89458D01*
X371684Y88812D01*
X372329Y88317D01*
X373081Y88005D01*
X373888Y87899D01*
X374695Y88005D01*
X375447Y88317D01*
X376092Y88812D01*
X376587Y89458D01*
X376661Y89635D01*
X379528D01*
Y89370D01*
X384252D01*
Y93110D01*
X379528D01*
Y92846D01*
X376379D01*
X376092Y93221D01*
X375447Y93716D01*
X374695Y94027D01*
X373888Y94134D01*
D02*
G37*
G36*
X455724Y93126D02*
X451287D01*
Y89083D01*
X455724D01*
Y93126D01*
D02*
G37*
G36*
X450287D02*
X445850D01*
Y89083D01*
X450287D01*
Y93126D01*
D02*
G37*
G36*
X400606D02*
X396169D01*
Y89083D01*
X400606D01*
Y93126D01*
D02*
G37*
G36*
X395169D02*
X390732D01*
Y89083D01*
X395169D01*
Y93126D01*
D02*
G37*
G36*
X317929D02*
X313492D01*
Y89083D01*
X317929D01*
Y93126D01*
D02*
G37*
G36*
X312492D02*
X308055D01*
Y89083D01*
X312492D01*
Y93126D01*
D02*
G37*
G36*
X262811D02*
X258374D01*
Y89083D01*
X262811D01*
Y93126D01*
D02*
G37*
G36*
X257374D02*
X252937D01*
Y89083D01*
X257374D01*
Y93126D01*
D02*
G37*
G36*
X180134D02*
X175697D01*
Y89083D01*
X180134D01*
Y93126D01*
D02*
G37*
G36*
X174697D02*
X170260D01*
Y89083D01*
X174697D01*
Y93126D01*
D02*
G37*
G36*
X125016D02*
X120579D01*
Y89083D01*
X125016D01*
Y93126D01*
D02*
G37*
G36*
X119579D02*
X115142D01*
Y89083D01*
X119579D01*
Y93126D01*
D02*
G37*
G36*
X455724Y88083D02*
X451287D01*
Y84039D01*
X455724D01*
Y88083D01*
D02*
G37*
G36*
X450287D02*
X445850D01*
Y84039D01*
X450287D01*
Y88083D01*
D02*
G37*
G36*
X400606D02*
X396169D01*
Y84039D01*
X400606D01*
Y88083D01*
D02*
G37*
G36*
X395169D02*
X390732D01*
Y84039D01*
X395169D01*
Y88083D01*
D02*
G37*
G36*
X317929D02*
X313492D01*
Y84039D01*
X317929D01*
Y88083D01*
D02*
G37*
G36*
X312492D02*
X308055D01*
Y84039D01*
X312492D01*
Y88083D01*
D02*
G37*
G36*
X262811D02*
X258374D01*
Y84039D01*
X262811D01*
Y88083D01*
D02*
G37*
G36*
X257374D02*
X252937D01*
Y84039D01*
X257374D01*
Y88083D01*
D02*
G37*
G36*
X180134D02*
X175697D01*
Y84039D01*
X180134D01*
Y88083D01*
D02*
G37*
G36*
X174697D02*
X170260D01*
Y84039D01*
X174697D01*
Y88083D01*
D02*
G37*
G36*
X125016D02*
X120579D01*
Y84039D01*
X125016D01*
Y88083D01*
D02*
G37*
G36*
X119579D02*
X115142D01*
Y84039D01*
X119579D01*
Y88083D01*
D02*
G37*
G36*
X245669Y88157D02*
X244863Y88050D01*
X244111Y87739D01*
X243465Y87244D01*
X242970Y86598D01*
X242658Y85846D01*
X242552Y85039D01*
X242658Y84233D01*
X242970Y83481D01*
X243465Y82835D01*
X244111Y82340D01*
X244264Y82276D01*
Y77489D01*
X243338Y76562D01*
X231811D01*
Y77638D01*
X208425D01*
Y72677D01*
X231811D01*
Y73752D01*
X243920D01*
X244458Y73860D01*
X244914Y74164D01*
X246663Y75913D01*
X246967Y76369D01*
X247074Y76907D01*
Y82276D01*
X247228Y82340D01*
X247873Y82835D01*
X248369Y83481D01*
X248680Y84233D01*
X248786Y85039D01*
X248680Y85846D01*
X248369Y86598D01*
X247873Y87244D01*
X247228Y87739D01*
X246476Y88050D01*
X245669Y88157D01*
D02*
G37*
G36*
X478346Y52802D02*
X476494Y52619D01*
X474713Y52079D01*
X473072Y51201D01*
X471633Y50021D01*
X470452Y48582D01*
X469575Y46940D01*
X469034Y45159D01*
X468852Y43307D01*
X469034Y41455D01*
X469575Y39674D01*
X470452Y38032D01*
X471633Y36593D01*
X473072Y35413D01*
X474713Y34535D01*
X476494Y33995D01*
X478346Y33812D01*
X480199Y33995D01*
X481980Y34535D01*
X483621Y35413D01*
X485060Y36593D01*
X486241Y38032D01*
X487118Y39674D01*
X487659Y41455D01*
X487841Y43307D01*
X487659Y45159D01*
X487118Y46940D01*
X486241Y48582D01*
X485060Y50021D01*
X483621Y51201D01*
X481980Y52079D01*
X480199Y52619D01*
X478346Y52802D01*
D02*
G37*
G36*
X92520D02*
X90667Y52619D01*
X88886Y52079D01*
X87245Y51201D01*
X85806Y50021D01*
X84625Y48582D01*
X83748Y46940D01*
X83208Y45159D01*
X83025Y43307D01*
X83208Y41455D01*
X83748Y39674D01*
X84625Y38032D01*
X85806Y36593D01*
X87245Y35413D01*
X88886Y34535D01*
X90667Y33995D01*
X92520Y33812D01*
X94372Y33995D01*
X96153Y34535D01*
X97795Y35413D01*
X99233Y36593D01*
X100414Y38032D01*
X101292Y39674D01*
X101832Y41455D01*
X102014Y43307D01*
X101832Y45159D01*
X101292Y46940D01*
X100414Y48582D01*
X99233Y50021D01*
X97795Y51201D01*
X96153Y52079D01*
X94372Y52619D01*
X92520Y52802D01*
D02*
G37*
%LPD*%
D10*
X251969Y177953D02*
X254724Y175197D01*
X261024D01*
Y173622D02*
Y175197D01*
X262992Y170473D02*
Y171653D01*
X261024Y173622D02*
X262992Y171653D01*
Y170473D02*
X264764Y168701D01*
X266781D01*
X268602Y171653D02*
X269882D01*
X264961Y166929D02*
X269882D01*
X265354Y164961D02*
X266634D01*
X267028Y165354D02*
X269882D01*
X266634Y164961D02*
X267028Y165354D01*
X266781Y168701D02*
X266978Y168504D01*
X269882D01*
X131496Y198031D02*
X132053Y197475D01*
X297047Y168504D02*
X299210D01*
X301575Y170869D01*
X305512Y170472D02*
Y174755D01*
X301969Y166929D02*
X305512Y170472D01*
X297047Y166929D02*
X301969D01*
X297047Y157480D02*
X300000D01*
X300787Y156693D01*
X301181Y159055D02*
X302756Y157480D01*
X329528D01*
X297047Y160630D02*
X301973D01*
X297047Y159055D02*
X301181D01*
X301973Y160630D02*
X302364Y160238D01*
X308268Y174409D02*
X313248Y179390D01*
X305118Y175149D02*
X305512Y174755D01*
X304700Y178830D02*
X305118Y178411D01*
Y175149D02*
Y178411D01*
X313248Y179390D02*
Y182539D01*
X313779Y183071D01*
X308268Y169291D02*
Y174409D01*
X313681Y165256D02*
X315354Y166929D01*
X313681Y162205D02*
Y165256D01*
X315354Y166929D02*
X322441D01*
X304331Y165354D02*
X308268Y169291D01*
X304917Y163779D02*
X304917Y163779D01*
X304983D01*
X305180Y163976D02*
X305906D01*
X304983Y163779D02*
X305180Y163976D01*
X297047Y165354D02*
X304331D01*
X297047Y163779D02*
X304917D01*
X277953Y175000D02*
Y179528D01*
X279134Y180709D02*
X281035D01*
X277953Y179528D02*
X279134Y180709D01*
X276378Y180709D02*
X278346Y182677D01*
X276378Y175000D02*
Y180709D01*
X281035Y180709D02*
X281496Y181170D01*
X279626Y177301D02*
Y178088D01*
X280278Y178740D02*
X283791D01*
X279626Y178088D02*
X280278Y178740D01*
X279528Y177202D02*
X279626Y177301D01*
X274803Y175000D02*
Y194095D01*
X272767Y176772D02*
X273228Y176310D01*
Y175000D02*
Y176310D01*
X272047Y176772D02*
X272767D01*
X279528Y175000D02*
Y177202D01*
X297047Y162205D02*
X305709D01*
X276378Y144882D02*
X279528Y141732D01*
X274803Y144230D02*
Y144886D01*
X276378Y144882D02*
Y147835D01*
X275840Y143042D02*
Y143193D01*
X274803Y144230D02*
X275840Y143193D01*
X258894Y158894D02*
X264949D01*
X261811Y155177D02*
X262379Y155744D01*
X259842Y156299D02*
X260862Y157319D01*
X261811Y149606D02*
Y155177D01*
X260862Y157319D02*
X265601D01*
X263779Y154063D02*
X266799D01*
X262379Y155744D02*
X266253D01*
X263492Y160575D02*
X263547Y160630D01*
X264949Y158894D02*
X265110Y159055D01*
X266253Y155744D02*
X266415Y155905D01*
X265601Y157319D02*
X265762Y157480D01*
X263547Y160630D02*
X265006D01*
X266603Y152488D02*
X267452D01*
X266142Y152027D02*
X266603Y152488D01*
X269882Y146260D02*
Y151181D01*
X265006Y160630D02*
X269882D01*
X266311Y157480D02*
X269882D01*
X266415Y155905D02*
X266963D01*
X265110Y159055D02*
X265659D01*
X266963Y155905D02*
X266963Y155905D01*
X265659Y159055D02*
X265659Y159055D01*
X266311Y157480D02*
X266311Y157480D01*
X267616Y154331D02*
X267616Y154331D01*
X266799Y154063D02*
X267067Y154331D01*
X265659Y159055D02*
X269882D01*
X265762Y157480D02*
X266311D01*
X267616Y154331D02*
X269882D01*
X267719Y152756D02*
X269882D01*
X266963Y155905D02*
X269882D01*
X267452Y152488D02*
X267719Y152756D01*
X264310Y162256D02*
X264468Y162205D01*
X265006Y160630D02*
X265006Y160630D01*
X264310Y162256D02*
Y162311D01*
X267067Y154331D02*
X267616D01*
X264468Y162205D02*
X269882D01*
X277953Y145672D02*
X278743Y144882D01*
X280315D01*
X277953Y145672D02*
Y147835D01*
X273130Y144095D02*
X273228D01*
X274803Y144886D02*
X274803Y144886D01*
X274803Y144886D02*
Y147835D01*
X287402Y175000D02*
Y178347D01*
X287402Y178347D02*
X287402Y178347D01*
X287402Y143701D02*
X287402Y143701D01*
Y147835D01*
X273228Y144095D02*
Y147835D01*
X269882Y162205D02*
Y163779D01*
Y170079D02*
Y171653D01*
X268209Y172047D02*
X268602Y171653D01*
X265354Y172047D02*
X268209D01*
D12*
X267717Y181102D02*
Y183518D01*
Y181102D02*
X269291Y179528D01*
Y171752D02*
Y179528D01*
X263858Y183465D02*
Y188898D01*
Y183465D02*
X267717D01*
X263779Y188976D02*
X263858Y188898D01*
X242126Y148425D02*
X246457D01*
X249431Y151399D01*
Y155157D01*
X253092Y158819D01*
X302364Y160238D02*
X303154Y159449D01*
X323622D01*
X195575Y162598D02*
X200374D01*
X194394Y161417D02*
X195575Y162598D01*
X193307Y161417D02*
X194394D01*
X201161Y163386D02*
Y165354D01*
X200374Y162598D02*
X201161Y163386D01*
X193692Y154086D02*
X194078Y153701D01*
X193692Y154086D02*
Y161032D01*
X193307Y161417D02*
X193692Y161032D01*
X272106Y139134D02*
X272835Y139862D01*
X271202Y139134D02*
X272106D01*
X265748Y133680D02*
X271202Y139134D01*
X272835Y139862D02*
Y139921D01*
X265748Y131890D02*
Y133680D01*
X294016Y139842D02*
X294094Y139764D01*
X287402Y139921D02*
X287480Y139842D01*
X294016D01*
X293228Y184173D02*
X293307Y184252D01*
X287402Y184095D02*
X287480Y184173D01*
X293228D01*
X253996Y158819D02*
X254724Y159547D01*
X253092Y158819D02*
X253996D01*
X254724Y159547D02*
Y159606D01*
X320965Y178839D02*
X321260Y179134D01*
X313228Y174252D02*
X314173Y175197D01*
X320965Y175773D02*
Y178839D01*
X320389Y175197D02*
X320965Y175773D01*
X313228Y172776D02*
Y174252D01*
X314173Y175197D02*
X320389D01*
X312500Y172047D02*
X313228Y172776D01*
X312441Y172047D02*
X312500D01*
X327559Y163386D02*
Y172258D01*
X323622Y159449D02*
X327559Y163386D01*
X328136Y172835D02*
X333366D01*
X327559Y172258D02*
X328136Y172835D01*
X311899Y169970D02*
Y171505D01*
X312441Y172047D01*
X305906Y163976D02*
X311899Y169970D01*
X272047Y176772D02*
Y184095D01*
X268293D02*
X272047D01*
X305709Y162205D02*
X312441D01*
X357134Y135433D02*
X369882D01*
X272835Y139921D02*
Y143799D01*
X273130Y144095D01*
X287402Y139921D02*
Y143701D01*
Y178347D02*
Y184095D01*
X267717Y183518D02*
X268293Y184095D01*
X357000Y135299D02*
X357134Y135433D01*
X341177Y145831D02*
X353358D01*
X329528Y157480D02*
X341177Y145831D01*
X357000Y135299D02*
Y142189D01*
X353358Y145831D02*
X357000Y142189D01*
X357260Y172441D02*
X369882D01*
X357000Y172701D02*
X357260Y172441D01*
X356866Y172835D02*
X357000Y172701D01*
X339075Y172835D02*
X356866D01*
D13*
X151526Y200344D02*
X156054Y204873D01*
X151526Y200344D02*
X156595Y195276D01*
X147830Y196649D02*
X151526Y200344D01*
X202362Y222835D02*
X246063D01*
X133858Y200394D02*
X137603Y196649D01*
X133858Y200394D02*
Y203839D01*
X137603Y196649D02*
X147830D01*
X246063Y222835D02*
X274803Y194095D01*
X301575Y202756D02*
X383465D01*
X290158Y191339D02*
X301575Y202756D01*
X424213Y243504D02*
X475787D01*
X383465Y202756D02*
X424213Y243504D01*
X492126Y259842D02*
Y265748D01*
X475787Y243504D02*
X492126Y259842D01*
X354331Y252497D02*
Y265748D01*
X335433Y251575D02*
X353408D01*
X281496Y197638D02*
X335433Y251575D01*
X353408D02*
X354331Y252497D01*
X216535Y251316D02*
Y265748D01*
Y251316D02*
X217458Y250394D01*
X235433D01*
X246063Y239764D01*
Y231890D02*
Y239764D01*
Y231890D02*
X278346Y199606D01*
X228701Y85158D02*
X233054D01*
X234156Y86260D02*
Y88487D01*
X239764Y94095D01*
X233054Y85158D02*
X234156Y86260D01*
X243920Y75157D02*
X245669Y76907D01*
Y85039D01*
X220118Y75157D02*
X243920D01*
X159980Y130709D02*
X163957D01*
X156004D02*
X159980D01*
X160236Y123228D02*
Y130453D01*
Y123228D02*
X166142Y117323D01*
X259183D01*
X279528Y120866D02*
X286516Y113878D01*
X325590D01*
X332470Y113829D02*
X332520Y113779D01*
X325640Y113829D02*
X332470D01*
X325590Y113878D02*
X325640Y113829D01*
X312992Y102461D02*
X325590D01*
X264075D02*
X312992D01*
Y108268D01*
X258268D02*
X264075Y102461D01*
X257874Y108268D02*
X258268D01*
X325590Y102461D02*
Y108169D01*
X376408Y107608D02*
X381860D01*
X381890Y107579D01*
X449865Y101870D02*
X450787Y102793D01*
Y108268D01*
X395669Y101870D02*
X449865D01*
X395669Y101870D02*
Y108268D01*
X395669Y101870D02*
X395669Y101870D01*
X381890Y101870D02*
X395669D01*
X381890Y96949D02*
Y101870D01*
X129134Y108268D02*
X129134Y108268D01*
Y115551D01*
Y108268D02*
X175197D01*
X120079D02*
X129134D01*
Y115551D02*
X143799Y130217D01*
Y130709D01*
X150295D01*
X156054Y204873D02*
Y232885D01*
X161850Y238681D02*
Y242323D01*
X156054Y232885D02*
X161850Y238681D01*
D15*
X221260Y173622D02*
X227559Y167323D01*
X212461Y173622D02*
X221260D01*
X206161Y167323D02*
X212461Y173622D01*
X214705Y170866D02*
X219291D01*
X211161Y167323D02*
X214705Y170866D01*
X219291D02*
X224016Y166142D01*
X247258Y142913D02*
X257874Y153530D01*
Y157874D01*
X235039Y142913D02*
X247258D01*
X247244Y139370D02*
X259842Y151969D01*
Y156299D01*
X233071Y139370D02*
X247244D01*
X227559Y150394D02*
X235039Y142913D01*
X224016Y148425D02*
X233071Y139370D01*
X248031Y135827D02*
X261811Y149606D01*
X216161Y151555D02*
X231890Y135827D01*
X248031D01*
X238976Y155512D02*
X243410Y159946D01*
X248198D01*
X227559Y150394D02*
Y167323D01*
X224016Y148425D02*
Y166142D01*
X254449Y128071D02*
X268898Y142520D01*
X201161Y128071D02*
X254449D01*
X208066Y130315D02*
X253151D01*
X266142Y143306D01*
X251560Y132473D02*
X263779Y144692D01*
X213728Y132473D02*
X251560D01*
X250721Y162469D02*
X264153D01*
X248198Y159946D02*
X250721Y162469D01*
X278346Y182677D02*
Y199606D01*
X281496Y181170D02*
Y197638D01*
X286288Y191339D02*
X290158D01*
X284252Y189303D02*
X286288Y191339D01*
X284252Y179201D02*
Y189303D01*
X283791Y178740D02*
X284252Y179201D01*
X203342Y95157D02*
X220118D01*
X202756Y95743D02*
Y110630D01*
Y95743D02*
X203342Y95157D01*
X185827Y130315D02*
Y130657D01*
X188484Y133314D02*
Y137008D01*
X185827Y130657D02*
X188484Y133314D01*
X159980Y130709D02*
X160236Y130453D01*
X259183Y117323D02*
X275984Y134124D01*
X279528Y120866D02*
Y141732D01*
X363652Y107608D02*
X376408D01*
X351969Y119291D02*
X363652Y107608D01*
X282283Y140551D02*
X283966Y138869D01*
Y135572D02*
Y138869D01*
Y135572D02*
X300246Y119291D01*
X351969D01*
X275840Y143042D02*
X275984Y142898D01*
Y134124D02*
Y142898D01*
X254937Y160681D02*
X263386D01*
X254724Y160468D02*
X254937Y160681D01*
X263386D02*
X263492Y160575D01*
X264153Y162469D02*
X264310Y162311D01*
X257874Y157874D02*
X258894Y158894D01*
X263779Y144692D02*
Y154063D01*
X266142Y143306D02*
Y152027D01*
X268898Y142520D02*
Y145276D01*
X206299Y132082D02*
X208066Y130315D01*
X211161Y135039D02*
X213728Y132473D01*
X211161Y135039D02*
Y137008D01*
X206161D02*
X206299Y136870D01*
Y132082D02*
Y136870D01*
X268898Y145276D02*
X269882Y146260D01*
X201161Y128071D02*
Y137008D01*
X206161Y165354D02*
Y167323D01*
X211161Y165354D02*
Y167323D01*
X216161Y151555D02*
Y165354D01*
X201161Y128071D02*
X201181Y128051D01*
X194193Y137008D02*
X201161D01*
X282283Y140551D02*
Y142913D01*
X280315Y144882D02*
X282283Y142913D01*
D41*
X191634Y205906D02*
D03*
X198917D02*
D03*
X156595Y195276D02*
D03*
X163878D02*
D03*
D42*
X264961Y175197D02*
D03*
Y172047D02*
D03*
X261024Y175197D02*
D03*
Y178347D02*
D03*
D43*
X273228Y147835D02*
D03*
X274803D02*
D03*
X276378D02*
D03*
X277953D02*
D03*
X279528D02*
D03*
X281102D02*
D03*
X282677D02*
D03*
X284252D02*
D03*
X285827D02*
D03*
X287402D02*
D03*
X288976D02*
D03*
X290551D02*
D03*
X292126D02*
D03*
X293701D02*
D03*
Y175000D02*
D03*
X292126D02*
D03*
X290551D02*
D03*
X288976D02*
D03*
X287402D02*
D03*
X285827D02*
D03*
X284252D02*
D03*
X282677D02*
D03*
X281102D02*
D03*
X279528D02*
D03*
X277953D02*
D03*
X276378D02*
D03*
X274803D02*
D03*
X273228D02*
D03*
D44*
X297047Y151181D02*
D03*
Y152756D02*
D03*
Y154331D02*
D03*
Y155905D02*
D03*
Y157480D02*
D03*
Y159055D02*
D03*
Y160630D02*
D03*
Y162205D02*
D03*
Y163779D02*
D03*
Y165354D02*
D03*
Y166929D02*
D03*
Y168504D02*
D03*
Y170079D02*
D03*
Y171653D02*
D03*
X269882D02*
D03*
Y170079D02*
D03*
Y168504D02*
D03*
Y166929D02*
D03*
Y165354D02*
D03*
Y163779D02*
D03*
Y162205D02*
D03*
Y160630D02*
D03*
Y159055D02*
D03*
Y157480D02*
D03*
Y155905D02*
D03*
Y154331D02*
D03*
Y152756D02*
D03*
Y151181D02*
D03*
D45*
X283465Y161417D02*
D03*
D46*
X272047Y184095D02*
D03*
Y187559D02*
D03*
X254724Y159606D02*
D03*
Y156142D02*
D03*
X246063Y160000D02*
D03*
Y156535D02*
D03*
X272835Y139921D02*
D03*
Y136457D02*
D03*
X287402Y139921D02*
D03*
Y136457D02*
D03*
X376378Y104173D02*
D03*
Y107638D02*
D03*
X194078Y150236D02*
D03*
Y153701D02*
D03*
X287402Y187559D02*
D03*
Y184095D02*
D03*
D47*
X263543Y183465D02*
D03*
X260079D02*
D03*
X312441Y172047D02*
D03*
X315905D02*
D03*
X313622Y162205D02*
D03*
X317087D02*
D03*
X377716Y183071D02*
D03*
X374252D02*
D03*
X335984Y113779D02*
D03*
X332520D02*
D03*
X164803Y130709D02*
D03*
X168268D02*
D03*
D48*
X257185Y171260D02*
D03*
X251476D02*
D03*
X257185Y165748D02*
D03*
X251476D02*
D03*
X374311Y189764D02*
D03*
X380020D02*
D03*
X395374Y177559D02*
D03*
X389665D02*
D03*
X194193Y137008D02*
D03*
X188484D02*
D03*
X138091Y130709D02*
D03*
X143799D02*
D03*
X339075Y172835D02*
D03*
X333366D02*
D03*
X150295Y130709D02*
D03*
X156004D02*
D03*
D49*
X369882Y172441D02*
D03*
X374213D02*
D03*
Y135433D02*
D03*
X369882D02*
D03*
D50*
X381890Y107579D02*
D03*
Y101870D02*
D03*
Y91240D02*
D03*
Y96949D02*
D03*
X325590Y113878D02*
D03*
Y108169D02*
D03*
Y96752D02*
D03*
Y102461D02*
D03*
X201181Y122343D02*
D03*
Y128051D02*
D03*
D51*
X133858Y203839D02*
D03*
X131299D02*
D03*
X128740D02*
D03*
X126181D02*
D03*
X123622D02*
D03*
D52*
X142224Y214370D02*
D03*
X115256D02*
D03*
D53*
X141339Y204724D02*
D03*
X116142D02*
D03*
D54*
X133465Y214370D02*
D03*
X124016D02*
D03*
D55*
X201161Y165354D02*
D03*
X206161D02*
D03*
X211161D02*
D03*
X216161D02*
D03*
Y137008D02*
D03*
X211161D02*
D03*
X206161D02*
D03*
X201161D02*
D03*
D56*
X220118Y75157D02*
D03*
X228701Y85158D02*
D03*
X220118Y95157D02*
D03*
X228701Y105157D02*
D03*
D57*
X389665Y189764D02*
D03*
X402461D02*
D03*
D58*
X179882Y242323D02*
D03*
X170866D02*
D03*
X161850D02*
D03*
D59*
X170866Y215748D02*
D03*
D60*
X357000Y172701D02*
D03*
Y135299D02*
D03*
D61*
X450787Y88583D02*
D03*
X395669D02*
D03*
X450787Y108268D02*
D03*
X395669D02*
D03*
X312992Y88583D02*
D03*
X257874D02*
D03*
X312992Y108268D02*
D03*
X257874D02*
D03*
X175197Y88583D02*
D03*
X120079D02*
D03*
X175197Y108268D02*
D03*
X120079D02*
D03*
D62*
X191289Y206250D02*
X191634Y205906D01*
X191289Y206250D02*
Y213297D01*
X190945Y213642D02*
X191289Y213297D01*
X190125Y213642D02*
X190945D01*
X171260Y215354D02*
X188412D01*
X190125Y213642D01*
X170866Y215748D02*
X171260Y215354D01*
X403704Y177559D02*
X405958Y175305D01*
X395374Y177559D02*
X403704D01*
X373888Y91016D02*
X374112Y91240D01*
X381890D01*
X334744Y96752D02*
X335039Y96457D01*
X325590Y96752D02*
X334744D01*
X131496Y130709D02*
X138091D01*
X208563Y122343D02*
X209055Y122835D01*
X201181Y122343D02*
X208563D01*
X170866Y197526D02*
X170903Y197489D01*
X170866Y197526D02*
Y215748D01*
Y242323D01*
D63*
X257677Y170374D02*
X259547D01*
X262992Y166929D01*
X257185Y170866D02*
X257677Y170374D01*
X261221Y165748D02*
X262008Y164961D01*
X265354D01*
X257185Y165748D02*
X261221D01*
X262992Y166929D02*
X264961D01*
X131299Y198228D02*
Y203839D01*
Y198228D02*
X131496Y198031D01*
X128482D02*
X128740Y198290D01*
Y203839D01*
X389665Y177559D02*
Y189764D01*
X380020D02*
X389665D01*
X374282Y189734D02*
X374311Y189764D01*
X373917Y189370D02*
X374282Y189734D01*
X304331Y189370D02*
X373917D01*
X374282Y183100D02*
Y189734D01*
X374252Y183071D02*
X374282Y183100D01*
X301575Y170869D02*
Y173622D01*
X299213Y184252D02*
X304331Y189370D01*
X299213Y175984D02*
Y184252D01*
Y175984D02*
X301575Y173622D01*
D64*
X251409Y170306D02*
X251476Y170374D01*
Y170866D01*
X250481Y170306D02*
X251409D01*
X249989Y169814D02*
X250481Y170306D01*
X237272Y169814D02*
X249989D01*
X218015Y189072D02*
X237272Y169814D01*
X132053Y195832D02*
X138813Y189072D01*
X218015D01*
X132053Y195832D02*
Y197475D01*
X230152Y172672D02*
X236024Y166800D01*
X228557Y174266D02*
X230152Y172672D01*
X236024Y166800D02*
X249989D01*
X216766Y186057D02*
X228557Y174266D01*
Y174266D02*
Y174266D01*
X251409Y166308D02*
X251476Y166240D01*
Y165748D02*
Y166240D01*
X249989Y166800D02*
X250481Y166308D01*
X251409D01*
X128482Y195140D02*
Y198031D01*
Y195140D02*
X129921Y193701D01*
X137565Y186057D02*
X216766D01*
X216766Y186057D01*
X129921Y193701D02*
X129921D01*
X137565Y186057D01*
D65*
X473425Y236221D02*
D03*
X510827D02*
D03*
X335630D02*
D03*
X373031D02*
D03*
X197835D02*
D03*
X235236D02*
D03*
X60039D02*
D03*
X97441D02*
D03*
D66*
X482283Y265748D02*
D03*
X492126D02*
D03*
X501968D02*
D03*
X344488D02*
D03*
X354331D02*
D03*
X364173D02*
D03*
X206693D02*
D03*
X216535D02*
D03*
X226378D02*
D03*
X68898D02*
D03*
X78740D02*
D03*
X88583D02*
D03*
D67*
X251969Y177953D02*
D03*
X263779Y188976D02*
D03*
X190945Y213642D02*
D03*
X202362Y222835D02*
D03*
X242126Y148425D02*
D03*
X405958Y175305D02*
D03*
X257087Y199606D02*
D03*
X306299Y195276D02*
D03*
X238976Y155512D02*
D03*
X373888Y91016D02*
D03*
X335039Y96457D02*
D03*
X131496Y130709D02*
D03*
X209055Y122835D02*
D03*
X170903Y197489D02*
D03*
X193307Y161417D02*
D03*
X265748Y131890D02*
D03*
X294094Y139764D02*
D03*
X293307Y184252D02*
D03*
X313779Y183071D02*
D03*
X304700Y178830D02*
D03*
X321260Y179134D02*
D03*
X322441Y166929D02*
D03*
X245669Y85039D02*
D03*
X239764Y94095D02*
D03*
X185827Y130315D02*
D03*
X202756Y110630D02*
D03*
D68*
X478346Y43307D02*
D03*
Y153543D02*
D03*
X92520D02*
D03*
Y43307D02*
D03*
M02*
