M48
;Layer_Color=9474304
;FILE_FORMAT=2:4
INCH,LZ
;TYPE=PLATED
T1F00S00C0.0276
T2F00S00C0.0433
T3F00S00C0.0709
T4F00S00C0.1378
%
T01
X01315Y013071
X018583Y013032
X020906Y012283
X020276Y011063
X023976Y009409
X024567Y008504
X026575Y013189
X029409Y013976
X024213Y014843
X023898Y015551
X033504Y009646
X037389Y009102
X040596Y01753
X032126Y017913
X031378Y018307
X032244Y016693
X03047Y017883
X029331Y018425
X03063Y019528
X026378Y018898
X025709Y019961
X025197Y017795
X019331Y016142
X019094Y021364
X020236Y022283
X01709Y019749
T02
X048228Y026575
X049213
X050197
X036417
X035433
X034449
X022638
X021654
X020669
X008858
X007874
X00689
T03
X047343Y023622
X051083
X037303
X033563
X023524
X019783
X009744
X006004
T04
X009252Y004331
Y015354
X047835
Y004331
M30
