G04*
G04 #@! TF.GenerationSoftware,Altium Limited,Altium Designer,21.6.4 (81)*
G04*
G04 Layer_Color=16711935*
%FSLAX25Y25*%
%MOIN*%
G70*
G04*
G04 #@! TF.SameCoordinates,229126BB-2D6E-4CE4-B507-F74EAE748698*
G04*
G04*
G04 #@! TF.FilePolarity,Negative*
G04*
G01*
G75*
%ADD37C,0.10642*%
%ADD38C,0.07887*%
%ADD39C,0.05800*%
%ADD40C,0.18517*%
D37*
X473425Y236221D02*
D03*
X510827D02*
D03*
X335630D02*
D03*
X373031D02*
D03*
X197835D02*
D03*
X235236D02*
D03*
X60039D02*
D03*
X97441D02*
D03*
D38*
X482283Y265748D02*
D03*
X492126D02*
D03*
X501968D02*
D03*
X344488D02*
D03*
X354331D02*
D03*
X364173D02*
D03*
X206693D02*
D03*
X216535D02*
D03*
X226378D02*
D03*
X68898D02*
D03*
X78740D02*
D03*
X88583D02*
D03*
D39*
X251969Y177953D02*
D03*
X263779Y188976D02*
D03*
X190945Y213642D02*
D03*
X202362Y222835D02*
D03*
X242126Y148425D02*
D03*
X405958Y175305D02*
D03*
X257087Y199606D02*
D03*
X306299Y195276D02*
D03*
X238976Y155512D02*
D03*
X373888Y91016D02*
D03*
X335039Y96457D02*
D03*
X131496Y130709D02*
D03*
X209055Y122835D02*
D03*
X170903Y197489D02*
D03*
X193307Y161417D02*
D03*
X265748Y131890D02*
D03*
X294094Y139764D02*
D03*
X293307Y184252D02*
D03*
X313779Y183071D02*
D03*
X304700Y178830D02*
D03*
X321260Y179134D02*
D03*
X322441Y166929D02*
D03*
X245669Y85039D02*
D03*
X239764Y94095D02*
D03*
X185827Y130315D02*
D03*
X202756Y110630D02*
D03*
D40*
X478346Y43307D02*
D03*
Y153543D02*
D03*
X92520D02*
D03*
Y43307D02*
D03*
M02*
