G04*
G04 #@! TF.GenerationSoftware,Altium Limited,Altium Designer,21.6.4 (81)*
G04*
G04 Layer_Physical_Order=2*
G04 Layer_Color=16711680*
%FSLAX25Y25*%
%MOIN*%
G70*
G04*
G04 #@! TF.SameCoordinates,229126BB-2D6E-4CE4-B507-F74EAE748698*
G04*
G04*
G04 #@! TF.FilePolarity,Positive*
G04*
G01*
G75*
%ADD13C,0.01575*%
%ADD15C,0.01000*%
%ADD62C,0.01968*%
%ADD65C,0.09843*%
%ADD66C,0.07087*%
%ADD67C,0.05000*%
%ADD68C,0.17717*%
G36*
X523622Y21654D02*
X47244D01*
Y287402D01*
X105118D01*
Y231102D01*
X105156Y230331D01*
X105457Y228817D01*
X106048Y227391D01*
X106905Y226107D01*
X107997Y225016D01*
X109280Y224158D01*
X110706Y223567D01*
X112220Y223266D01*
X112992Y223228D01*
X144488D01*
X145260Y223266D01*
X146774Y223567D01*
X148200Y224158D01*
X149483Y225016D01*
X150575Y226107D01*
X151432Y227391D01*
X152023Y228817D01*
X152324Y230331D01*
X152362Y231102D01*
Y287402D01*
X523622D01*
Y21654D01*
D02*
G37*
%LPC*%
G36*
X207193Y270265D02*
Y266248D01*
X211210D01*
X211119Y266934D01*
X210662Y268039D01*
X209933Y268988D01*
X208984Y269717D01*
X207879Y270174D01*
X207193Y270265D01*
D02*
G37*
G36*
X344988D02*
Y266248D01*
X349005D01*
X348915Y266934D01*
X348457Y268039D01*
X347728Y268988D01*
X346779Y269717D01*
X345674Y270174D01*
X344988Y270265D01*
D02*
G37*
G36*
X69398Y270265D02*
Y266248D01*
X73414D01*
X73324Y266934D01*
X72866Y268039D01*
X72138Y268988D01*
X71189Y269717D01*
X70084Y270174D01*
X69398Y270265D01*
D02*
G37*
G36*
X482783D02*
Y266248D01*
X486800D01*
X486710Y266934D01*
X486252Y268039D01*
X485524Y268988D01*
X484575Y269717D01*
X483469Y270174D01*
X482783Y270265D01*
D02*
G37*
G36*
X481783Y270265D02*
X481097Y270174D01*
X479992Y269717D01*
X479043Y268988D01*
X478315Y268039D01*
X477857Y266934D01*
X477767Y266248D01*
X481783D01*
Y270265D01*
D02*
G37*
G36*
X68398Y270265D02*
X67712Y270174D01*
X66606Y269717D01*
X65657Y268988D01*
X64929Y268039D01*
X64471Y266934D01*
X64381Y266248D01*
X68398D01*
Y270265D01*
D02*
G37*
G36*
X206193D02*
X205507Y270174D01*
X204402Y269717D01*
X203453Y268988D01*
X202724Y268039D01*
X202267Y266934D01*
X202176Y266248D01*
X206193D01*
Y270265D01*
D02*
G37*
G36*
X343988D02*
X343302Y270174D01*
X342197Y269717D01*
X341248Y268988D01*
X340520Y268039D01*
X340062Y266934D01*
X339971Y266248D01*
X343988D01*
Y270265D01*
D02*
G37*
G36*
X501968Y269917D02*
X500889Y269776D01*
X499884Y269359D01*
X499020Y268696D01*
X498358Y267833D01*
X497941Y266827D01*
X497799Y265748D01*
X497941Y264669D01*
X498358Y263663D01*
X499020Y262800D01*
X499884Y262137D01*
X500889Y261721D01*
X501968Y261578D01*
X503048Y261721D01*
X504053Y262137D01*
X504917Y262800D01*
X505579Y263663D01*
X505996Y264669D01*
X506138Y265748D01*
X505996Y266827D01*
X505579Y267833D01*
X504917Y268696D01*
X504053Y269359D01*
X503048Y269776D01*
X501968Y269917D01*
D02*
G37*
G36*
X492126D02*
X491047Y269776D01*
X490041Y269359D01*
X489178Y268696D01*
X488515Y267833D01*
X488098Y266827D01*
X487956Y265748D01*
X488098Y264669D01*
X488515Y263663D01*
X489178Y262800D01*
X490041Y262137D01*
X491047Y261721D01*
X492126Y261578D01*
X493205Y261721D01*
X494211Y262137D01*
X495074Y262800D01*
X495737Y263663D01*
X496153Y264669D01*
X496295Y265748D01*
X496153Y266827D01*
X495737Y267833D01*
X495074Y268696D01*
X494211Y269359D01*
X493205Y269776D01*
X492126Y269917D01*
D02*
G37*
G36*
X364173D02*
X363094Y269776D01*
X362088Y269359D01*
X361225Y268696D01*
X360562Y267833D01*
X360146Y266827D01*
X360004Y265748D01*
X360146Y264669D01*
X360562Y263663D01*
X361225Y262800D01*
X362088Y262137D01*
X363094Y261721D01*
X364173Y261578D01*
X365252Y261721D01*
X366258Y262137D01*
X367122Y262800D01*
X367784Y263663D01*
X368201Y264669D01*
X368343Y265748D01*
X368201Y266827D01*
X367784Y267833D01*
X367122Y268696D01*
X366258Y269359D01*
X365252Y269776D01*
X364173Y269917D01*
D02*
G37*
G36*
X354331D02*
X353252Y269776D01*
X352246Y269359D01*
X351382Y268696D01*
X350720Y267833D01*
X350303Y266827D01*
X350161Y265748D01*
X350303Y264669D01*
X350720Y263663D01*
X351382Y262800D01*
X352246Y262137D01*
X353252Y261721D01*
X354331Y261578D01*
X355410Y261721D01*
X356416Y262137D01*
X357279Y262800D01*
X357942Y263663D01*
X358358Y264669D01*
X358500Y265748D01*
X358358Y266827D01*
X357942Y267833D01*
X357279Y268696D01*
X356416Y269359D01*
X355410Y269776D01*
X354331Y269917D01*
D02*
G37*
G36*
X226378D02*
X225299Y269776D01*
X224293Y269359D01*
X223430Y268696D01*
X222767Y267833D01*
X222351Y266827D01*
X222208Y265748D01*
X222351Y264669D01*
X222767Y263663D01*
X223430Y262800D01*
X224293Y262137D01*
X225299Y261721D01*
X226378Y261578D01*
X227457Y261721D01*
X228463Y262137D01*
X229326Y262800D01*
X229989Y263663D01*
X230405Y264669D01*
X230547Y265748D01*
X230405Y266827D01*
X229989Y267833D01*
X229326Y268696D01*
X228463Y269359D01*
X227457Y269776D01*
X226378Y269917D01*
D02*
G37*
G36*
X216535D02*
X215456Y269776D01*
X214451Y269359D01*
X213587Y268696D01*
X212925Y267833D01*
X212508Y266827D01*
X212366Y265748D01*
X212508Y264669D01*
X212925Y263663D01*
X213587Y262800D01*
X214451Y262137D01*
X215456Y261721D01*
X216535Y261578D01*
X217615Y261721D01*
X218620Y262137D01*
X219484Y262800D01*
X220146Y263663D01*
X220563Y264669D01*
X220705Y265748D01*
X220563Y266827D01*
X220146Y267833D01*
X219484Y268696D01*
X218620Y269359D01*
X217615Y269776D01*
X216535Y269917D01*
D02*
G37*
G36*
X88583D02*
X87503Y269776D01*
X86498Y269359D01*
X85634Y268696D01*
X84972Y267833D01*
X84555Y266827D01*
X84413Y265748D01*
X84555Y264669D01*
X84972Y263663D01*
X85634Y262800D01*
X86498Y262137D01*
X87503Y261721D01*
X88583Y261578D01*
X89662Y261721D01*
X90667Y262137D01*
X91531Y262800D01*
X92194Y263663D01*
X92610Y264669D01*
X92752Y265748D01*
X92610Y266827D01*
X92194Y267833D01*
X91531Y268696D01*
X90667Y269359D01*
X89662Y269776D01*
X88583Y269917D01*
D02*
G37*
G36*
X481783Y265248D02*
X477767D01*
X477857Y264562D01*
X478315Y263457D01*
X479043Y262508D01*
X479992Y261779D01*
X481097Y261322D01*
X481783Y261231D01*
Y265248D01*
D02*
G37*
G36*
X211210D02*
X207193D01*
Y261231D01*
X207879Y261322D01*
X208984Y261779D01*
X209933Y262508D01*
X210662Y263457D01*
X211119Y264562D01*
X211210Y265248D01*
D02*
G37*
G36*
X349005D02*
X344988D01*
Y261231D01*
X345674Y261322D01*
X346779Y261779D01*
X347728Y262508D01*
X348457Y263457D01*
X348915Y264562D01*
X349005Y265248D01*
D02*
G37*
G36*
X73414D02*
X69398D01*
Y261231D01*
X70084Y261322D01*
X71189Y261779D01*
X72138Y262508D01*
X72866Y263457D01*
X73324Y264562D01*
X73414Y265248D01*
D02*
G37*
G36*
X68398D02*
X64381D01*
X64471Y264562D01*
X64929Y263457D01*
X65657Y262508D01*
X66606Y261779D01*
X67712Y261322D01*
X68398Y261231D01*
Y265248D01*
D02*
G37*
G36*
X343988D02*
X339971D01*
X340062Y264562D01*
X340520Y263457D01*
X341248Y262508D01*
X342197Y261779D01*
X343302Y261322D01*
X343988Y261231D01*
Y265248D01*
D02*
G37*
G36*
X206193D02*
X202176D01*
X202267Y264562D01*
X202724Y263457D01*
X203453Y262508D01*
X204402Y261779D01*
X205507Y261322D01*
X206193Y261231D01*
Y265248D01*
D02*
G37*
G36*
X486800D02*
X482783D01*
Y261231D01*
X483469Y261322D01*
X484575Y261779D01*
X485524Y262508D01*
X486252Y263457D01*
X486710Y264562D01*
X486800Y265248D01*
D02*
G37*
G36*
X510827Y241780D02*
X509388Y241590D01*
X508047Y241035D01*
X506896Y240152D01*
X506012Y239000D01*
X505457Y237659D01*
X505267Y236221D01*
X505457Y234782D01*
X506012Y233441D01*
X506896Y232289D01*
X508047Y231406D01*
X509388Y230851D01*
X510827Y230661D01*
X512266Y230851D01*
X513607Y231406D01*
X514758Y232289D01*
X515641Y233441D01*
X516197Y234782D01*
X516386Y236221D01*
X516197Y237659D01*
X515641Y239000D01*
X514758Y240152D01*
X513607Y241035D01*
X512266Y241590D01*
X510827Y241780D01*
D02*
G37*
G36*
X473425D02*
X471986Y241590D01*
X470646Y241035D01*
X469494Y240152D01*
X468611Y239000D01*
X468055Y237659D01*
X467866Y236221D01*
X468055Y234782D01*
X468611Y233441D01*
X469494Y232289D01*
X470646Y231406D01*
X471986Y230851D01*
X473425Y230661D01*
X474864Y230851D01*
X476205Y231406D01*
X477356Y232289D01*
X478240Y233441D01*
X478795Y234782D01*
X478985Y236221D01*
X478795Y237659D01*
X478240Y239000D01*
X477356Y240152D01*
X476205Y241035D01*
X474864Y241590D01*
X473425Y241780D01*
D02*
G37*
G36*
X373031D02*
X371593Y241590D01*
X370252Y241035D01*
X369100Y240152D01*
X368217Y239000D01*
X367662Y237659D01*
X367472Y236221D01*
X367662Y234782D01*
X368217Y233441D01*
X369100Y232289D01*
X370252Y231406D01*
X371593Y230851D01*
X373031Y230661D01*
X374470Y230851D01*
X375811Y231406D01*
X376963Y232289D01*
X377846Y233441D01*
X378401Y234782D01*
X378591Y236221D01*
X378401Y237659D01*
X377846Y239000D01*
X376963Y240152D01*
X375811Y241035D01*
X374470Y241590D01*
X373031Y241780D01*
D02*
G37*
G36*
X335630D02*
X334191Y241590D01*
X332850Y241035D01*
X331699Y240152D01*
X330815Y239000D01*
X330260Y237659D01*
X330071Y236221D01*
X330260Y234782D01*
X330815Y233441D01*
X331699Y232289D01*
X332850Y231406D01*
X334191Y230851D01*
X335630Y230661D01*
X337069Y230851D01*
X338410Y231406D01*
X339561Y232289D01*
X340444Y233441D01*
X341000Y234782D01*
X341189Y236221D01*
X341000Y237659D01*
X340444Y239000D01*
X339561Y240152D01*
X338410Y241035D01*
X337069Y241590D01*
X335630Y241780D01*
D02*
G37*
G36*
X235236D02*
X233797Y241590D01*
X232456Y241035D01*
X231305Y240152D01*
X230422Y239000D01*
X229866Y237659D01*
X229677Y236221D01*
X229866Y234782D01*
X230422Y233441D01*
X231305Y232289D01*
X232456Y231406D01*
X233797Y230851D01*
X235236Y230661D01*
X236675Y230851D01*
X238016Y231406D01*
X239167Y232289D01*
X240051Y233441D01*
X240606Y234782D01*
X240796Y236221D01*
X240606Y237659D01*
X240051Y239000D01*
X239167Y240152D01*
X238016Y241035D01*
X236675Y241590D01*
X235236Y241780D01*
D02*
G37*
G36*
X197835D02*
X196396Y241590D01*
X195055Y241035D01*
X193904Y240152D01*
X193020Y239000D01*
X192465Y237659D01*
X192275Y236221D01*
X192465Y234782D01*
X193020Y233441D01*
X193904Y232289D01*
X195055Y231406D01*
X196396Y230851D01*
X197835Y230661D01*
X199274Y230851D01*
X200614Y231406D01*
X201766Y232289D01*
X202649Y233441D01*
X203205Y234782D01*
X203394Y236221D01*
X203205Y237659D01*
X202649Y239000D01*
X201766Y240152D01*
X200614Y241035D01*
X199274Y241590D01*
X197835Y241780D01*
D02*
G37*
G36*
X97441D02*
X96002Y241590D01*
X94661Y241035D01*
X93510Y240152D01*
X92626Y239000D01*
X92071Y237659D01*
X91882Y236221D01*
X92071Y234782D01*
X92626Y233441D01*
X93510Y232289D01*
X94661Y231406D01*
X96002Y230851D01*
X97441Y230661D01*
X98880Y230851D01*
X100221Y231406D01*
X101372Y232289D01*
X102255Y233441D01*
X102811Y234782D01*
X103000Y236221D01*
X102811Y237659D01*
X102255Y239000D01*
X101372Y240152D01*
X100221Y241035D01*
X98880Y241590D01*
X97441Y241780D01*
D02*
G37*
G36*
X60039D02*
X58600Y241590D01*
X57260Y241035D01*
X56108Y240152D01*
X55225Y239000D01*
X54669Y237659D01*
X54480Y236221D01*
X54669Y234782D01*
X55225Y233441D01*
X56108Y232289D01*
X57260Y231406D01*
X58600Y230851D01*
X60039Y230661D01*
X61478Y230851D01*
X62819Y231406D01*
X63970Y232289D01*
X64854Y233441D01*
X65409Y234782D01*
X65599Y236221D01*
X65409Y237659D01*
X64854Y239000D01*
X63970Y240152D01*
X62819Y241035D01*
X61478Y241590D01*
X60039Y241780D01*
D02*
G37*
G36*
X78740Y269917D02*
X77661Y269776D01*
X76655Y269359D01*
X75792Y268696D01*
X75129Y267833D01*
X74713Y266827D01*
X74571Y265748D01*
X74713Y264669D01*
X75129Y263663D01*
X75792Y262800D01*
X76655Y262137D01*
X77335Y261856D01*
Y230709D01*
X77442Y230171D01*
X77747Y229715D01*
X89164Y218298D01*
X89620Y217993D01*
X90158Y217886D01*
X198819D01*
X199356Y217993D01*
X199812Y218298D01*
X201402Y219887D01*
X201555Y219824D01*
X202362Y219717D01*
X203169Y219824D01*
X203921Y220135D01*
X204566Y220630D01*
X205062Y221276D01*
X205373Y222028D01*
X205479Y222835D01*
X205373Y223641D01*
X205062Y224393D01*
X204566Y225039D01*
X203921Y225534D01*
X203169Y225846D01*
X202362Y225952D01*
X201555Y225846D01*
X200804Y225534D01*
X200158Y225039D01*
X199663Y224393D01*
X199351Y223641D01*
X199245Y222835D01*
X199351Y222028D01*
X199415Y221874D01*
X198237Y220696D01*
X90739D01*
X80145Y231291D01*
Y261856D01*
X80825Y262137D01*
X81688Y262800D01*
X82351Y263663D01*
X82768Y264669D01*
X82910Y265748D01*
X82768Y266827D01*
X82351Y267833D01*
X81688Y268696D01*
X80825Y269359D01*
X79819Y269776D01*
X78740Y269917D01*
D02*
G37*
G36*
X191445Y217106D02*
Y214142D01*
X194409D01*
X194355Y214555D01*
X194002Y215407D01*
X193441Y216138D01*
X192710Y216699D01*
X191859Y217052D01*
X191445Y217106D01*
D02*
G37*
G36*
X190445D02*
X190031Y217052D01*
X189180Y216699D01*
X188449Y216138D01*
X187888Y215407D01*
X187535Y214555D01*
X187480Y214142D01*
X190445D01*
Y217106D01*
D02*
G37*
G36*
X194409Y213142D02*
X191445D01*
Y210177D01*
X191859Y210232D01*
X192710Y210584D01*
X193441Y211145D01*
X194002Y211877D01*
X194355Y212728D01*
X194409Y213142D01*
D02*
G37*
G36*
X190445D02*
X187480D01*
X187535Y212728D01*
X187888Y211877D01*
X188449Y211145D01*
X189180Y210584D01*
X190031Y210232D01*
X190445Y210177D01*
Y213142D01*
D02*
G37*
G36*
X300000Y203181D02*
X300000Y203180D01*
X262205D01*
X261590Y203058D01*
X261069Y202710D01*
X261069Y202710D01*
X260151Y201792D01*
X259305D01*
X259291Y201811D01*
X258645Y202306D01*
X257893Y202617D01*
X257087Y202724D01*
X256280Y202617D01*
X255528Y202306D01*
X254882Y201811D01*
X254387Y201165D01*
X254076Y200413D01*
X253969Y199606D01*
X254076Y198800D01*
X254387Y198048D01*
X254882Y197402D01*
X255528Y196907D01*
X256280Y196595D01*
X257087Y196489D01*
X257893Y196595D01*
X258645Y196907D01*
X259291Y197402D01*
X259786Y198048D01*
X260007Y198581D01*
X260816D01*
X260816Y198581D01*
X261431Y198703D01*
X261952Y199051D01*
X262870Y199969D01*
X299335D01*
X303280Y196024D01*
X303182Y195276D01*
X303288Y194469D01*
X303600Y193717D01*
X304095Y193071D01*
X304741Y192576D01*
X305492Y192265D01*
X306299Y192158D01*
X307106Y192265D01*
X307320Y191812D01*
X307132Y191687D01*
X307132Y191686D01*
X289886Y174440D01*
X272766D01*
X272472Y174831D01*
X272350Y175446D01*
X272002Y175967D01*
X272002Y175967D01*
X268880Y179088D01*
X268359Y179436D01*
X267744Y179558D01*
X267744Y179558D01*
X254632D01*
X254173Y180157D01*
X253527Y180652D01*
X252775Y180964D01*
X251969Y181070D01*
X251162Y180964D01*
X250410Y180652D01*
X249764Y180157D01*
X249269Y179511D01*
X248957Y178760D01*
X248851Y177953D01*
X248957Y177146D01*
X249269Y176394D01*
X249764Y175749D01*
X250410Y175253D01*
X251162Y174942D01*
X251969Y174836D01*
X252775Y174942D01*
X253527Y175253D01*
X254173Y175749D01*
X254632Y176347D01*
X267079D01*
X269261Y174166D01*
Y172835D01*
Y152999D01*
X266292Y150031D01*
X244790D01*
X244330Y150629D01*
X243685Y151125D01*
X242933Y151436D01*
X242126Y151542D01*
X241319Y151436D01*
X240567Y151125D01*
X239922Y150629D01*
X239426Y149984D01*
X239115Y149232D01*
X239009Y148425D01*
X239115Y147618D01*
X239426Y146867D01*
X239922Y146221D01*
X240567Y145726D01*
X241319Y145414D01*
X242126Y145308D01*
X242933Y145414D01*
X243685Y145726D01*
X244330Y146221D01*
X244790Y146820D01*
X266957D01*
X266957Y146819D01*
X267572Y146942D01*
X268092Y147290D01*
X272002Y151199D01*
X272002Y151199D01*
X272350Y151720D01*
X272472Y152334D01*
Y171229D01*
X290551D01*
X290551Y171229D01*
X291166Y171351D01*
X291687Y171699D01*
X308933Y188945D01*
X315083D01*
X319654Y184374D01*
Y181797D01*
X319056Y181338D01*
X318560Y180693D01*
X318249Y179941D01*
X318143Y179134D01*
X318249Y178327D01*
X318560Y177575D01*
X319056Y176930D01*
X319701Y176434D01*
X320453Y176123D01*
X321260Y176017D01*
X322067Y176123D01*
X322818Y176434D01*
X323464Y176930D01*
X323959Y177575D01*
X324271Y178327D01*
X324377Y179134D01*
X324271Y179941D01*
X323959Y180693D01*
X323464Y181338D01*
X322866Y181797D01*
Y185039D01*
X322866Y185039D01*
X322743Y185654D01*
X322395Y186175D01*
X322395Y186175D01*
X316883Y191687D01*
X316363Y192035D01*
X315748Y192157D01*
X315748Y192157D01*
X308268D01*
X308268Y192157D01*
X308046Y192113D01*
X307858Y192576D01*
X308503Y193071D01*
X308999Y193717D01*
X309310Y194469D01*
X309416Y195276D01*
X309310Y196082D01*
X308999Y196834D01*
X308503Y197480D01*
X307858Y197975D01*
X307106Y198287D01*
X306299Y198393D01*
X305551Y198294D01*
X301135Y202710D01*
X300615Y203058D01*
X300513Y203079D01*
X300000Y203181D01*
D02*
G37*
G36*
X171403Y200953D02*
Y197989D01*
X174367D01*
X174313Y198403D01*
X173960Y199254D01*
X173399Y199985D01*
X172668Y200546D01*
X171817Y200899D01*
X171403Y200953D01*
D02*
G37*
G36*
X170403D02*
X169989Y200899D01*
X169138Y200546D01*
X168407Y199985D01*
X167846Y199254D01*
X167493Y198403D01*
X167438Y197989D01*
X170403D01*
Y200953D01*
D02*
G37*
G36*
X174367Y196989D02*
X171403D01*
Y194025D01*
X171817Y194079D01*
X172668Y194432D01*
X173399Y194993D01*
X173960Y195724D01*
X174313Y196575D01*
X174367Y196989D01*
D02*
G37*
G36*
X170403D02*
X167438D01*
X167493Y196575D01*
X167846Y195724D01*
X168407Y194993D01*
X169138Y194432D01*
X169989Y194079D01*
X170403Y194025D01*
Y196989D01*
D02*
G37*
G36*
X264280Y192441D02*
Y189476D01*
X267244D01*
X267189Y189890D01*
X266837Y190742D01*
X266276Y191473D01*
X265545Y192034D01*
X264693Y192386D01*
X264280Y192441D01*
D02*
G37*
G36*
X263280D02*
X262866Y192386D01*
X262014Y192034D01*
X261283Y191473D01*
X260722Y190742D01*
X260370Y189890D01*
X260315Y189476D01*
X263280D01*
Y192441D01*
D02*
G37*
G36*
X267244Y188476D02*
X264280D01*
Y185512D01*
X264693Y185566D01*
X265545Y185919D01*
X266276Y186480D01*
X266837Y187211D01*
X267189Y188063D01*
X267244Y188476D01*
D02*
G37*
G36*
X263280D02*
X260315D01*
X260370Y188063D01*
X260722Y187211D01*
X261283Y186480D01*
X262014Y185919D01*
X262866Y185566D01*
X263280Y185512D01*
Y188476D01*
D02*
G37*
G36*
X293807Y187716D02*
Y184752D01*
X296772D01*
X296717Y185166D01*
X296364Y186017D01*
X295803Y186748D01*
X295072Y187309D01*
X294221Y187662D01*
X293807Y187716D01*
D02*
G37*
G36*
X292807D02*
X292393Y187662D01*
X291542Y187309D01*
X290811Y186748D01*
X290250Y186017D01*
X289897Y185166D01*
X289843Y184752D01*
X292807D01*
Y187716D01*
D02*
G37*
G36*
X296772Y183752D02*
X293807D01*
Y180788D01*
X294221Y180842D01*
X295072Y181195D01*
X295803Y181756D01*
X296364Y182487D01*
X296717Y183338D01*
X296772Y183752D01*
D02*
G37*
G36*
X292807D02*
X289843D01*
X289897Y183338D01*
X290250Y182487D01*
X290811Y181756D01*
X291542Y181195D01*
X292393Y180842D01*
X292807Y180788D01*
Y183752D01*
D02*
G37*
G36*
X313779Y186188D02*
X312973Y186082D01*
X312221Y185770D01*
X311575Y185275D01*
X311080Y184629D01*
X310769Y183878D01*
X310662Y183071D01*
X310769Y182264D01*
X311080Y181512D01*
X311114Y181468D01*
X308258Y178612D01*
X308013Y178733D01*
X307811Y178873D01*
X307711Y179637D01*
X307399Y180389D01*
X306904Y181034D01*
X306258Y181530D01*
X305506Y181841D01*
X304700Y181947D01*
X303893Y181841D01*
X303141Y181530D01*
X302495Y181034D01*
X302000Y180389D01*
X301689Y179637D01*
X301582Y178830D01*
X301689Y178023D01*
X302000Y177271D01*
X302495Y176626D01*
X303141Y176130D01*
X303713Y175893D01*
Y120661D01*
X303355Y120303D01*
X240158D01*
X239620Y120196D01*
X239164Y119891D01*
X232865Y113592D01*
X232560Y113136D01*
X232453Y112598D01*
Y85962D01*
X232560Y85424D01*
X232865Y84968D01*
X233787Y84046D01*
X234243Y83741D01*
X234781Y83634D01*
X242906D01*
X242970Y83481D01*
X243465Y82835D01*
X244111Y82340D01*
X244863Y82028D01*
X245669Y81922D01*
X246476Y82028D01*
X247228Y82340D01*
X247873Y82835D01*
X248369Y83481D01*
X248680Y84233D01*
X248786Y85039D01*
X248680Y85846D01*
X248369Y86598D01*
X247873Y87244D01*
X247228Y87739D01*
X246476Y88050D01*
X245669Y88157D01*
X244863Y88050D01*
X244111Y87739D01*
X243465Y87244D01*
X242970Y86598D01*
X242906Y86444D01*
X235363D01*
X235263Y86544D01*
Y112016D01*
X240739Y117493D01*
X303937D01*
X304475Y117600D01*
X304930Y117904D01*
X306112Y119085D01*
X306363Y119461D01*
X306717Y119431D01*
X306863Y119378D01*
Y116859D01*
X306763Y116759D01*
X246986D01*
X246448Y116652D01*
X245992Y116348D01*
X242709Y113065D01*
X242404Y112609D01*
X242297Y112071D01*
Y98615D01*
X240724Y97042D01*
X240571Y97105D01*
X239764Y97212D01*
X238957Y97105D01*
X238205Y96794D01*
X237560Y96299D01*
X237064Y95653D01*
X236753Y94901D01*
X236647Y94095D01*
X236753Y93288D01*
X237064Y92536D01*
X237560Y91890D01*
X238205Y91395D01*
X238957Y91084D01*
X239764Y90977D01*
X240571Y91084D01*
X241322Y91395D01*
X241968Y91890D01*
X242463Y92536D01*
X242775Y93288D01*
X242881Y94095D01*
X242775Y94901D01*
X242711Y95055D01*
X244696Y97040D01*
X245000Y97495D01*
X245107Y98033D01*
Y111489D01*
X247567Y113949D01*
X307345D01*
X307883Y114056D01*
X308339Y114361D01*
X309261Y115283D01*
X309566Y115739D01*
X309673Y116277D01*
Y176054D01*
X313597Y179978D01*
X313779Y179954D01*
X314586Y180060D01*
X315338Y180371D01*
X315984Y180867D01*
X316479Y181512D01*
X316791Y182264D01*
X316897Y183071D01*
X316791Y183878D01*
X316479Y184629D01*
X315984Y185275D01*
X315338Y185770D01*
X314586Y186082D01*
X313779Y186188D01*
D02*
G37*
G36*
X406458Y178769D02*
Y175805D01*
X409423D01*
X409368Y176218D01*
X409016Y177070D01*
X408455Y177801D01*
X407724Y178362D01*
X406872Y178715D01*
X406458Y178769D01*
D02*
G37*
G36*
X405458D02*
X405045Y178715D01*
X404193Y178362D01*
X403462Y177801D01*
X402901Y177070D01*
X402549Y176218D01*
X402494Y175805D01*
X405458D01*
Y178769D01*
D02*
G37*
G36*
X409423Y174805D02*
X406458D01*
Y171840D01*
X406872Y171895D01*
X407724Y172248D01*
X408455Y172809D01*
X409016Y173540D01*
X409368Y174391D01*
X409423Y174805D01*
D02*
G37*
G36*
X405458D02*
X402494D01*
X402549Y174391D01*
X402901Y173540D01*
X403462Y172809D01*
X404193Y172248D01*
X405045Y171895D01*
X405458Y171840D01*
Y174805D01*
D02*
G37*
G36*
X322941Y170394D02*
Y167429D01*
X325905D01*
X325851Y167843D01*
X325498Y168694D01*
X324937Y169425D01*
X324206Y169986D01*
X323355Y170339D01*
X322941Y170394D01*
D02*
G37*
G36*
X321941D02*
X321527Y170339D01*
X320676Y169986D01*
X319945Y169425D01*
X319384Y168694D01*
X319031Y167843D01*
X318977Y167429D01*
X321941D01*
Y170394D01*
D02*
G37*
G36*
X325905Y166429D02*
X322941D01*
Y163465D01*
X323355Y163519D01*
X324206Y163872D01*
X324937Y164433D01*
X325498Y165164D01*
X325851Y166016D01*
X325905Y166429D01*
D02*
G37*
G36*
X321941D02*
X318977D01*
X319031Y166016D01*
X319384Y165164D01*
X319945Y164433D01*
X320676Y163872D01*
X321527Y163519D01*
X321941Y163465D01*
Y166429D01*
D02*
G37*
G36*
X193807Y164882D02*
Y161917D01*
X196772D01*
X196717Y162331D01*
X196364Y163182D01*
X195803Y163914D01*
X195072Y164475D01*
X194221Y164827D01*
X193807Y164882D01*
D02*
G37*
G36*
X192807D02*
X192393Y164827D01*
X191542Y164475D01*
X190811Y163914D01*
X190250Y163182D01*
X189897Y162331D01*
X189843Y161917D01*
X192807D01*
Y164882D01*
D02*
G37*
G36*
X196772Y160917D02*
X193807D01*
Y157953D01*
X194221Y158007D01*
X195072Y158360D01*
X195803Y158921D01*
X196364Y159652D01*
X196717Y160504D01*
X196772Y160917D01*
D02*
G37*
G36*
X192807D02*
X189843D01*
X189897Y160504D01*
X190250Y159652D01*
X190811Y158921D01*
X191542Y158360D01*
X192393Y158007D01*
X192807Y157953D01*
Y160917D01*
D02*
G37*
G36*
X239476Y158976D02*
Y156012D01*
X242441D01*
X242386Y156425D01*
X242034Y157277D01*
X241473Y158008D01*
X240741Y158569D01*
X239890Y158922D01*
X239476Y158976D01*
D02*
G37*
G36*
X238476D02*
X238063Y158922D01*
X237211Y158569D01*
X236480Y158008D01*
X235919Y157277D01*
X235566Y156425D01*
X235512Y156012D01*
X238476D01*
Y158976D01*
D02*
G37*
G36*
X242441Y155012D02*
X239476D01*
Y152047D01*
X239890Y152102D01*
X240741Y152455D01*
X241473Y153016D01*
X242034Y153747D01*
X242386Y154598D01*
X242441Y155012D01*
D02*
G37*
G36*
X238476D02*
X235512D01*
X235566Y154598D01*
X235919Y153747D01*
X236480Y153016D01*
X237211Y152455D01*
X238063Y152102D01*
X238476Y152047D01*
Y155012D01*
D02*
G37*
G36*
X478346Y163038D02*
X476494Y162855D01*
X474713Y162315D01*
X473072Y161438D01*
X471633Y160257D01*
X470452Y158818D01*
X469575Y157177D01*
X469034Y155396D01*
X468852Y153543D01*
X469034Y151691D01*
X469575Y149910D01*
X470452Y148268D01*
X471633Y146830D01*
X473072Y145649D01*
X474713Y144772D01*
X476494Y144231D01*
X478346Y144049D01*
X480199Y144231D01*
X481980Y144772D01*
X483621Y145649D01*
X485060Y146830D01*
X486241Y148268D01*
X487118Y149910D01*
X487659Y151691D01*
X487841Y153543D01*
X487659Y155396D01*
X487118Y157177D01*
X486241Y158818D01*
X485060Y160257D01*
X483621Y161438D01*
X481980Y162315D01*
X480199Y162855D01*
X478346Y163038D01*
D02*
G37*
G36*
X92520D02*
X90667Y162855D01*
X88886Y162315D01*
X87245Y161438D01*
X85806Y160257D01*
X84625Y158818D01*
X83748Y157177D01*
X83208Y155396D01*
X83025Y153543D01*
X83208Y151691D01*
X83748Y149910D01*
X84625Y148268D01*
X85806Y146830D01*
X87245Y145649D01*
X88886Y144772D01*
X90667Y144231D01*
X92520Y144049D01*
X94372Y144231D01*
X96153Y144772D01*
X97795Y145649D01*
X99233Y146830D01*
X100414Y148268D01*
X101292Y149910D01*
X101832Y151691D01*
X102014Y153543D01*
X101832Y155396D01*
X101292Y157177D01*
X100414Y158818D01*
X99233Y160257D01*
X97795Y161438D01*
X96153Y162315D01*
X94372Y162855D01*
X92520Y163038D01*
D02*
G37*
G36*
X294595Y143228D02*
Y140264D01*
X297559D01*
X297504Y140677D01*
X297152Y141529D01*
X296591Y142260D01*
X295860Y142821D01*
X295008Y143174D01*
X294595Y143228D01*
D02*
G37*
G36*
X293595D02*
X293181Y143174D01*
X292329Y142821D01*
X291598Y142260D01*
X291037Y141529D01*
X290685Y140677D01*
X290630Y140264D01*
X293595D01*
Y143228D01*
D02*
G37*
G36*
X297559Y139264D02*
X294595D01*
Y136299D01*
X295008Y136354D01*
X295860Y136706D01*
X296591Y137268D01*
X297152Y137999D01*
X297504Y138850D01*
X297559Y139264D01*
D02*
G37*
G36*
X293595D02*
X290630D01*
X290685Y138850D01*
X291037Y137999D01*
X291598Y137268D01*
X292329Y136706D01*
X293181Y136354D01*
X293595Y136299D01*
Y139264D01*
D02*
G37*
G36*
X266248Y135354D02*
Y132390D01*
X269212D01*
X269158Y132803D01*
X268805Y133655D01*
X268244Y134386D01*
X267513Y134947D01*
X266662Y135300D01*
X266248Y135354D01*
D02*
G37*
G36*
X265248D02*
X264834Y135300D01*
X263983Y134947D01*
X263252Y134386D01*
X262691Y133655D01*
X262338Y132803D01*
X262284Y132390D01*
X265248D01*
Y135354D01*
D02*
G37*
G36*
X131996Y134173D02*
Y131209D01*
X134960D01*
X134906Y131622D01*
X134553Y132474D01*
X133992Y133205D01*
X133261Y133766D01*
X132410Y134119D01*
X131996Y134173D01*
D02*
G37*
G36*
X130996D02*
X130582Y134119D01*
X129731Y133766D01*
X129000Y133205D01*
X128439Y132474D01*
X128086Y131622D01*
X128032Y131209D01*
X130996D01*
Y134173D01*
D02*
G37*
G36*
X269212Y131390D02*
X266248D01*
Y128425D01*
X266662Y128480D01*
X267513Y128832D01*
X268244Y129393D01*
X268805Y130125D01*
X269158Y130976D01*
X269212Y131390D01*
D02*
G37*
G36*
X265248D02*
X262284D01*
X262338Y130976D01*
X262691Y130125D01*
X263252Y129393D01*
X263983Y128832D01*
X264834Y128480D01*
X265248Y128425D01*
Y131390D01*
D02*
G37*
G36*
X134960Y130209D02*
X131996D01*
Y127244D01*
X132410Y127299D01*
X133261Y127651D01*
X133992Y128212D01*
X134553Y128944D01*
X134906Y129795D01*
X134960Y130209D01*
D02*
G37*
G36*
X130996D02*
X128032D01*
X128086Y129795D01*
X128439Y128944D01*
X129000Y128212D01*
X129731Y127651D01*
X130582Y127299D01*
X130996Y127244D01*
Y130209D01*
D02*
G37*
G36*
X209555Y126299D02*
Y123335D01*
X212520D01*
X212465Y123748D01*
X212112Y124600D01*
X211551Y125331D01*
X210820Y125892D01*
X209969Y126245D01*
X209555Y126299D01*
D02*
G37*
G36*
X208555D02*
X208141Y126245D01*
X207290Y125892D01*
X206559Y125331D01*
X205998Y124600D01*
X205645Y123748D01*
X205591Y123335D01*
X208555D01*
Y126299D01*
D02*
G37*
G36*
X212520Y122335D02*
X209555D01*
Y119370D01*
X209969Y119425D01*
X210820Y119777D01*
X211551Y120338D01*
X212112Y121070D01*
X212465Y121921D01*
X212520Y122335D01*
D02*
G37*
G36*
X208555D02*
X205591D01*
X205645Y121921D01*
X205998Y121070D01*
X206559Y120338D01*
X207290Y119777D01*
X208141Y119425D01*
X208555Y119370D01*
Y122335D01*
D02*
G37*
G36*
X185827Y133432D02*
X185020Y133326D01*
X184268Y133015D01*
X183623Y132519D01*
X183127Y131874D01*
X182816Y131122D01*
X182710Y130315D01*
X182816Y129508D01*
X183127Y128756D01*
X183623Y128111D01*
X184268Y127615D01*
X185020Y127304D01*
X185827Y127198D01*
X186634Y127304D01*
X187080Y127489D01*
X200865Y113705D01*
X200821Y113041D01*
X200552Y112834D01*
X200056Y112188D01*
X199745Y111437D01*
X199639Y110630D01*
X199745Y109823D01*
X200056Y109071D01*
X200552Y108426D01*
X201197Y107930D01*
X201949Y107619D01*
X202756Y107513D01*
X203563Y107619D01*
X204314Y107930D01*
X204960Y108426D01*
X205455Y109071D01*
X205767Y109823D01*
X205873Y110630D01*
X205767Y111437D01*
X205455Y112188D01*
X204960Y112834D01*
X204314Y113330D01*
X203563Y113641D01*
X203417Y113660D01*
Y113836D01*
X203333Y114262D01*
X203092Y114622D01*
X203092Y114623D01*
X188653Y129061D01*
X188838Y129508D01*
X188944Y130315D01*
X188838Y131122D01*
X188526Y131874D01*
X188031Y132519D01*
X187385Y133015D01*
X186634Y133326D01*
X185827Y133432D01*
D02*
G37*
G36*
X335539Y99921D02*
Y96957D01*
X338504D01*
X338449Y97370D01*
X338097Y98222D01*
X337536Y98953D01*
X336805Y99514D01*
X335953Y99867D01*
X335539Y99921D01*
D02*
G37*
G36*
X334539D02*
X334126Y99867D01*
X333274Y99514D01*
X332543Y98953D01*
X331982Y98222D01*
X331629Y97370D01*
X331575Y96957D01*
X334539D01*
Y99921D01*
D02*
G37*
G36*
X338504Y95957D02*
X335539D01*
Y92992D01*
X335953Y93047D01*
X336805Y93400D01*
X337536Y93960D01*
X338097Y94692D01*
X338449Y95543D01*
X338504Y95957D01*
D02*
G37*
G36*
X334539D02*
X331575D01*
X331629Y95543D01*
X331982Y94692D01*
X332543Y93960D01*
X333274Y93400D01*
X334126Y93047D01*
X334539Y92992D01*
Y95957D01*
D02*
G37*
G36*
X374388Y94481D02*
Y91516D01*
X377352D01*
X377298Y91930D01*
X376945Y92781D01*
X376384Y93512D01*
X375653Y94073D01*
X374801Y94426D01*
X374388Y94481D01*
D02*
G37*
G36*
X373388D02*
X372974Y94426D01*
X372123Y94073D01*
X371392Y93512D01*
X370831Y92781D01*
X370478Y91930D01*
X370424Y91516D01*
X373388D01*
Y94481D01*
D02*
G37*
G36*
X377352Y90516D02*
X374388D01*
Y87552D01*
X374801Y87606D01*
X375653Y87959D01*
X376384Y88520D01*
X376945Y89251D01*
X377298Y90103D01*
X377352Y90516D01*
D02*
G37*
G36*
X373388D02*
X370424D01*
X370478Y90103D01*
X370831Y89251D01*
X371392Y88520D01*
X372123Y87959D01*
X372974Y87606D01*
X373388Y87552D01*
Y90516D01*
D02*
G37*
G36*
X478346Y52802D02*
X476494Y52619D01*
X474713Y52079D01*
X473072Y51201D01*
X471633Y50021D01*
X470452Y48582D01*
X469575Y46940D01*
X469034Y45159D01*
X468852Y43307D01*
X469034Y41455D01*
X469575Y39674D01*
X470452Y38032D01*
X471633Y36593D01*
X473072Y35413D01*
X474713Y34535D01*
X476494Y33995D01*
X478346Y33812D01*
X480199Y33995D01*
X481980Y34535D01*
X483621Y35413D01*
X485060Y36593D01*
X486241Y38032D01*
X487118Y39674D01*
X487659Y41455D01*
X487841Y43307D01*
X487659Y45159D01*
X487118Y46940D01*
X486241Y48582D01*
X485060Y50021D01*
X483621Y51201D01*
X481980Y52079D01*
X480199Y52619D01*
X478346Y52802D01*
D02*
G37*
G36*
X92520D02*
X90667Y52619D01*
X88886Y52079D01*
X87245Y51201D01*
X85806Y50021D01*
X84625Y48582D01*
X83748Y46940D01*
X83208Y45159D01*
X83025Y43307D01*
X83208Y41455D01*
X83748Y39674D01*
X84625Y38032D01*
X85806Y36593D01*
X87245Y35413D01*
X88886Y34535D01*
X90667Y33995D01*
X92520Y33812D01*
X94372Y33995D01*
X96153Y34535D01*
X97795Y35413D01*
X99233Y36593D01*
X100414Y38032D01*
X101292Y39674D01*
X101832Y41455D01*
X102014Y43307D01*
X101832Y45159D01*
X101292Y46940D01*
X100414Y48582D01*
X99233Y50021D01*
X97795Y51201D01*
X96153Y52079D01*
X94372Y52619D01*
X92520Y52802D01*
D02*
G37*
%LPD*%
D13*
X78740Y230709D02*
X90158Y219291D01*
X198819D01*
X202362Y222835D01*
X78740Y230709D02*
Y265748D01*
X305118Y120079D02*
Y178411D01*
X313779Y182147D02*
Y183071D01*
X304700Y178830D02*
X305118Y178411D01*
X308268Y116277D02*
Y176636D01*
X313779Y182147D01*
X307345Y115354D02*
X308268Y116277D01*
X303937Y118898D02*
X305118Y120079D01*
X246986Y115354D02*
X307345D01*
X233858Y85962D02*
Y112598D01*
X234781Y85039D02*
X245669D01*
X233858Y85962D02*
X234781Y85039D01*
X233858Y112598D02*
X240158Y118898D01*
X303937D01*
X243702Y98033D02*
Y112071D01*
X246986Y115354D01*
X239764Y94095D02*
X243702Y98033D01*
D15*
X185827Y130315D02*
X202305Y113836D01*
Y111080D02*
X202756Y110630D01*
X202305Y111080D02*
Y113836D01*
D62*
X267744Y177953D02*
X270866Y174831D01*
X251969Y177953D02*
X267744D01*
X242126Y148425D02*
X266957D01*
X270866Y152334D01*
X257667Y200186D02*
X260816D01*
X262205Y201575D01*
X257087Y199606D02*
X257667Y200186D01*
X262205Y201575D02*
X300000D01*
X306299Y195276D01*
X270866Y172835D02*
Y174831D01*
Y152334D02*
Y172835D01*
X321260Y179134D02*
Y185039D01*
X315748Y190551D02*
X321260Y185039D01*
X290551Y172835D02*
X308268Y190551D01*
X315748D01*
X270866Y172835D02*
X290551D01*
D65*
X473425Y236221D02*
D03*
X510827D02*
D03*
X335630D02*
D03*
X373031D02*
D03*
X197835D02*
D03*
X235236D02*
D03*
X60039D02*
D03*
X97441D02*
D03*
D66*
X482283Y265748D02*
D03*
X492126D02*
D03*
X501968D02*
D03*
X344488D02*
D03*
X354331D02*
D03*
X364173D02*
D03*
X206693D02*
D03*
X216535D02*
D03*
X226378D02*
D03*
X68898D02*
D03*
X78740D02*
D03*
X88583D02*
D03*
D67*
X251969Y177953D02*
D03*
X263779Y188976D02*
D03*
X190945Y213642D02*
D03*
X202362Y222835D02*
D03*
X242126Y148425D02*
D03*
X405958Y175305D02*
D03*
X257087Y199606D02*
D03*
X306299Y195276D02*
D03*
X238976Y155512D02*
D03*
X373888Y91016D02*
D03*
X335039Y96457D02*
D03*
X131496Y130709D02*
D03*
X209055Y122835D02*
D03*
X170903Y197489D02*
D03*
X193307Y161417D02*
D03*
X265748Y131890D02*
D03*
X294094Y139764D02*
D03*
X293307Y184252D02*
D03*
X313779Y183071D02*
D03*
X304700Y178830D02*
D03*
X321260Y179134D02*
D03*
X322441Y166929D02*
D03*
X245669Y85039D02*
D03*
X239764Y94095D02*
D03*
X185827Y130315D02*
D03*
X202756Y110630D02*
D03*
D68*
X478346Y43307D02*
D03*
Y153543D02*
D03*
X92520D02*
D03*
Y43307D02*
D03*
M02*
