G04*
G04 #@! TF.GenerationSoftware,Altium Limited,Altium Designer,21.6.4 (81)*
G04*
G04 Layer_Color=8388736*
%FSLAX25Y25*%
%MOIN*%
G70*
G04*
G04 #@! TF.SameCoordinates,229126BB-2D6E-4CE4-B507-F74EAE748698*
G04*
G04*
G04 #@! TF.FilePolarity,Negative*
G04*
G01*
G75*
%ADD16R,0.04934X0.04934*%
%ADD17R,0.02769X0.02375*%
%ADD18R,0.01587X0.04147*%
%ADD19R,0.04147X0.01587*%
%ADD20R,0.13398X0.13398*%
%ADD21R,0.03241X0.03359*%
%ADD22R,0.03359X0.03241*%
%ADD23R,0.03359X0.04343*%
%ADD24R,0.02454X0.03241*%
%ADD25R,0.04343X0.03359*%
%ADD26R,0.02375X0.06115*%
%ADD27R,0.06509X0.05918*%
%ADD28R,0.07099X0.06312*%
%ADD29R,0.08280X0.08280*%
%ADD30R,0.03359X0.07296*%
%ADD31R,0.23005X0.04580*%
%ADD32R,0.02965X0.06706*%
%ADD33R,0.04737X0.12020*%
%ADD34R,0.22650X0.24225*%
%ADD35R,0.09068X0.22847*%
%ADD36R,0.08674X0.07887*%
%ADD37C,0.10642*%
%ADD38C,0.07887*%
%ADD39C,0.05800*%
%ADD40C,0.18517*%
D16*
X191634Y205906D02*
D03*
X198917D02*
D03*
X156595Y195276D02*
D03*
X163878D02*
D03*
D17*
X264961Y175197D02*
D03*
Y172047D02*
D03*
X261024Y175197D02*
D03*
Y178347D02*
D03*
D18*
X273228Y147835D02*
D03*
X274803D02*
D03*
X276378D02*
D03*
X277953D02*
D03*
X279528D02*
D03*
X281102D02*
D03*
X282677D02*
D03*
X284252D02*
D03*
X285827D02*
D03*
X287402D02*
D03*
X288976D02*
D03*
X290551D02*
D03*
X292126D02*
D03*
X293701D02*
D03*
Y175000D02*
D03*
X292126D02*
D03*
X290551D02*
D03*
X288976D02*
D03*
X287402D02*
D03*
X285827D02*
D03*
X284252D02*
D03*
X282677D02*
D03*
X281102D02*
D03*
X279528D02*
D03*
X277953D02*
D03*
X276378D02*
D03*
X274803D02*
D03*
X273228D02*
D03*
D19*
X297047Y151181D02*
D03*
Y152756D02*
D03*
Y154331D02*
D03*
Y155905D02*
D03*
Y157480D02*
D03*
Y159055D02*
D03*
Y160630D02*
D03*
Y162205D02*
D03*
Y163779D02*
D03*
Y165354D02*
D03*
Y166929D02*
D03*
Y168504D02*
D03*
Y170079D02*
D03*
Y171653D02*
D03*
X269882D02*
D03*
Y170079D02*
D03*
Y168504D02*
D03*
Y166929D02*
D03*
Y165354D02*
D03*
Y163779D02*
D03*
Y162205D02*
D03*
Y160630D02*
D03*
Y159055D02*
D03*
Y157480D02*
D03*
Y155905D02*
D03*
Y154331D02*
D03*
Y152756D02*
D03*
Y151181D02*
D03*
D20*
X283465Y161417D02*
D03*
D21*
X272047Y184095D02*
D03*
Y187559D02*
D03*
X254724Y159606D02*
D03*
Y156142D02*
D03*
X246063Y160000D02*
D03*
Y156535D02*
D03*
X272835Y139921D02*
D03*
Y136457D02*
D03*
X287402Y139921D02*
D03*
Y136457D02*
D03*
X376378Y104173D02*
D03*
Y107638D02*
D03*
X194078Y150236D02*
D03*
Y153701D02*
D03*
X287402Y187559D02*
D03*
Y184095D02*
D03*
D22*
X263543Y183465D02*
D03*
X260079D02*
D03*
X312441Y172047D02*
D03*
X315905D02*
D03*
X313622Y162205D02*
D03*
X317087D02*
D03*
X377716Y183071D02*
D03*
X374252D02*
D03*
X335984Y113779D02*
D03*
X332520D02*
D03*
X164803Y130709D02*
D03*
X168268D02*
D03*
D23*
X257185Y171260D02*
D03*
X251476D02*
D03*
X257185Y165748D02*
D03*
X251476D02*
D03*
X374311Y189764D02*
D03*
X380020D02*
D03*
X395374Y177559D02*
D03*
X389665D02*
D03*
X194193Y137008D02*
D03*
X188484D02*
D03*
X138091Y130709D02*
D03*
X143799D02*
D03*
X339075Y172835D02*
D03*
X333366D02*
D03*
X150295Y130709D02*
D03*
X156004D02*
D03*
D24*
X369882Y172441D02*
D03*
X374213D02*
D03*
Y135433D02*
D03*
X369882D02*
D03*
D25*
X381890Y107579D02*
D03*
Y101870D02*
D03*
Y91240D02*
D03*
Y96949D02*
D03*
X325590Y113878D02*
D03*
Y108169D02*
D03*
Y96752D02*
D03*
Y102461D02*
D03*
X201181Y122343D02*
D03*
Y128051D02*
D03*
D26*
X133858Y203839D02*
D03*
X131299D02*
D03*
X128740D02*
D03*
X126181D02*
D03*
X123622D02*
D03*
D27*
X142224Y214370D02*
D03*
X115256D02*
D03*
D28*
X141339Y204724D02*
D03*
X116142D02*
D03*
D29*
X133465Y214370D02*
D03*
X124016D02*
D03*
D30*
X201161Y165354D02*
D03*
X206161D02*
D03*
X211161D02*
D03*
X216161D02*
D03*
Y137008D02*
D03*
X211161D02*
D03*
X206161D02*
D03*
X201161D02*
D03*
D31*
X220118Y75157D02*
D03*
X228701Y85158D02*
D03*
X220118Y95157D02*
D03*
X228701Y105157D02*
D03*
D32*
X389665Y189764D02*
D03*
X402461D02*
D03*
D33*
X179882Y242323D02*
D03*
X170866D02*
D03*
X161850D02*
D03*
D34*
X170866Y215748D02*
D03*
D35*
X357000Y172701D02*
D03*
Y135299D02*
D03*
D36*
X450787Y88583D02*
D03*
X395669D02*
D03*
X450787Y108268D02*
D03*
X395669D02*
D03*
X312992Y88583D02*
D03*
X257874D02*
D03*
X312992Y108268D02*
D03*
X257874D02*
D03*
X175197Y88583D02*
D03*
X120079D02*
D03*
X175197Y108268D02*
D03*
X120079D02*
D03*
D37*
X473425Y236221D02*
D03*
X510827D02*
D03*
X335630D02*
D03*
X373031D02*
D03*
X197835D02*
D03*
X235236D02*
D03*
X60039D02*
D03*
X97441D02*
D03*
D38*
X482283Y265748D02*
D03*
X492126D02*
D03*
X501968D02*
D03*
X344488D02*
D03*
X354331D02*
D03*
X364173D02*
D03*
X206693D02*
D03*
X216535D02*
D03*
X226378D02*
D03*
X68898D02*
D03*
X78740D02*
D03*
X88583D02*
D03*
D39*
X251969Y177953D02*
D03*
X263779Y188976D02*
D03*
X190945Y213642D02*
D03*
X202362Y222835D02*
D03*
X242126Y148425D02*
D03*
X405958Y175305D02*
D03*
X257087Y199606D02*
D03*
X306299Y195276D02*
D03*
X238976Y155512D02*
D03*
X373888Y91016D02*
D03*
X335039Y96457D02*
D03*
X131496Y130709D02*
D03*
X209055Y122835D02*
D03*
X170903Y197489D02*
D03*
X193307Y161417D02*
D03*
X265748Y131890D02*
D03*
X294094Y139764D02*
D03*
X293307Y184252D02*
D03*
X313779Y183071D02*
D03*
X304700Y178830D02*
D03*
X321260Y179134D02*
D03*
X322441Y166929D02*
D03*
X245669Y85039D02*
D03*
X239764Y94095D02*
D03*
X185827Y130315D02*
D03*
X202756Y110630D02*
D03*
D40*
X478346Y43307D02*
D03*
Y153543D02*
D03*
X92520D02*
D03*
Y43307D02*
D03*
M02*
